<svg id="Layer_1" enable-background="new 0 0 511.358 511.358" height="512" viewBox="0 0 511.358 511.358" width="512" xmlns="http://www.w3.org/2000/svg"><path d="m375.093 156.402c-14.61 0-27.835 6.024-37.339 15.711-9.504-9.687-22.729-15.711-37.339-15.711-3.08 0-6.094.283-9.029.796l12.674-98.422c1.778-13.806-1.927-27.477-10.432-38.496s-20.792-18.066-34.596-19.843c-13.806-1.781-27.477 1.927-38.496 10.432s-18.067 20.791-19.844 34.597l-6.48 50.325-6.48-50.325c-1.777-13.806-8.825-26.092-19.844-34.597-11.02-8.505-24.689-12.206-38.496-10.432-13.805 1.777-26.092 8.824-34.598 19.844-8.505 11.019-12.209 24.69-10.432 38.496l27.501 213.563c-5.591 8.327-8.858 18.338-8.858 29.099v69.067c0 77.666 63.186 140.853 140.853 140.853h42.724c77.666 0 140.852-63.187 140.852-140.853v-161.765c-.002-28.859-23.481-52.339-52.341-52.339zm0 30c12.317 0 22.339 10.021 22.339 22.339v70.394c0 12.317-10.021 22.339-22.339 22.339s-22.339-10.021-22.339-22.339v-70.394c0-12.317 10.022-22.339 22.339-22.339zm-52.339 22.339v70.394c0 12.317-10.021 22.339-22.339 22.339s-22.34-10.021-22.34-22.339v-70.394c0-12.317 10.021-22.339 22.34-22.339 12.318 0 22.339 10.022 22.339 22.339zm-167.41 70.358h73.767c12.318 0 22.339 10.021 22.339 22.34 0 12.317-10.021 22.339-22.339 22.339h-73.767c-12.318 0-22.339-10.021-22.339-22.339-.001-12.319 10.021-22.34 22.339-22.34zm-36.802-240.489c3.608-4.676 8.822-7.665 14.68-8.42 5.857-.749 11.658.818 16.333 4.426 4.676 3.609 7.666 8.822 8.42 14.681l21.357 165.854c1.479 14.909 25.898 19.641 29.754 0l21.357-165.854c.754-5.858 3.745-11.071 8.42-14.68 4.675-3.608 10.472-5.177 16.335-4.427 5.857.755 11.07 3.744 14.68 8.42 3.608 4.676 5.18 10.477 4.426 16.334l-15.764 122.434c-6.568 8.747-10.465 19.608-10.465 31.363v43.929c-5.885-2.297-12.277-3.571-18.965-3.571h-73.767c-5.545 0-10.888.874-15.907 2.479l-25.32-196.634c-.754-5.857.817-11.658 4.426-16.334zm168.038 442.748h-42.724c-61.125 0-110.853-49.729-110.853-110.853v-21.748c6.78 3.214 14.352 5.019 22.339 5.019h73.767c20.286 0 37.9-11.609 46.583-28.524 7.367 3.965 15.785 6.221 24.722 6.221 14.61 0 27.835-6.024 37.339-15.711 9.504 9.687 22.729 15.711 37.339 15.711 7.988 0 15.559-1.805 22.339-5.019v44.051c.001 61.125-49.727 110.853-110.851 110.853z"/></svg>