<svg id="Layer_1" enable-background="new 0 0 512.002 512.002" height="512" viewBox="0 0 512.002 512.002" width="512" xmlns="http://www.w3.org/2000/svg"><g><g><path d="m396.352 282.815c-.571-1.063-1.104-2.054-1.574-2.97-.075-.147-.154-.293-.237-.436-5.789-10.027-11.362-17.258-17.225-22.219l28.982-147.287c2.096-10.647-.067-21.428-6.092-30.356-5.791-8.584-14.47-14.364-24.435-16.274-20.302-3.889-39.84 9.596-45.461 31.369l-21.865 84.677-3.86-139.426c-.617-22.245-17.536-39.768-38.519-39.893-.039 0-.08 0-.119 0-20.983.125-37.902 17.648-38.518 39.894l-3.86 139.426-21.865-84.677c-5.622-21.773-25.159-35.258-45.461-31.37-9.965 1.91-18.644 7.69-24.435 16.274-6.024 8.928-8.188 19.708-6.092 30.356l18.066 91.811c-1.106-.093-2.223-.149-3.354-.149-9.505 0-18.454 3.873-25.197 10.905-6.99 7.289-10.758 17.236-10.337 27.292l.826 19.71v78.654c0 18.672 5.058 36.94 9.949 54.606 3.76 13.579 7.345 26.557 8.675 39.301-5.242.312-9.401 4.649-9.401 9.97v60c0 5.523 4.478 10 10 10h221.227c5.522 0 10-4.477 10-10v-60c0-5.378-4.249-9.752-9.571-9.978 1.792-22.957 9.949-31.256 21.62-43.105 11.06-11.228 24.823-25.201 35.838-54.407 8.275-21.94-2.121-41.298-7.705-51.698zm-266.686-56.502c2.937-3.062 6.759-4.748 10.763-4.748 9.599 0 17.411 7.011 17.786 15.961l1.962 46.823c.189 4.634-1.558 9.226-4.794 12.599-2.936 3.059-6.756 4.743-10.758 4.743-9.599 0-17.411-7.011-17.786-15.962l-1.962-46.805c-.195-4.638 1.551-9.235 4.789-12.611zm255.679 101.141c-9.521 25.246-20.63 36.523-31.373 47.43-12.953 13.149-25.244 25.644-27.407 57.118h-46.012c-5.522 0-10 4.477-10 10s4.478 10 10 10h55.617v40h-201.226v-40h55.609c5.522 0 10-4.477 10-10s-4.478-10-10-10h-46.126c-1.35-15.201-5.469-30.108-9.483-44.607-4.743-17.133-9.224-33.316-9.224-49.27v-21.307c5.561 3.102 12.016 4.874 18.904 4.874 9.5 0 18.445-3.869 25.188-10.895 6.989-7.283 10.761-17.225 10.347-27.282l-1.962-46.825c-.425-10.132-5.028-19.128-12.163-25.482l-20.694-105.166c-1.06-5.388.022-10.825 3.048-15.309 2.793-4.141 6.921-6.917 11.621-7.818 9.78-1.876 19.383 5.315 22.33 16.727l30.578 118.418c.054.207.113.412.181.615 2.307 7.039 9.512 11.29 17.118 10.105 7.181-1.116 12.249-6.682 12.367-13.56l4.839-174.775c.314-11.383 8.473-20.352 18.585-20.446 10.112.095 18.271 9.063 18.586 20.447l4.839 174.775c.118 6.877 5.187 12.443 12.367 13.56 7.601 1.181 14.811-3.067 17.118-10.105.067-.203.127-.408.181-.615l30.578-118.418c2.946-11.411 12.551-18.604 22.33-16.727 4.7.901 8.828 3.677 11.621 7.818 3.025 4.484 4.107 9.92 3.048 15.309l-28.068 142.642c-7.217-.919-14.197.455-21.478 1.892-1.89.373-3.847.76-5.887 1.119-20.848 3.669-32.783 2.019-41.499.813-2.707-.375-5.264-.729-7.738-.879-8.737-.537-16.485 4.459-20.754 13.348-5.294 11.02-5.281 29.185 7.257 43.025.299.33.597.644.895.962-28.701 16.277-43.845 50.382-43.845 73.035 0 5.523 4.478 10 10 10s10-4.477 10-10c0-19.046 15.124-50.336 42.563-59.62 7.203 2.946 14.004 3.577 20.351 4.163 3.875.358 7.536.696 11.367 1.521 5.403 1.16 10.718-2.272 11.881-7.67 1.163-5.399-2.271-10.719-7.67-11.882-5.006-1.078-9.646-1.507-13.739-1.885-10.556-.975-17.529-1.619-26.98-12.053-5.335-5.89-6.031-13.423-5.007-18.084.713-3.242 2.086-4.739 2.466-4.9 1.709.104 3.796.393 6.213.728 9.463 1.309 23.765 3.287 47.707-.927 2.181-.384 4.273-.796 6.293-1.195 8.602-1.697 13.688-2.576 18.168-.923 5.462 2.015 11.328 8.536 17.932 19.93.493.954 1.043 1.98 1.631 3.073 4.926 9.179 11.676 21.748 6.611 35.178z"/><path d="m235.557 432.002h-.008c-5.522 0-9.996 4.477-9.996 10s4.481 10 10.004 10 10-4.477 10-10-4.477-10-10-10z"/></g></g></svg>