<?xml version="1.0" standalone="no"?>
<!DOCTYPE svg PUBLIC "-//W3C//DTD SVG 20010904//EN"
 "http://www.w3.org/TR/2001/REC-SVG-20010904/DTD/svg10.dtd">
<svg version="1.0" xmlns="http://www.w3.org/2000/svg"
 width="945.000000pt" height="1592.000000pt" viewBox="0 0 945.000000 1592.000000"
 preserveAspectRatio="xMidYMid meet">

<g transform="translate(0.000000,1592.000000) scale(0.100000,-0.100000)"
fill="#000000" stroke="none">
<path d="M5011 15189 c-139 -4 -256 -11 -259 -14 -3 -3 287 -5 644 -4 418 0
638 4 619 10 -42 13 -698 19 -1004 8z"/>
<path d="M5633 15103 c-1 -33 0 -35 7 -13 11 34 12 50 2 50 -4 0 -8 -17 -9
-37z"/>
<path d="M4168 15093 c7 -3 16 -2 19 1 4 3 -2 6 -13 5 -11 0 -14 -3 -6 -6z"/>
<path d="M4775 15046 c-16 -37 -11 -66 9 -66 8 0 11 11 8 30 -2 17 1 36 7 44
8 10 9 16 1 21 -6 4 -17 -9 -25 -29z"/>
<path d="M7602 15070 c15 -5 82 -13 147 -19 138 -13 157 -13 148 -5 -9 9 -213
33 -272 33 -42 -1 -46 -2 -23 -9z"/>
<path d="M3261 15054 c-117 -14 -153 -24 -87 -24 63 0 226 23 226 32 0 9 7 10
-139 -8z"/>
<path d="M5392 15064 c9 -8 194 -11 215 -3 10 4 -36 8 -101 8 -66 1 -117 -2
-114 -5z"/>
<path d="M3672 15051 c-9 -5 -1 -10 25 -14 59 -10 72 -7 33 8 -43 17 -42 17
-58 6z"/>
<path d="M6970 15000 c0 -5 4 -10 9 -10 6 0 13 5 16 10 3 6 -1 10 -9 10 -9 0
-16 -4 -16 -10z"/>
<path d="M5508 14993 c6 -2 18 -2 25 0 6 3 1 5 -13 5 -14 0 -19 -2 -12 -5z"/>
<path d="M7060 14975 c-8 -9 -8 -15 -2 -15 18 0 42 12 42 21 0 14 -26 10 -40
-6z"/>
<path d="M3508 14963 c18 -2 45 -2 60 0 15 2 0 4 -33 4 -33 0 -45 -2 -27 -4z"/>
<path d="M3600 14900 c0 -5 4 -10 9 -10 6 0 13 5 16 10 3 6 -1 10 -9 10 -9 0
-16 -4 -16 -10z"/>
<path d="M2350 14850 c-13 -9 -13 -10 0 -10 8 0 22 5 30 10 13 9 13 10 0 10
-8 0 -22 -5 -30 -10z"/>
<path d="M3050 14825 c-11 -13 -8 -13 19 -4 35 12 40 19 12 19 -10 0 -24 -7
-31 -15z"/>
<path d="M3622 14799 c-17 -27 -6 -38 15 -16 11 11 14 20 7 27 -6 6 -14 2 -22
-11z"/>
<path d="M3158 14776 c-92 -25 -129 -66 -130 -145 0 -69 29 -115 144 -227 244
-237 463 -545 613 -861 21 -46 40 -81 43 -79 16 16 -271 536 -370 672 -51 71
-185 233 -242 294 -118 127 -135 213 -55 285 22 20 51 41 65 47 13 6 24 15 24
20 0 11 -36 9 -92 -6z"/>
<path d="M2890 14764 c-14 -7 -35 -23 -47 -36 l-22 -24 20 -29 20 -30 -6 32
c-5 28 -1 36 32 67 41 38 41 41 3 20z"/>
<path d="M3475 14770 l-20 -9 20 1 c11 0 34 4 50 8 l30 8 -30 0 c-16 0 -39 -3
-50 -8z"/>
<path d="M3306 14698 c-112 -61 -113 -107 -2 -256 40 -53 91 -125 114 -159 23
-34 46 -65 52 -68 12 -7 -72 120 -151 230 -65 91 -88 152 -71 189 6 13 36 38
66 56 31 17 56 33 56 36 0 6 -1 6 -64 -28z"/>
<path d="M7344 14352 c-61 -31 -126 -69 -145 -84 -31 -24 -120 -72 -391 -213
-53 -27 -132 -74 -175 -103 l-79 -53 -13 -137 c-18 -205 -49 -425 -76 -537
-13 -55 -31 -154 -41 -220 -9 -66 -36 -237 -59 -380 -102 -613 -144 -1141
-165 -2037 -6 -235 -10 -464 -10 -508 l0 -80 50 0 50 0 0 43 c0 74 29 804 40
1012 23 442 31 556 45 685 8 74 26 245 40 380 37 365 44 416 65 517 25 114 47
264 55 368 14 187 29 314 43 365 9 30 16 85 17 121 0 56 2 64 13 50 11 -14 12
-10 7 24 -3 25 -2 35 3 27 8 -11 10 -11 15 2 4 9 1 15 -6 13 -7 -1 -13 11 -15
28 -2 23 0 27 7 15 9 -12 11 -11 11 8 0 15 4 21 12 16 6 -4 8 -3 5 3 -6 9 11
66 26 91 5 7 34 30 66 51 56 37 108 51 206 56 48 2 149 -15 157 -27 4 -9 11
-8 24 3 16 13 16 9 10 -56 -19 -184 -59 -364 -121 -545 -25 -74 -66 -218 -90
-320 -24 -102 -58 -237 -74 -300 -106 -415 -182 -854 -226 -1315 -19 -201 -65
-906 -65 -1002 0 -121 17 -82 24 55 15 266 47 754 61 917 35 395 126 931 215
1270 5 17 38 145 73 286 47 183 85 305 132 425 75 189 87 225 108 304 8 30 39
134 70 230 69 219 74 242 53 234 -9 -3 -16 -2 -16 4 0 11 85 175 110 212 24
34 80 160 72 159 -4 0 -57 -26 -118 -57z m-754 -712 c0 -5 -2 -10 -4 -10 -3 0
-8 5 -11 10 -3 6 -1 10 4 10 6 0 11 -4 11 -10z"/>
<path d="M3160 14303 c0 -5 17 -25 37 -44 33 -29 34 -30 13 -4 -41 48 -50 57
-50 48z"/>
<path d="M3683 14147 c37 -65 50 -114 25 -89 -37 37 -27 -1 107 -403 53 -159
120 -344 149 -410 65 -149 89 -214 172 -485 130 -424 229 -908 284 -1390 12
-102 28 -234 37 -295 8 -60 17 -141 20 -180 2 -38 8 -74 13 -78 9 -10 9 -14
-25 333 -40 397 -88 722 -166 1102 -41 201 -188 747 -250 926 -74 216 -93 281
-132 447 -48 206 -58 257 -52 263 3 3 5 -1 5 -9 0 -8 10 1 21 19 12 17 26 32
31 32 6 0 8 6 5 14 -4 10 2 16 16 19 22 3 22 4 -3 16 -57 27 64 0 152 -35 49
-19 95 -33 100 -32 24 8 -279 176 -536 296 -5 3 7 -25 27 -61z"/>
<path d="M5732 14088 c0 -20 -4 -43 -8 -50 -5 -7 -9 -19 -9 -27 0 -26 -69 -54
-175 -72 -113 -18 -136 -14 -143 23 l-4 23 -10 -25 c-9 -22 -15 -24 -54 -21
-47 3 -84 29 -100 69 -5 12 -15 22 -24 22 -8 0 -15 6 -15 14 0 8 -4 17 -9 20
-17 11 -71 -355 -71 -482 0 -41 4 -126 10 -190 46 -547 59 -740 65 -987 3
-110 10 -191 15 -193 14 -5 13 -49 -1 -58 -8 -4 -4 -13 12 -25 21 -16 22 -18
6 -24 -26 -10 -23 -73 5 -96 l21 -19 -24 0 -24 0 -3 -148 c-2 -88 3 -199 12
-277 24 -213 46 -611 59 -1088 10 -377 14 -449 27 -457 20 -13 372 -13 406 0
l26 10 -7 428 c-7 441 3 1114 30 2022 14 463 40 1039 50 1100 4 29 -20 343
-35 444 -13 82 -28 118 -28 64z m-507 -1607 c3 -5 1 -12 -5 -16 -5 -3 -10 1
-10 9 0 18 6 21 15 7z"/>
<path d="M4440 13801 c0 -5 5 -13 10 -16 6 -3 10 -2 10 4 0 5 -4 13 -10 16 -5
3 -10 2 -10 -4z"/>
<path d="M4442 13725 c-6 -22 -17 -84 -23 -139 -10 -83 -9 -111 5 -185 9 -47
20 -115 26 -151 23 -160 33 -209 51 -271 10 -36 19 -94 19 -130 0 -35 13 -140
30 -234 33 -188 93 -612 109 -775 39 -375 64 -698 97 -1225 20 -330 40 -603
43 -607 4 -4 23 -5 44 -1 36 5 37 7 37 47 0 61 -59 1151 -70 1296 -5 69 -14
188 -20 265 -14 177 -95 768 -109 794 -6 11 -11 35 -11 53 0 33 -52 331 -70
398 -5 19 -14 79 -20 133 -5 54 -26 171 -46 260 -58 262 -63 288 -65 370 -1
43 -5 92 -9 110 l-7 32 -11 -40z m245 -1537 c-3 -7 -5 -2 -5 12 0 14 2 19 5
13 2 -7 2 -19 0 -25z m10 -70 c-3 -7 -5 -2 -5 12 0 14 2 19 5 13 2 -7 2 -19 0
-25z m10 -70 c-3 -7 -5 -2 -5 12 0 14 2 19 5 13 2 -7 2 -19 0 -25z"/>
<path d="M2714 13679 c-3 -5 6 -9 20 -9 31 0 34 6 6 13 -11 3 -23 1 -26 -4z"/>
<path d="M2640 13590 c0 -9 62 -30 92 -30 45 0 281 -54 386 -89 233 -77 412
-184 586 -350 99 -96 107 -102 85 -62 -25 46 -108 134 -169 180 -19 14 -43 33
-53 42 -9 8 -65 44 -123 79 -192 114 -417 190 -663 224 -131 19 -141 19 -141
6z"/>
<path d="M1799 13125 c-80 -20 -273 -114 -345 -168 -180 -137 -320 -342 -404
-596 -91 -271 -95 -360 -104 -2291 -3 -722 -2 -864 8 -815 7 33 25 96 40 140
17 49 31 119 37 179 4 55 16 138 24 185 15 76 16 179 10 921 -8 1074 1 1284
66 1559 38 162 148 357 272 481 52 52 211 170 230 170 5 0 145 96 173 119 17
14 193 91 208 91 29 0 25 18 -6 29 -41 15 -140 13 -209 -4z"/>
<path d="M2970 13118 c308 -85 456 -163 616 -322 81 -82 134 -156 193 -274
110 -219 135 -385 156 -1017 10 -298 12 -326 29 -338 8 -7 17 -23 20 -37 8
-42 -4 646 -15 800 -18 261 -57 428 -139 590 -42 82 -121 198 -167 245 -145
147 -291 254 -403 296 -86 33 -238 69 -284 68 l-41 -1 35 -10z"/>
<path d="M3214 12945 c11 -8 24 -15 30 -15 5 0 1 7 -10 15 -10 8 -23 14 -29
14 -5 0 -1 -6 9 -14z"/>
<path d="M3290 12905 c0 -3 24 -20 53 -39 75 -48 190 -154 244 -225 7 -9 12
-11 13 -4 0 20 -170 186 -237 231 -60 41 -73 47 -73 37z"/>
<path d="M1491 12606 c-12 -18 -21 -45 -21 -59 0 -14 -13 -55 -30 -92 -46
-103 -35 -101 21 5 27 52 57 102 66 112 10 11 13 26 9 43 -9 34 -20 32 -45 -9z"/>
<path d="M4050 12350 c0 -3 7 -42 14 -87 8 -45 20 -155 25 -245 10 -157 31
-1203 32 -1608 0 -160 3 -208 19 -265 10 -38 29 -126 41 -195 27 -161 41 -184
34 -60 -2 52 -7 205 -10 340 -20 912 -41 1546 -56 1700 -10 104 -60 337 -85
395 -7 16 -13 28 -14 25z"/>
<path d="M841 12108 c0 -9 -4 -25 -7 -35 -5 -17 -5 -17 6 0 6 10 9 25 7 35 -4
15 -5 15 -6 0z"/>
<path d="M706 11954 c-27 -60 -61 -223 -70 -344 -4 -41 -11 -244 -16 -450 -13
-495 -34 -1167 -65 -2080 -7 -201 -52 -1649 -60 -1920 -3 -107 -12 -413 -20
-680 -8 -267 -21 -719 -30 -1005 -8 -286 -17 -580 -20 -652 -4 -83 -2 -133 4
-133 13 0 19 99 26 400 6 272 19 719 35 1230 6 173 17 556 25 850 18 629 59
1996 80 2670 8 261 19 669 25 905 15 680 19 749 42 848 12 48 25 84 29 80 4
-4 14 -78 21 -163 22 -260 16 -1138 -17 -2375 -3 -104 -7 -307 -10 -450 -3
-143 -8 -387 -11 -542 -4 -204 -3 -283 5 -283 6 0 11 5 11 10 0 6 11 21 24 33
23 22 23 23 30 327 4 168 11 460 16 650 20 714 28 1125 40 1965 5 358 12 715
14 795 3 86 1 127 -3 100 -6 -36 -8 -23 -10 65 -2 155 -16 204 -58 205 -6 0
-23 -25 -37 -56z m1 -266 c-3 -8 -6 -5 -6 6 -1 11 2 17 5 13 3 -3 4 -12 1 -19z
m30 -310 c-2 -13 -4 -3 -4 22 0 25 2 35 4 23 2 -13 2 -33 0 -45z"/>
<path d="M823 11855 c0 -33 2 -45 4 -27 2 18 2 45 0 60 -2 15 -4 0 -4 -33z"/>
<path d="M4215 11405 c6 -316 23 -995 35 -1355 l9 -265 -5 325 c-5 414 -33
1509 -39 1535 -2 11 -2 -97 0 -240z"/>
<path d="M2901 11178 c0 -12 4 -32 9 -43 7 -17 9 -15 9 13 1 17 1 35 2 39 0 4
-4 9 -10 11 -6 2 -11 -7 -10 -20z"/>
<path d="M2445 11170 c3 -5 10 -10 16 -10 5 0 9 5 9 10 0 6 -7 10 -16 10 -8 0
-12 -4 -9 -10z"/>
<path d="M2000 11140 c0 -5 5 -10 10 -10 6 0 10 5 10 10 0 6 -4 10 -10 10 -5
0 -10 -4 -10 -10z"/>
<path d="M2452 11130 c0 -14 2 -19 5 -12 2 6 2 18 0 25 -3 6 -5 1 -5 -13z"/>
<path d="M2480 11141 c0 -4 11 -6 25 -3 14 2 25 6 25 8 0 2 -11 4 -25 4 -14 0
-25 -4 -25 -9z"/>
<path d="M2040 11120 c-11 -8 -7 -9 15 -4 37 8 45 14 19 14 -10 0 -26 -5 -34
-10z"/>
<path d="M2000 11105 c0 -8 2 -15 4 -15 2 0 6 7 10 15 3 8 1 15 -4 15 -6 0
-10 -7 -10 -15z"/>
<path d="M3980 11084 c0 -8 -7 -22 -15 -30 -10 -10 -12 -21 -6 -31 5 -10 4
-24 -3 -37 -7 -13 -9 -58 -7 -116 3 -64 6 -87 11 -70 l8 25 1 -27 c1 -16 6
-28 11 -28 6 0 10 62 10 165 0 91 -2 165 -5 165 -3 0 -5 -7 -5 -16z"/>
<path d="M2451 11064 c0 -11 3 -14 6 -6 3 7 2 16 -1 19 -3 4 -6 -2 -5 -13z"/>
<path d="M2900 10860 c-12 -8 -9 -10 13 -10 16 0 26 4 22 10 -8 12 -16 12 -35
0z"/>
<path d="M2448 10843 c6 -2 18 -2 25 0 6 3 1 5 -13 5 -14 0 -19 -2 -12 -5z"/>
<path d="M2900 10820 c0 -5 9 -10 20 -10 11 0 20 5 20 10 0 6 -9 10 -20 10
-11 0 -20 -4 -20 -10z"/>
<path d="M2445 10810 c-3 -5 1 -10 9 -10 9 0 16 5 16 10 0 6 -4 10 -9 10 -6 0
-13 -4 -16 -10z"/>
<path d="M4492 10775 c0 -16 2 -22 5 -12 2 9 2 23 0 30 -3 6 -5 -1 -5 -18z"/>
<path d="M2896 10752 c-2 -4 -7 -23 -11 -43 -5 -27 -2 -40 10 -52 37 -38 60
-11 49 60 -5 33 -11 43 -25 43 -10 0 -20 -3 -23 -8z"/>
<path d="M2435 10717 c-4 -13 -5 -39 -3 -58 3 -30 6 -34 28 -30 31 4 42 19 35
46 -4 11 -7 29 -8 40 -3 31 -45 33 -52 2z"/>
<path d="M4491 10724 c0 -11 3 -14 6 -6 3 7 2 16 -1 19 -3 4 -6 -2 -5 -13z"/>
<path d="M2322 10680 c3 -50 24 -73 22 -25 -3 64 -5 75 -15 75 -7 0 -9 -19 -7
-50z"/>
<path d="M1997 10713 c-6 -9 -10 -56 -8 -90 1 -17 7 -23 25 -23 27 0 35 23 26
80 -5 33 -31 53 -43 33z"/>
<path d="M2774 10693 c2 -16 5 -31 5 -35 1 -5 5 -8 10 -8 4 0 7 12 6 28 -3 39
-4 42 -15 42 -6 0 -9 -12 -6 -27z"/>
<path d="M1872 10658 c4 -63 28 -80 28 -20 0 46 -8 72 -22 72 -5 0 -8 -23 -6
-52z"/>
<path d="M2596 10692 c-2 -4 -1 -14 3 -21 6 -9 10 -7 14 8 5 20 -7 29 -17 13z"/>
<path d="M2141 10676 c-13 -15 -7 -36 9 -36 12 0 19 25 11 39 -6 9 -11 8 -20
-3z"/>
<path d="M4502 10660 c0 -14 2 -19 5 -12 2 6 2 18 0 25 -3 6 -5 1 -5 -13z"/>
<path d="M2443 10603 c-10 -3 -13 -67 -13 -269 l0 -264 35 0 35 0 0 173 c0 94
-3 216 -7 270 -6 100 -10 107 -50 90z"/>
<path d="M2787 10600 c-4 -9 -6 -132 -5 -274 2 -200 6 -260 16 -264 10 -3 12
41 11 215 -1 223 -10 350 -22 323z"/>
<path d="M2889 10598 c0 -7 0 -164 0 -348 1 -184 1 -383 1 -442 l0 -108 29 0
c26 0 29 3 32 43 2 23 2 227 -1 452 l-5 410 -27 3 c-18 2 -28 -1 -29 -10z"/>
<path d="M2328 10563 c-9 -80 4 -564 16 -560 12 4 12 25 8 387 -1 116 -6 210
-11 210 -5 0 -11 -17 -13 -37z"/>
<path d="M2224 10579 c-9 -16 -15 -71 -9 -86 2 -7 11 -10 20 -7 11 4 15 20 15
55 0 47 -11 62 -26 38z"/>
<path d="M1882 10309 c2 -209 6 -273 16 -277 10 -3 12 52 10 269 -2 209 -6
273 -16 277 -10 3 -12 -52 -10 -269z"/>
<path d="M1993 9933 c3 -357 6 -649 6 -651 1 -1 11 4 24 12 20 14 23 25 27
118 6 121 4 408 -6 851 l-6 317 -25 0 -26 0 6 -647z"/>
<path d="M3529 10560 c13 -11 28 -20 35 -20 6 1 0 10 -13 20 -13 11 -28 20
-35 20 -6 -1 0 -10 13 -20z"/>
<path d="M1280 10536 c0 -9 5 -16 10 -16 6 0 10 4 10 9 0 6 -4 13 -10 16 -5 3
-10 -1 -10 -9z"/>
<path d="M3670 10525 c13 -14 26 -23 28 -20 7 7 -29 45 -41 45 -6 0 0 -11 13
-25z"/>
<path d="M4511 10524 c0 -11 3 -14 6 -6 3 7 2 16 -1 19 -3 4 -6 -2 -5 -13z"/>
<path d="M1301 10494 c0 -11 3 -14 6 -6 3 7 2 16 -1 19 -3 4 -6 -2 -5 -13z"/>
<path d="M1780 10278 c-12 -22 -12 -22 6 -6 10 10 15 20 12 24 -4 3 -12 -5
-18 -18z"/>
<path d="M1313 10210 c0 -30 2 -43 4 -27 2 15 2 39 0 55 -2 15 -4 2 -4 -28z"/>
<path d="M3767 10233 c3 -10 10 -22 14 -28 16 -21 69 -167 88 -242 11 -43 29
-138 39 -211 21 -146 39 -191 28 -72 -17 190 -63 374 -121 490 -32 64 -63 104
-48 63z"/>
<path d="M1314 10040 c0 -58 1 -81 3 -52 2 28 2 76 0 105 -2 28 -3 5 -3 -53z"/>
<path d="M4478 10110 c-7 -24 -3 -38 8 -28 3 4 4 17 2 30 l-3 23 -7 -25z"/>
<path d="M3770 10103 c0 -24 23 -83 32 -83 12 0 10 27 -6 65 -16 38 -26 45
-26 18z"/>
<path d="M8325 10080 c-3 -5 -1 -10 4 -10 6 0 11 5 11 10 0 6 -2 10 -4 10 -3
0 -8 -4 -11 -10z"/>
<path d="M3939 10015 c30 -73 58 -213 69 -350 7 -78 8 -80 35 -83 31 -4 33 8
17 118 -5 37 -14 108 -20 159 -10 85 -13 96 -44 130 -19 20 -46 50 -60 66
l-26 30 29 -70z"/>
<path d="M3441 10033 c17 -21 39 -42 48 -47 9 -5 -2 11 -24 36 -22 26 -44 47
-49 47 -4 1 7 -16 25 -36z"/>
<path d="M2194 10006 c-3 -8 -1 -23 5 -33 9 -15 10 -13 11 15 0 34 -7 42 -16
18z"/>
<path d="M2626 9945 c-3 -8 -3 -29 1 -45 4 -25 10 -30 33 -30 37 0 90 20 90
33 -1 48 -12 57 -65 57 -38 0 -54 -4 -59 -15z"/>
<path d="M2425 9940 c-27 -5 -32 -8 -15 -9 20 -1 30 -11 45 -43 23 -49 52 -67
35 -22 -6 15 -8 40 -5 56 7 30 8 30 -60 18z"/>
<path d="M5377 9933 c-92 -2 -146 -7 -142 -13 3 -6 -6 -20 -21 -33 -63 -54 8
-70 269 -61 111 4 212 11 225 15 32 12 27 32 -15 68 -33 29 -41 31 -102 29
-36 -1 -133 -4 -214 -5z"/>
<path d="M8380 9931 c0 -6 5 -13 10 -16 6 -3 10 1 10 9 0 9 -4 16 -10 16 -5 0
-10 -4 -10 -9z"/>
<path d="M1725 9922 c-17 -6 -22 -17 -24 -55 -3 -55 6 -61 64 -49 33 6 41 12
43 33 2 14 -2 37 -7 52 -11 28 -32 33 -76 19z"/>
<path d="M1929 9912 c6 -12 9 -27 6 -32 -3 -6 -1 -10 4 -10 17 0 13 36 -6 51
-15 13 -15 12 -4 -9z"/>
<path d="M8451 9903 c1 -16 5 -41 9 -58 7 -29 8 -30 9 -4 1 20 7 28 26 31 13
3 26 0 29 -6 2 -6 5 6 5 27 1 37 1 37 -39 37 -37 0 -40 -2 -39 -27z"/>
<path d="M6320 9902 c8 -5 31 -12 51 -16 46 -8 65 -28 44 -46 -8 -7 -15 -15
-15 -19 0 -3 104 -7 230 -9 204 -2 254 3 223 21 -5 2 -2 2 5 1 16 -4 39 43 26
55 -5 5 -137 12 -294 16 -176 4 -279 3 -270 -3z"/>
<path d="M7977 9904 c-4 -4 -4 -17 -1 -29 3 -12 0 -41 -6 -65 -6 -23 -10 -44
-7 -46 2 -2 18 -7 37 -10 l33 -7 -6 76 c-5 65 -3 76 11 80 9 3 1 5 -19 6 -20
0 -39 -2 -42 -5z"/>
<path d="M8200 9903 c0 -5 7 -17 15 -27 17 -23 20 -93 5 -132 -8 -21 -8 -29 2
-36 19 -11 68 -10 68 3 0 5 -5 7 -10 4 -6 -4 -17 -2 -25 5 -11 9 -11 18 6 53
10 23 19 63 19 90 l0 47 -40 0 c-22 0 -40 -3 -40 -7z"/>
<path d="M8311 9894 c0 -11 3 -14 6 -6 3 7 2 16 -1 19 -3 4 -6 -2 -5 -13z"/>
<path d="M1460 9890 l-35 -7 43 -2 c37 -1 42 -4 42 -24 0 -30 24 -62 38 -53 7
4 11 17 10 29 -1 12 2 32 6 45 7 20 5 22 -31 21 -21 -1 -54 -5 -73 -9z"/>
<path d="M4660 9891 c-34 -9 -38 -44 -8 -65 32 -23 58 -21 58 4 0 12 12 32 28
45 l27 24 -40 0 c-22 -1 -51 -4 -65 -8z"/>
<path d="M6980 9853 l0 -48 128 -3 c70 -2 125 -1 122 2 -3 3 -55 8 -115 12
-61 4 -111 8 -113 9 -2 2 3 16 12 32 l15 28 1 -27 c0 -32 14 -36 29 -10 9 15
12 15 21 2 9 -13 10 -13 10 0 1 12 3 11 11 -2 8 -15 13 -16 29 -6 15 10 22 10
32 0 18 -18 28 -15 28 9 l0 20 30 -21 c27 -19 35 -19 31 3 0 4 8 7 18 7 10 0
21 6 24 14 4 11 -2 14 -23 14 -18 -1 -31 -7 -33 -17 -4 -13 -5 -13 -6 2 -1 11
-10 17 -28 18 -16 0 -72 3 -125 5 l-98 4 0 -47z"/>
<path d="M8392 9850 c0 -50 1 -52 9 -23 6 19 5 40 0 55 -8 18 -10 12 -9 -32z"/>
<path d="M7304 9876 c-8 -22 3 -49 19 -43 6 2 12 14 12 27 0 27 -22 39 -31 16z"/>
<path d="M7355 9880 c3 -5 8 -10 11 -10 2 0 4 5 4 10 0 6 -5 10 -11 10 -5 0
-7 -4 -4 -10z"/>
<path d="M7390 9881 c0 -6 5 -13 10 -16 6 -3 10 1 10 9 0 9 -4 16 -10 16 -5 0
-10 -4 -10 -9z"/>
<path d="M7427 9871 c-2 -10 -1 -25 4 -32 8 -12 11 -11 19 1 14 22 12 50 -4
50 -7 0 -16 -9 -19 -19z"/>
<path d="M7530 9876 c7 -9 10 -31 8 -50 -3 -28 0 -36 17 -40 30 -8 45 -7 45 4
0 6 -11 10 -24 10 -24 0 -24 2 -14 33 6 17 15 37 19 42 5 7 -5 12 -28 13 -31
3 -34 1 -23 -12z"/>
<path d="M1398 9873 c7 -3 16 -2 19 1 4 3 -2 6 -13 5 -11 0 -14 -3 -6 -6z"/>
<path d="M7625 9840 l0 -40 41 0 c34 0 43 4 52 25 22 48 17 55 -41 55 l-52 0
0 -40z"/>
<path d="M1358 9863 c7 -3 16 -2 19 1 4 3 -2 6 -13 5 -11 0 -14 -3 -6 -6z"/>
<path d="M4081 9830 c0 -8 7 -51 14 -95 l14 -80 -6 80 c-3 44 -9 87 -14 95 -7
13 -8 13 -8 0z"/>
<path d="M2333 9745 c1 -51 5 -75 13 -75 13 0 18 96 8 133 -12 41 -23 11 -21
-58z"/>
<path d="M7278 9803 c23 -2 61 -2 85 0 23 2 4 4 -43 4 -47 0 -66 -2 -42 -4z"/>
<path d="M7420 9799 c0 -5 5 -7 10 -4 6 3 10 8 10 11 0 2 -4 4 -10 4 -5 0 -10
-5 -10 -11z"/>
<path d="M3103 9774 c-9 -24 5 -44 31 -44 14 0 28 -5 31 -10 12 -19 24 0 23
35 -1 32 -3 34 -40 33 -24 0 -42 -6 -45 -14z"/>
<path d="M5365 9784 c-22 -3 -51 -7 -64 -10 l-24 -5 7 -322 c4 -177 11 -452
16 -612 5 -159 14 -524 20 -810 6 -286 15 -695 20 -910 5 -214 14 -743 20
-1175 18 -1407 19 -1452 42 -1458 18 -4 18 -5 -2 -19 -18 -13 -20 -25 -20
-109 l0 -94 88 -1 87 -2 -84 -8 c-88 -8 -105 -14 -81 -29 21 -13 357 -13 365
0 3 6 -1 12 -9 15 -49 15 -51 18 -22 24 17 3 29 9 28 14 -1 4 -2 48 -2 97 0
85 -1 91 -22 100 -19 7 -20 9 -5 9 18 1 18 68 12 1874 -3 1029 -7 2219 -8
2644 -1 424 -6 775 -10 780 -9 8 -280 14 -352 7z"/>
<path d="M2476 9765 c-3 -8 -12 -15 -21 -15 -21 0 -19 -37 3 -49 21 -11 36 -4
45 22 4 11 1 20 -9 24 -11 4 -12 8 -4 13 8 5 8 10 2 14 -5 3 -12 -1 -16 -9z"/>
<path d="M2790 9750 c0 -16 5 -30 10 -30 6 0 10 14 10 30 0 17 -4 30 -10 30
-5 0 -10 -13 -10 -30z"/>
<path d="M6190 9723 c0 -26 -4 -325 -10 -663 -5 -338 -12 -923 -15 -1300 -3
-377 -10 -829 -16 -1005 -16 -551 -24 -2265 -11 -2265 8 0 12 31 12 103 0 260
33 1602 65 2662 9 264 20 732 25 1040 5 308 14 668 19 800 6 132 11 337 12
455 l3 215 -42 3 -42 3 0 -48z"/>
<path d="M1889 9750 c-4 -42 -1 -64 9 -68 8 -2 12 10 12 37 0 23 -4 41 -10 41
-5 0 -10 -4 -11 -10z"/>
<path d="M4821 9751 c-11 -7 -11 -37 -2 -177 14 -212 35 -657 66 -1374 8 -195
17 -371 20 -390 2 -19 7 -123 10 -230 3 -107 10 -289 16 -405 10 -215 20 -461
39 -895 5 -135 17 -434 25 -665 16 -460 34 -943 38 -1045 2 -36 7 -65 11 -65
10 0 9 100 -4 565 -5 190 -14 548 -20 795 -15 635 -63 2010 -71 2010 -3 0 -9
192 -11 343 0 81 -5 138 -9 130 -6 -9 -9 -9 -9 -1 0 6 5 15 10 18 14 9 12 69
-2 83 -8 8 -9 15 -3 20 11 8 16 42 6 42 -3 0 -5 48 -3 107 2 60 -4 317 -12
573 -9 256 -16 482 -16 503 0 30 -4 40 -20 44 -11 3 -20 9 -20 14 0 11 -21 11
-39 0z m96 -1143 c-2 -18 -4 -4 -4 32 0 36 2 50 4 33 2 -18 2 -48 0 -65z"/>
<path d="M1243 9715 c-17 -12 -63 -92 -63 -110 0 -17 19 0 30 25 12 28 42 59
86 87 18 11 17 12 -6 12 -14 1 -35 -6 -47 -14z"/>
<path d="M2606 9715 c-3 -8 -1 -15 4 -15 6 0 10 7 10 15 0 8 -2 15 -4 15 -2 0
-6 -7 -10 -15z"/>
<path d="M3477 9704 c-3 -4 12 -27 35 -53 22 -25 45 -58 50 -73 10 -28 48 -40
48 -15 -1 23 -37 92 -61 113 -27 24 -62 38 -72 28z"/>
<path d="M4300 9690 c0 -5 5 -10 11 -10 5 0 7 5 4 10 -3 6 -8 10 -11 10 -2 0
-4 -4 -4 -10z"/>
<path d="M8448 9672 c-14 -2 -29 -10 -32 -18 -5 -12 2 -15 36 -12 23 2 43 8
45 14 5 14 -14 21 -49 16z"/>
<path d="M4112 9620 c0 -14 2 -19 5 -12 2 6 2 18 0 25 -3 6 -5 1 -5 -13z"/>
<path d="M1890 9626 c0 -3 7 -12 16 -20 23 -23 40 -19 19 4 -16 18 -35 26 -35
16z"/>
<path d="M2435 9620 c-3 -5 -1 -10 4 -10 6 0 11 5 11 10 0 6 -2 10 -4 10 -3 0
-8 -4 -11 -10z"/>
<path d="M2160 9600 c0 -5 7 -7 15 -4 8 4 15 8 15 10 0 2 -7 4 -15 4 -8 0 -15
-4 -15 -10z"/>
<path d="M1599 9596 c-3 -3 -2 -29 1 -58 l5 -53 45 4 c51 4 62 14 53 51 -12
50 -22 60 -62 60 -21 0 -40 -2 -42 -4z"/>
<path d="M1870 9589 c0 -5 5 -7 10 -4 6 3 10 8 10 11 0 2 -4 4 -10 4 -5 0 -10
-5 -10 -11z"/>
<path d="M2532 9570 c0 -19 2 -27 5 -17 2 9 2 25 0 35 -3 9 -5 1 -5 -18z"/>
<path d="M2655 9592 c6 -4 16 -20 23 -35 14 -33 59 -54 128 -60 27 -3 40 -3
29 0 -85 18 -115 45 -95 83 10 19 8 20 -42 20 -29 0 -48 -4 -43 -8z"/>
<path d="M8120 9591 c0 -9 33 -41 43 -41 18 0 4 28 -18 38 -14 6 -25 8 -25 3z"/>
<path d="M6520 9553 c0 -16 -7 -165 -15 -333 -30 -627 -52 -1158 -75 -1850 -6
-168 -15 -426 -20 -575 -14 -373 -38 -1326 -47 -1825 -4 -228 -7 -424 -7 -435
-1 -11 4 -22 9 -25 7 -3 14 200 22 590 16 818 31 1398 48 1830 8 201 19 532
25 735 5 204 12 399 15 435 3 36 10 187 15 335 6 149 20 443 30 654 23 440 24
491 10 491 -5 0 -10 -12 -10 -27z"/>
<path d="M1262 9534 c-29 -7 -63 -19 -75 -25 -42 -23 -136 -99 -156 -128 -29
-40 -26 -48 3 -14 l24 28 -24 -71 c-33 -99 -61 -424 -36 -424 5 0 12 64 15
143 7 172 28 271 70 334 38 57 119 116 191 139 94 30 85 45 -12 18z"/>
<path d="M3270 9530 c0 -5 7 -10 15 -10 8 0 15 5 15 10 0 6 -7 10 -15 10 -8 0
-15 -4 -15 -10z"/>
<path d="M3105 9479 c104 -114 132 -192 140 -398 5 -99 6 -106 27 -109 21 -4
21 -3 15 120 -4 67 -11 141 -16 163 -7 26 -6 43 1 52 7 9 -9 34 -65 95 -42 46
-91 92 -109 102 l-33 20 40 -45z"/>
<path d="M2546 9493 c-6 -14 -5 -15 5 -6 7 7 10 15 7 18 -3 3 -9 -2 -12 -12z"/>
<path d="M1914 9485 c-16 -12 -17 -14 -3 -15 9 0 19 7 23 15 7 19 5 19 -20 0z"/>
<path d="M2925 9481 c17 -5 42 -12 56 -15 15 -3 51 -27 80 -53 l54 -47 -45 48
c-55 59 -63 63 -125 70 -38 4 -43 4 -20 -3z"/>
<path d="M2331 9461 c-11 -7 -12 -13 -3 -24 8 -9 10 -45 7 -108 -2 -52 -1
-156 2 -232 6 -133 7 -138 27 -135 21 3 21 7 22 240 0 131 3 241 7 244 22 22
-31 34 -62 15z"/>
<path d="M3922 9463 c-7 -3 3 -13 24 -24 41 -20 54 -18 54 12 0 15 -7 19 -32
18 -18 0 -39 -3 -46 -6z"/>
<path d="M2430 9440 c0 -5 5 -10 11 -10 5 0 7 5 4 10 -3 6 -8 10 -11 10 -2 0
-4 -4 -4 -10z"/>
<path d="M2240 9426 c0 -8 4 -17 9 -20 5 -3 10 -83 11 -178 3 -276 17 -307 19
-42 1 167 -2 233 -11 242 -16 16 -28 15 -28 -2z"/>
<path d="M2899 9403 c-8 -113 -5 -171 8 -192 8 -13 11 -21 5 -17 -19 12 -24
-73 -20 -387 l3 -314 22 14 c33 22 36 80 31 492 -4 292 -7 371 -19 389 -14 22
-28 29 -30 15z"/>
<path d="M1886 9369 c-6 -32 -1 -49 15 -49 5 0 9 18 9 40 0 47 -15 53 -24 9z"/>
<path d="M2153 9383 c9 -2 25 -2 35 0 9 3 1 5 -18 5 -19 0 -27 -2 -17 -5z"/>
<path d="M1161 9354 c-67 -56 -95 -168 -89 -354 3 -81 6 -95 21 -98 15 -3 17
8 17 130 1 159 10 205 56 281 20 32 34 60 31 63 -2 3 -19 -7 -36 -22z"/>
<path d="M1557 9356 c-7 -19 3 -85 14 -92 5 -2 8 20 7 51 -1 53 -10 70 -21 41z"/>
<path d="M2491 9328 c0 -33 2 -38 9 -23 12 28 12 65 0 65 -5 0 -10 -19 -9 -42z"/>
<path d="M3126 9331 c30 -63 36 -95 43 -231 l8 -135 1 108 c2 122 -18 234 -49
269 l-20 23 17 -34z"/>
<path d="M3360 9298 c0 -15 -4 -38 -10 -52 -12 -33 4 -43 19 -10 13 30 14 54
1 74 -8 12 -10 9 -10 -12z"/>
<path d="M2800 9266 c0 -8 5 -18 10 -21 6 -3 10 1 10 9 0 8 -4 18 -10 21 -5 3
-10 -1 -10 -9z"/>
<path d="M3596 9113 c5 -93 8 -306 9 -475 0 -287 1 -306 17 -290 27 28 40 310
27 584 -6 122 -11 251 -12 285 -2 59 -4 63 -25 63 l-23 0 7 -167z"/>
<path d="M1877 9264 c-3 -4 1 -18 10 -31 16 -24 18 -24 30 -7 9 13 10 21 2 31
-12 14 -32 17 -42 7z"/>
<path d="M4029 9266 c-2 -2 -1 -64 2 -138 11 -225 10 -578 -2 -683 -7 -66 -18
-112 -31 -135 -25 -42 -25 -140 -1 -198 14 -33 17 -35 24 -17 4 11 8 37 8 57
1 20 12 83 26 140 39 165 45 261 38 629 -5 262 -9 339 -19 339 -7 0 -19 2 -26
5 -8 3 -16 4 -19 1z"/>
<path d="M1244 9243 c-13 -28 -17 -405 -6 -560 10 -134 24 -199 35 -163 15 46
15 89 1 144 -14 52 -16 101 -11 329 4 147 2 267 -2 267 -5 0 -12 -8 -17 -17z"/>
<path d="M1542 9240 c0 -14 2 -19 5 -12 2 6 2 18 0 25 -3 6 -5 1 -5 -13z"/>
<path d="M1725 9239 c-11 -17 1 -21 15 -4 8 9 8 15 2 15 -6 0 -14 -5 -17 -11z"/>
<path d="M2119 9226 c-47 -15 -121 -64 -114 -76 3 -5 -1 -43 -10 -84 -21 -104
-20 -118 7 -114 19 2 24 13 35 65 19 94 37 122 106 168 17 11 33 56 20 54 -4
-1 -24 -6 -44 -13z"/>
<path d="M2670 9207 c0 -7 7 -22 15 -33 12 -16 14 -17 15 -2 0 23 -11 48 -21
48 -5 0 -9 -6 -9 -13z"/>
<path d="M3946 9133 c4 -49 8 -90 10 -92 2 -2 4 37 4 87 0 55 -4 92 -10 92 -7
0 -8 -31 -4 -87z"/>
<path d="M2806 9175 c-9 -21 -15 -46 -13 -55 3 -11 5 -10 6 4 0 11 8 27 17 37
9 10 14 26 12 36 -3 13 -9 8 -22 -22z"/>
<path d="M1657 9193 c-4 -3 -7 -11 -7 -17 0 -6 5 -5 12 2 6 6 9 14 7 17 -3 3
-9 2 -12 -2z"/>
<path d="M2846 9148 c-18 -28 -16 -58 4 -58 15 0 22 23 18 57 l-3 28 -19 -27z"/>
<path d="M1550 8813 c0 -185 3 -333 8 -329 4 4 7 156 7 337 0 181 -3 329 -7
329 -5 0 -8 -151 -8 -337z"/>
<path d="M1919 9110 c-7 -31 -7 -150 0 -150 14 0 25 130 12 143 -6 6 -11 9
-12 7z"/>
<path d="M2615 9102 c-6 -4 -9 -39 -7 -79 3 -64 6 -73 23 -73 17 0 19 8 19 64
0 36 5 68 10 71 6 3 10 10 10 16 0 11 -41 12 -55 1z"/>
<path d="M2462 9043 c-1 -34 -4 -67 -7 -75 -5 -13 11 -46 18 -38 2 3 1 43 -3
90 -7 81 -7 82 -8 23z"/>
<path d="M1699 9073 c-2 -25 3 -149 7 -155 3 -4 11 -5 19 -1 11 4 15 23 15 74
0 39 4 69 10 69 6 0 10 5 10 10 0 11 -60 14 -61 3z"/>
<path d="M2524 9048 c3 -13 6 -40 6 -61 0 -51 16 -39 25 19 5 34 3 49 -7 55
-22 15 -31 10 -24 -13z"/>
<path d="M1618 8991 c7 -98 18 -100 28 -4 6 54 5 60 -13 65 -19 5 -20 2 -15
-61z"/>
<path d="M3951 9014 c0 -11 3 -14 6 -6 3 7 2 16 -1 19 -3 4 -6 -2 -5 -13z"/>
<path d="M3250 8945 c0 -8 5 -15 10 -15 6 0 10 -4 10 -10 0 -5 -7 -10 -16 -10
-15 0 -16 -24 -10 -267 3 -148 11 -738 16 -1313 6 -575 13 -1073 16 -1107 5
-52 9 -63 24 -63 10 0 20 6 22 13 3 6 1 246 -3 532 -23 1530 -32 2203 -31
2228 1 21 -3 27 -18 27 -11 0 -20 -7 -20 -15z"/>
<path d="M2347 8944 c-11 -11 3 -24 24 -24 12 0 19 5 17 13 -5 14 -31 21 -41
11z"/>
<path d="M1983 8478 c2 -456 2 -463 22 -463 19 0 20 6 19 95 -1 52 -2 260 -3
463 -2 355 -3 367 -21 367 -19 0 -19 -12 -17 -462z"/>
<path d="M2265 8930 c3 -5 8 -10 11 -10 2 0 4 5 4 10 0 6 -5 10 -11 10 -5 0
-7 -4 -4 -10z"/>
<path d="M2614 8413 c4 -290 9 -615 12 -722 l6 -193 19 53 c18 51 18 86 13
679 -7 768 -4 704 -33 708 l-22 4 5 -529z"/>
<path d="M3168 8913 c-2 -5 -1 -195 2 -423 l6 -415 2 423 c1 232 0 422 -2 422
-3 0 -6 -3 -8 -7z"/>
<path d="M1904 8720 c0 -107 2 -151 3 -97 2 53 2 141 0 195 -1 53 -3 9 -3 -98z"/>
<path d="M2267 8903 c-9 -8 -7 -211 2 -328 7 -74 8 -52 9 123 1 116 1 212 -1
212 -2 0 -7 -3 -10 -7z"/>
<path d="M2343 8894 c-3 -8 -3 -133 0 -277 4 -144 7 -340 7 -434 0 -166 1
-173 20 -173 19 0 20 7 20 150 0 110 -3 150 -12 150 -9 0 -9 3 0 12 19 19 16
147 -5 170 -16 18 -16 18 0 12 16 -6 17 10 17 200 0 200 -1 206 -20 206 -11 0
-23 -7 -27 -16z"/>
<path d="M1620 8701 c0 -147 3 -200 11 -195 12 7 8 379 -5 391 -3 3 -6 -85 -6
-196z"/>
<path d="M1702 8713 c3 -170 5 -188 21 -191 16 -3 17 11 17 187 0 185 -1 191
-20 191 -20 0 -20 -5 -18 -187z"/>
<path d="M2533 8712 c-1 -106 3 -195 8 -198 11 -6 10 207 -1 316 -5 56 -7 27
-7 -118z"/>
<path d="M1075 8880 c3 -5 13 -10 21 -10 8 0 14 5 14 10 0 6 -9 10 -21 10 -11
0 -17 -4 -14 -10z"/>
<path d="M996 7713 c4 -631 8 -1150 10 -1152 2 -3 4 511 4 1142 0 780 -4 1148
-11 1152 -7 5 -8 -349 -3 -1142z"/>
<path d="M1075 8393 c3 -258 8 -900 11 -1427 6 -841 8 -957 21 -940 13 17 14
15 6 -21 -12 -58 -7 -165 8 -200 13 -27 14 -18 17 104 1 74 -1 137 -5 140 -4
3 -8 242 -9 531 -1 997 -4 1526 -11 1903 -6 358 -7 377 -25 377 -18 0 -18 -17
-13 -467z"/>
<path d="M2148 8715 c-3 -16 -3 -61 0 -100 l6 -70 7 55 c3 31 3 76 0 100 -6
43 -7 43 -13 15z"/>
<path d="M2833 8615 c0 -33 2 -45 4 -27 2 18 2 45 0 60 -2 15 -4 0 -4 -33z"/>
<path d="M3958 8584 c-5 -4 -8 -44 -8 -88 1 -60 3 -76 11 -64 11 20 8 164 -3
152z"/>
<path d="M3037 8574 c-9 -9 -9 -68 -1 -167 7 -73 8 -77 31 -77 l24 0 -3 123
c-3 114 -4 122 -23 125 -12 2 -24 0 -28 -4z"/>
<path d="M2808 8543 c-19 -5 -25 -25 -7 -20 6 1 14 -4 16 -11 3 -7 -1 -10 -11
-6 -10 4 -18 0 -22 -10 -9 -23 2 -31 21 -16 10 8 15 9 15 1 0 -6 7 -11 15 -11
16 0 21 25 6 34 -5 3 -7 15 -4 26 5 20 2 21 -29 13z"/>
<path d="M2150 8495 c0 -32 2 -35 30 -35 17 0 30 5 30 11 0 7 -10 9 -25 5 -14
-4 -25 -2 -25 4 0 5 5 10 10 10 16 0 12 27 -5 34 -12 4 -15 -3 -15 -29z"/>
<path d="M1704 7733 c3 -428 8 -1662 11 -2743 3 -1081 8 -1984 11 -2007 5 -43
28 -59 40 -29 3 8 1 907 -5 1998 -6 1091 -12 2278 -13 2638 -1 360 -4 715 -6
788 -3 126 -4 132 -24 132 l-21 0 7 -777z"/>
<path d="M2110 8500 c0 -5 5 -10 11 -10 5 0 7 5 4 10 -3 6 -8 10 -11 10 -2 0
-4 -4 -4 -10z"/>
<path d="M1892 8426 c-1 -44 2 -76 6 -70 5 5 5 41 2 79 l-7 70 -1 -79z"/>
<path d="M2533 8415 c0 -44 2 -61 4 -37 2 23 2 59 0 80 -2 20 -4 1 -4 -43z"/>
<path d="M1619 8471 c-2 -6 -2 -34 0 -62 4 -58 21 -49 21 11 0 37 -15 71 -21
51z"/>
<path d="M2269 8468 c-6 -23 -4 -128 2 -128 5 0 9 29 9 65 0 36 -2 65 -5 65
-3 0 -5 -1 -6 -2z"/>
<path d="M2986 8463 c-12 -12 -6 -33 9 -33 8 0 15 6 15 14 0 17 -14 28 -24 19z"/>
<path d="M2422 8390 c0 -19 2 -27 5 -17 2 9 2 25 0 35 -3 9 -5 1 -5 -18z"/>
<path d="M2913 8360 c5 -31 17 -36 17 -7 0 15 -4 27 -10 27 -5 0 -9 -9 -7 -20z"/>
<path d="M2810 8343 c0 -11 39 -73 45 -73 3 0 -4 18 -15 40 -19 38 -30 49 -30
33z"/>
<path d="M4237 8325 c-4 -16 -11 -61 -15 -98 -8 -65 -8 -68 12 -65 18 3 21 11
24 58 1 30 -1 73 -6 95 l-9 40 -6 -30z"/>
<path d="M1620 7871 c0 -307 3 -471 10 -471 7 0 10 161 10 464 0 299 -4 467
-10 471 -7 4 -10 -153 -10 -464z"/>
<path d="M1904 8175 c0 -93 2 -133 3 -88 2 45 2 122 0 170 -1 48 -3 12 -3 -82z"/>
<path d="M1241 8306 c7 -15 15 -23 17 -16 3 7 -3 19 -13 28 -15 16 -16 15 -4
-12z"/>
<path d="M4485 8320 c3 -5 8 -10 11 -10 2 0 4 5 4 10 0 6 -5 10 -11 10 -5 0
-7 -4 -4 -10z"/>
<path d="M2274 8170 c0 -85 2 -120 3 -77 2 42 2 112 0 155 -1 42 -3 7 -3 -78z"/>
<path d="M2548 7725 c2 -330 6 -602 8 -604 6 -7 2 628 -6 929 -4 166 -5 37 -2
-325z"/>
<path d="M1296 8285 c4 -8 8 -15 10 -15 2 0 4 7 4 15 0 8 -4 15 -10 15 -5 0
-7 -7 -4 -15z"/>
<path d="M2890 8262 c0 -12 19 -26 26 -19 2 2 -2 10 -11 17 -9 8 -15 8 -15 2z"/>
<path d="M3560 8150 c-6 -11 -8 -20 -6 -20 3 0 10 9 16 20 6 11 8 20 6 20 -3
0 -10 -9 -16 -20z"/>
<path d="M4210 8135 c-11 -13 -8 -15 19 -15 21 0 31 5 31 15 0 8 -8 15 -19 15
-10 0 -24 -7 -31 -15z"/>
<path d="M1436 8083 c41 -64 64 -113 89 -198 26 -87 54 -143 40 -80 -42 183
-51 208 -97 268 -34 43 -59 51 -32 10z"/>
<path d="M4212 8093 c-14 -27 -22 -118 -30 -318 -10 -262 -9 -295 16 -452 22
-138 37 -409 58 -996 6 -173 13 -221 30 -204 2 2 0 249 -6 548 -5 299 -12 745
-16 992 -6 426 -7 447 -25 447 -10 0 -22 -8 -27 -17z"/>
<path d="M1438 7881 c31 -94 58 -166 60 -161 4 12 -98 319 -108 325 -5 3 17
-71 48 -164z"/>
<path d="M3980 8025 c-6 -15 -8 -30 -6 -33 3 -3 10 8 16 23 6 15 8 30 6 33 -3
3 -10 -8 -16 -23z"/>
<path d="M2356 7992 c-2 -4 -4 -42 -5 -84 -2 -76 -1 -78 22 -78 22 0 23 3 21
59 -1 32 -5 64 -8 70 -4 6 -2 11 3 11 6 0 11 4 11 9 0 11 -38 22 -44 13z"/>
<path d="M3184 7810 c0 -107 2 -151 3 -97 2 53 2 141 0 195 -1 53 -3 9 -3 -98z"/>
<path d="M1980 7980 c0 -5 4 -10 9 -10 5 0 16 -3 25 -6 11 -4 16 -1 16 10 0
10 -9 16 -25 16 -14 0 -25 -4 -25 -10z"/>
<path d="M1987 7953 c-12 -11 -7 -81 6 -86 9 -4 9 -6 -1 -6 -17 -1 -5 -75 22
-126 l21 -40 3 33 c2 18 -2 39 -8 47 -7 9 -9 37 -5 79 7 78 -12 126 -38 99z"/>
<path d="M2273 7915 c0 -27 2 -38 4 -22 2 15 2 37 0 50 -2 12 -4 0 -4 -28z"/>
<path d="M1903 7910 c0 -25 2 -35 4 -22 2 12 2 32 0 45 -2 12 -4 2 -4 -23z"/>
<path d="M1343 7885 c0 -27 2 -38 4 -22 2 15 2 37 0 50 -2 12 -4 0 -4 -28z"/>
<path d="M3510 7907 c0 -8 7 -20 15 -27 12 -10 15 -10 15 3 0 8 -7 20 -15 27
-12 10 -15 10 -15 -3z"/>
<path d="M926 7844 c-9 -69 -7 -134 4 -134 6 0 10 37 10 90 0 50 -2 90 -4 90
-2 0 -6 -21 -10 -46z"/>
<path d="M3831 7819 c-34 -64 -37 -89 -4 -42 20 28 46 93 40 99 -2 2 -18 -24
-36 -57z"/>
<path d="M2367 7808 c-2 -7 -10 -29 -16 -48 -7 -19 -16 -49 -21 -67 -4 -18
-20 -53 -34 -78 -15 -25 -25 -45 -23 -45 19 0 70 37 81 58 32 65 50 182 29
189 -7 3 -15 -1 -16 -9z"/>
<path d="M860 7791 c-14 -27 -13 -41 5 -41 10 0 15 10 15 30 0 35 -5 38 -20
11z"/>
<path d="M1911 7794 c0 -11 3 -14 6 -6 3 7 2 16 -1 19 -3 4 -6 -2 -5 -13z"/>
<path d="M2255 7765 c-10 -24 -21 -42 -26 -39 -5 3 -9 0 -9 -7 0 -6 -16 -27
-36 -45 -28 -27 -32 -34 -17 -34 33 0 123 113 123 154 0 31 -18 16 -35 -29z"/>
<path d="M745 7790 c-8 -14 13 -50 30 -50 7 0 22 -3 32 -6 10 -3 2 5 -18 17
-20 13 -34 30 -32 37 5 14 -3 16 -12 2z"/>
<path d="M3855 7744 c-21 -33 -65 -160 -65 -188 1 -12 14 15 29 59 16 44 36
97 45 118 19 43 15 48 -9 11z"/>
<path d="M4652 7735 c0 -16 2 -22 5 -12 2 9 2 23 0 30 -3 6 -5 -1 -5 -18z"/>
<path d="M1353 7715 c0 -22 2 -30 4 -17 2 12 2 30 0 40 -3 9 -5 -1 -4 -23z"/>
<path d="M3881 7713 c-1 -6 -4 -20 -7 -30 -5 -17 -5 -17 6 0 6 10 9 23 6 30
-3 9 -5 9 -5 0z"/>
<path d="M713 7671 c-6 -17 -18 -31 -27 -31 -14 0 -16 -15 -16 -97 0 -54 -2
-150 -5 -213 -3 -63 -7 -254 -10 -425 -3 -170 -10 -463 -15 -650 -19 -670 -40
-1451 -40 -1517 0 -65 1 -68 24 -68 14 0 27 4 30 8 5 8 17 393 32 1000 4 148
3 281 -2 298 -7 27 -9 25 -14 -26 -9 -82 0 752 10 918 4 79 13 148 18 155 17
20 34 300 30 495 -2 153 -5 179 -15 153z m-41 -1852 c-3 -32 -7 -38 -14 -26
-10 19 1 95 11 78 4 -5 5 -29 3 -52z"/>
<path d="M4661 7684 c0 -11 3 -14 6 -6 3 7 2 16 -1 19 -3 4 -6 -2 -5 -13z"/>
<path d="M1501 7660 c0 -14 7 -43 14 -65 l13 -40 -5 45 c-3 25 -9 54 -14 65
-7 18 -8 17 -8 -5z"/>
<path d="M1963 7645 c16 -31 57 -75 57 -59 -1 5 -17 27 -37 49 -32 36 -34 37
-20 10z"/>
<path d="M3856 7645 c-9 -26 -7 -32 5 -12 6 10 9 21 6 23 -2 3 -7 -2 -11 -11z"/>
<path d="M917 7062 c-4 -301 -7 -746 -7 -989 0 -390 2 -442 15 -437 13 5 15
123 15 985 0 538 -4 980 -9 983 -4 3 -11 -241 -14 -542z"/>
<path d="M1261 7536 c-10 -19 -11 -31 -1 -57 10 -30 27 -42 156 -107 79 -40
144 -69 144 -63 0 16 -65 88 -128 140 -33 28 -63 55 -67 61 -6 9 -78 50 -88
50 -2 0 -9 -11 -16 -24z"/>
<path d="M2050 7550 c0 -5 5 -10 10 -10 6 0 10 5 10 10 0 6 -4 10 -10 10 -5 0
-10 -4 -10 -10z"/>
<path d="M2659 7533 c-13 -34 -7 -171 9 -198 9 -16 11 5 12 103 0 67 -2 122
-5 122 -3 0 -10 -12 -16 -27z"/>
<path d="M3183 7505 c0 -22 2 -30 4 -17 2 12 2 30 0 40 -3 9 -5 -1 -4 -23z"/>
<path d="M3715 7496 c-17 -18 -47 -56 -67 -83 -33 -46 -34 -50 -20 -72 13 -19
14 -34 4 -99 -13 -80 -14 -328 -3 -516 6 -103 7 -109 29 -112 l22 -4 0 308 c1
364 7 425 55 528 19 42 35 78 35 80 0 14 -28 -1 -55 -30z"/>
<path d="M3930 7479 c0 -28 30 -138 64 -241 20 -58 42 -145 51 -194 20 -118
37 -484 64 -1400 6 -219 12 -254 44 -254 11 0 6 269 -18 905 -25 675 -40 808
-111 986 -37 93 -39 103 -24 94 15 -9 12 1 -9 43 -22 44 -61 83 -61 61z"/>
<path d="M2326 7360 c3 -14 11 -32 16 -40 6 -10 7 -7 2 10 -3 14 -11 32 -16
40 -6 10 -7 7 -2 -10z"/>
<path d="M2800 7371 c0 -5 5 -13 10 -16 6 -3 10 -2 10 4 0 5 -4 13 -10 16 -5
3 -10 2 -10 -4z"/>
<path d="M2635 6980 c3 -212 5 -483 5 -602 l0 -218 25 0 26 0 -7 552 -7 553
-24 50 -24 50 6 -385z"/>
<path d="M2342 7265 c0 -16 2 -22 5 -12 2 9 2 23 0 30 -3 6 -5 -1 -5 -18z"/>
<path d="M1634 7120 c0 -91 2 -128 3 -82 2 45 2 119 0 165 -1 45 -3 8 -3 -83z"/>
<path d="M1880 7181 c0 -27 19 -36 37 -18 18 18 9 37 -18 37 -12 0 -19 -7 -19
-19z"/>
<path d="M2316 7183 c-6 -14 -5 -15 5 -6 7 7 10 15 7 18 -3 3 -9 -2 -12 -12z"/>
<path d="M2231 7019 l24 -20 -27 5 c-19 5 -28 2 -28 -6 1 -18 25 -48 38 -48 6
0 21 -13 34 -29 18 -24 201 -131 223 -131 3 0 5 9 5 19 0 23 -257 231 -286
231 -3 0 4 -9 17 -21z"/>
<path d="M2032 6958 c6 -18 12 -39 14 -45 2 -7 8 -13 14 -13 13 0 13 37 0 45
-5 3 -10 15 -10 26 0 10 -6 19 -14 19 -12 0 -12 -6 -4 -32z"/>
<path d="M2060 6981 c0 -5 5 -13 10 -16 6 -3 10 -2 10 4 0 5 -4 13 -10 16 -5
3 -10 2 -10 -4z"/>
<path d="M2400 6976 c0 -6 86 -66 94 -66 3 0 6 4 6 10 0 5 -22 21 -50 35 -27
14 -50 23 -50 21z"/>
<path d="M1635 6155 c0 -440 1 -619 2 -397 2 222 2 582 0 800 -1 218 -2 37 -2
-403z"/>
<path d="M1925 6900 c3 -5 15 -10 25 -10 10 0 22 5 25 10 4 6 -7 10 -25 10
-18 0 -29 -4 -25 -10z"/>
<path d="M2040 6876 c0 -11 9 -16 26 -16 31 0 28 23 -4 28 -15 2 -22 -2 -22
-12z"/>
<path d="M1364 6520 c0 -184 2 -260 3 -167 2 92 2 242 0 335 -1 92 -3 16 -3
-168z"/>
<path d="M2041 6603 c1 -137 4 -374 8 -528 3 -154 3 -281 -1 -283 -12 -6 -9
-72 3 -72 7 0 8 -11 4 -31 -4 -17 -4 -231 0 -475 l8 -444 25 0 25 0 -7 803
c-3 441 -9 909 -13 1040 l-6 237 -23 0 -24 0 1 -247z"/>
<path d="M3620 6590 c0 -5 14 -10 30 -10 17 0 30 5 30 10 0 6 -13 10 -30 10
-16 0 -30 -4 -30 -10z"/>
<path d="M3624 6555 c-3 -8 -3 -38 0 -67 3 -29 6 -215 5 -413 -1 -198 2 -575
6 -837 8 -501 8 -498 51 -481 15 6 16 75 9 857 -4 468 -8 862 -10 876 -1 14
-3 37 -4 53 -1 22 -6 27 -26 27 -14 0 -28 -7 -31 -15z"/>
<path d="M3621 6364 c0 -11 3 -14 6 -6 3 7 2 16 -1 19 -3 4 -6 -2 -5 -13z"/>
<path d="M1012 6240 c0 -14 2 -19 5 -12 2 6 2 18 0 25 -3 6 -5 1 -5 -13z"/>
<path d="M1015 5485 c0 -385 1 -541 2 -347 2 195 2 510 0 700 -1 191 -2 32 -2
-353z"/>
<path d="M1363 6130 c0 -30 2 -43 4 -27 2 15 2 39 0 55 -2 15 -4 2 -4 -28z"/>
<path d="M3277 6144 c-11 -12 3 -24 29 -24 16 0 24 5 22 13 -5 13 -40 22 -51
11z"/>
<path d="M2646 6017 c1 -149 4 -171 26 -175 14 -3 16 13 17 147 2 151 2 151
-21 151 -23 0 -23 -1 -22 -123z"/>
<path d="M3280 5996 l0 -106 25 0 26 0 -3 103 c-3 97 -4 102 -25 105 -23 3
-23 2 -23 -102z"/>
<path d="M4260 6078 c0 -21 14 -70 31 -113 7 -19 2 96 -7 123 -6 20 -24 13
-24 -10z"/>
<path d="M1374 5925 c0 -77 2 -107 3 -67 2 40 2 103 0 140 -2 37 -3 4 -3 -73z"/>
<path d="M3288 5873 c-3 -4 -6 -44 -7 -88 -3 -98 -13 -140 -57 -227 -19 -37
-32 -68 -29 -68 3 0 23 11 44 25 60 37 84 109 85 250 1 94 -1 110 -16 113 -9
2 -18 -1 -20 -5z"/>
<path d="M4292 5860 c0 -14 2 -19 5 -12 2 6 2 18 0 25 -3 6 -5 1 -5 -13z"/>
<path d="M2644 5815 c-4 -9 -1 -41 5 -71 9 -41 23 -65 57 -101 25 -27 42 -39
38 -28 -4 11 -9 35 -12 53 -2 18 -10 32 -18 32 -12 0 -21 29 -26 95 -3 33 -34
47 -44 20z"/>
<path d="M1093 5268 c4 -298 7 -937 7 -1420 l0 -878 21 0 21 0 -4 1388 c-4
1302 -5 1389 -22 1420 -10 17 -20 32 -23 32 -4 0 -3 -244 0 -542z"/>
<path d="M4275 5790 c-3 -11 -2 -28 4 -37 8 -15 10 -11 11 20 0 41 -5 47 -15
17z"/>
<path d="M4622 5750 c0 -14 2 -19 5 -12 2 6 2 18 0 25 -3 6 -5 1 -5 -13z"/>
<path d="M4282 5625 c0 -82 2 -94 10 -68 7 21 7 54 1 100 l-10 68 -1 -100z"/>
<path d="M1371 5674 c0 -11 3 -14 6 -6 3 7 2 16 -1 19 -3 4 -6 -2 -5 -13z"/>
<path d="M3883 5625 c0 -33 2 -45 4 -27 2 18 2 45 0 60 -2 15 -4 0 -4 -33z"/>
<path d="M3159 5629 c-9 -11 -27 -22 -39 -24 -13 -3 -26 -9 -30 -14 -3 -6 -26
-20 -50 -31 l-45 -21 44 6 c24 3 56 14 70 24 33 24 76 70 70 75 -2 3 -11 -4
-20 -15z"/>
<path d="M914 5595 c-14 -22 -16 -43 -9 -147 5 -82 3 -146 -6 -197 -11 -69
-10 -81 6 -114 9 -20 20 -37 24 -37 4 0 8 102 9 228 2 125 5 242 8 260 7 39
-9 43 -32 7z"/>
<path d="M1370 5555 c0 -37 4 -65 10 -65 6 0 10 28 10 65 0 37 -4 65 -10 65
-6 0 -10 -28 -10 -65z"/>
<path d="M4627 5567 c-13 -103 -53 -158 -142 -199 -45 -20 -65 -22 -205 -23
-119 0 -168 4 -211 17 -78 24 -143 77 -162 130 -9 24 -16 35 -16 25 -1 -26 33
-88 66 -118 67 -63 162 -90 313 -90 125 0 211 19 268 60 66 46 110 146 100
227 -2 20 -6 12 -11 -29z"/>
<path d="M2670 5523 c0 -6 8 -17 18 -24 16 -13 16 -13 2 6 -8 11 -16 22 -17
24 -2 2 -3 0 -3 -6z"/>
<path d="M4511 5454 c0 -11 3 -14 6 -6 3 7 2 16 -1 19 -3 4 -6 -2 -5 -13z"/>
<path d="M4286 5395 c-3 -8 -1 -15 4 -15 6 0 10 7 10 15 0 8 -2 15 -4 15 -2 0
-6 -7 -10 -15z"/>
<path d="M2580 5390 c0 -5 5 -10 10 -10 6 0 10 5 10 10 0 6 -4 10 -10 10 -5 0
-10 -4 -10 -10z"/>
<path d="M1387 5343 c-10 -10 -8 -86 3 -103 7 -11 10 3 10 48 0 62 -1 67 -13
55z"/>
<path d="M2845 5319 c-10 -15 1 -23 20 -15 9 3 13 10 10 16 -8 13 -22 13 -30
-1z"/>
<path d="M4120 5053 c0 -580 -82 -860 -323 -1110 -39 -40 -68 -75 -66 -77 6
-6 147 104 194 151 109 111 184 311 221 582 15 116 26 496 17 624 -4 58 -7 67
-24 67 -18 0 -19 -10 -19 -237z"/>
<path d="M2815 5270 c-3 -5 -1 -10 4 -10 6 0 11 5 11 10 0 6 -2 10 -4 10 -3 0
-8 -4 -11 -10z"/>
<path d="M4288 4975 c-5 -292 -24 -591 -48 -750 -6 -38 -12 -218 -14 -400 -7
-551 -31 -673 -204 -1029 -12 -24 23 12 59 60 91 123 181 347 215 534 23 128
31 642 21 1285 -9 611 -21 734 -29 300z"/>
<path d="M1384 5070 c0 -74 1 -105 3 -67 2 37 2 97 0 135 -2 37 -3 6 -3 -68z"/>
<path d="M900 4871 c0 -195 1 -201 20 -201 20 0 20 5 18 197 -3 179 -5 198
-20 201 -17 3 -18 -11 -18 -197z"/>
<path d="M1380 4800 c0 -57 3 -100 7 -96 8 8 5 187 -3 195 -2 2 -4 -42 -4 -99z"/>
<path d="M2060 4740 c0 -5 6 -10 13 -10 9 0 9 -2 -1 -9 -15 -9 -15 -138 0
-147 4 -3 8 1 8 9 0 8 7 28 15 43 18 35 20 90 3 97 -8 3 -5 6 5 6 27 1 10 21
-19 21 -13 0 -24 -4 -24 -10z"/>
<path d="M3640 4730 c0 -5 16 -10 36 -10 21 0 33 4 29 10 -3 6 -19 10 -36 10
-16 0 -29 -4 -29 -10z"/>
<path d="M3642 4568 c3 -122 5 -133 22 -136 11 -3 26 4 33 14 14 19 17 113 7
202 -6 49 -8 52 -36 52 l-29 0 3 -132z"/>
<path d="M400 4628 c0 -23 -3 -67 -6 -95 -5 -34 -3 -53 4 -53 19 0 33 181 14
188 -8 2 -12 -10 -12 -40z"/>
<path d="M596 4648 c-3 -7 -7 -50 -11 -94 -7 -87 -1 -99 41 -84 18 7 22 20 28
90 4 45 5 85 1 88 -12 12 -55 12 -59 0z"/>
<path d="M900 4555 c0 -88 1 -95 20 -95 19 0 20 7 20 95 0 88 -1 95 -20 95
-19 0 -20 -7 -20 -95z"/>
<path d="M1399 4612 c5 -34 6 -35 9 -8 2 16 0 32 -5 37 -5 5 -7 -7 -4 -29z"/>
<path d="M2107 4623 c-11 -10 -8 -83 3 -83 6 0 10 20 10 45 0 46 -2 50 -13 38z"/>
<path d="M2065 4548 c-4 -9 -5 -33 -3 -54 3 -34 6 -39 31 -42 35 -4 36 18 2
72 -18 30 -26 36 -30 24z"/>
<path d="M6368 4390 c2 -56 8 -100 13 -100 13 0 7 192 -6 197 -6 2 -9 -33 -7
-97z"/>
<path d="M4221 4464 c0 -11 3 -14 6 -6 3 7 2 16 -1 19 -3 4 -6 -2 -5 -13z"/>
<path d="M5027 4473 c-11 -10 -8 -203 3 -203 13 0 18 29 23 128 3 58 0 82 -8
82 -6 0 -15 -3 -18 -7z"/>
<path d="M6138 4403 c4 -97 9 -123 25 -123 10 0 12 21 10 88 -5 100 -8 112
-25 112 -10 0 -13 -19 -10 -77z"/>
<path d="M390 4450 c0 -5 5 -10 10 -10 6 0 10 5 10 10 0 6 -4 10 -10 10 -5 0
-10 -4 -10 -10z"/>
<path d="M587 4444 c-16 -16 -5 -25 26 -22 17 2 31 8 30 13 -3 12 -46 19 -56
9z"/>
<path d="M900 4430 c0 -5 9 -10 20 -10 11 0 20 5 20 10 0 6 -9 10 -20 10 -11
0 -20 -4 -20 -10z"/>
<path d="M2069 4433 c0 -4 0 -44 1 -88 3 -175 57 -303 184 -433 92 -95 146
-133 73 -53 -42 48 -107 162 -107 190 0 6 -7 8 -15 5 -33 -13 -82 155 -87 296
-3 79 -4 85 -25 88 -13 2 -23 0 -24 -5z"/>
<path d="M4211 4424 c0 -11 3 -14 6 -6 3 7 2 16 -1 19 -3 4 -6 -2 -5 -13z"/>
<path d="M398 4414 c-11 -11 -10 -182 1 -189 5 -3 11 -2 13 2 6 16 -7 194 -14
187z"/>
<path d="M3663 4413 c-19 -7 -16 -23 5 -24 14 0 13 -2 -4 -9 -19 -8 -22 -18
-27 -127 -3 -65 -13 -147 -22 -183 -22 -83 -81 -210 -134 -288 -65 -96 -61
-102 21 -29 60 55 84 84 112 141 58 120 79 211 83 372 3 144 0 159 -34 147z"/>
<path d="M580 4304 l0 -95 28 3 c27 3 27 4 28 80 1 43 4 85 8 93 4 12 -3 15
-29 15 l-35 0 0 -96z"/>
<path d="M4191 4359 c-7 -22 -10 -43 -7 -46 2 -3 10 14 16 37 15 55 7 63 -9 9z"/>
<path d="M902 4298 c2 -75 6 -93 18 -93 12 0 16 18 18 93 3 87 2 92 -18 92
-20 0 -21 -5 -18 -92z"/>
<path d="M6370 4254 c0 -8 5 -12 10 -9 6 3 10 10 10 16 0 5 -4 9 -10 9 -5 0
-10 -7 -10 -16z"/>
<path d="M5020 4240 c0 -5 5 -10 10 -10 6 0 10 5 10 10 0 6 -4 10 -10 10 -5 0
-10 -4 -10 -10z"/>
<path d="M6155 4240 c3 -5 8 -10 11 -10 2 0 4 5 4 10 0 6 -5 10 -11 10 -5 0
-7 -4 -4 -10z"/>
<path d="M3450 4213 c0 -6 -25 -38 -55 -72 -66 -74 -74 -96 -11 -29 53 55 81
96 72 105 -3 3 -6 2 -6 -4z"/>
<path d="M6366 4183 c-3 -21 -6 -57 -6 -81 0 -24 -5 -52 -10 -63 -8 -15 -7
-19 4 -19 8 0 17 3 19 8 10 17 19 192 9 192 -5 0 -12 -17 -16 -37z"/>
<path d="M409 4197 c-1 -9 -2 -20 -3 -24 -1 -5 -6 -147 -10 -318 -8 -330 -1
-465 35 -695 24 -152 75 -358 124 -500 58 -166 186 -429 251 -516 59 -78 264
-298 271 -291 2 3 -26 35 -63 73 -76 79 -177 205 -222 279 -80 130 -186 366
-236 525 -120 380 -157 694 -138 1190 5 159 6 279 1 285 -6 5 -9 2 -10 -8z"/>
<path d="M5021 4123 c2 -124 17 -145 18 -25 1 62 -3 102 -9 102 -6 0 -10 -32
-9 -77z"/>
<path d="M5415 4193 c-16 -3 -33 -10 -37 -16 -13 -21 -9 -175 5 -184 6 -4 32
-10 57 -14 l45 -6 -51 -2 -52 -1 -5 -362 c-5 -389 -14 -483 -71 -737 -106
-468 -325 -898 -689 -1356 -57 -71 -147 -198 -147 -207 0 -5 13 0 29 11 16 12
31 21 34 21 7 0 149 88 245 152 41 26 77 48 82 48 4 0 27 16 49 35 23 19 76
55 119 81 42 26 90 56 106 67 17 11 47 24 68 27 35 7 38 6 33 -11 -13 -39 6
-15 81 103 137 217 232 444 318 763 86 319 108 527 110 1015 l1 345 -45 6
c-33 4 -37 6 -15 8 75 4 75 4 75 107 0 63 -4 95 -12 100 -14 9 -288 15 -333 7z
m183 -220 c-15 -2 -42 -2 -60 0 -18 2 -6 4 27 4 33 0 48 -2 33 -4z"/>
<path d="M6158 4153 c5 -76 10 -83 11 -15 0 34 -2 62 -7 62 -4 0 -6 -21 -4
-47z"/>
<path d="M596 4144 c-13 -99 -7 -699 9 -821 42 -323 139 -649 271 -917 20 -39
37 -72 39 -75 3 -2 13 4 24 13 19 17 18 18 -4 59 -72 128 -195 483 -233 672
-54 263 -65 435 -54 815 5 146 6 273 4 283 -3 10 -14 17 -27 17 -19 0 -23 -7
-29 -46z"/>
<path d="M898 3963 c0 -120 0 -258 1 -308 2 -92 25 -302 40 -365 8 -30 4 787
-3 860 -2 14 -10 26 -19 28 -15 3 -17 -17 -19 -215z"/>
<path d="M3867 4148 c-9 -13 -27 -36 -41 -52 -14 -16 -26 -32 -26 -35 1 -8 69
69 81 92 14 25 4 21 -14 -5z"/>
<path d="M4102 4070 c0 -14 2 -19 5 -12 2 6 2 18 0 25 -3 6 -5 1 -5 -13z"/>
<path d="M6151 4034 c0 -11 3 -14 6 -6 3 7 2 16 -1 19 -3 4 -6 -2 -5 -13z"/>
<path d="M3038 4003 c6 -2 18 -2 25 0 6 3 1 5 -13 5 -14 0 -19 -2 -12 -5z"/>
<path d="M1376 3964 c-4 -15 -2 -32 3 -37 8 -8 11 0 11 26 0 44 -5 47 -14 11z"/>
<path d="M6339 3888 c-1 -57 -3 -114 -4 -128 -2 -14 -4 -86 -5 -162 -2 -161
-9 -216 -66 -502 -13 -66 -29 -123 -36 -128 -7 -4 -9 -8 -4 -8 5 0 2 -8 -6
-17 -8 -10 -23 -36 -33 -58 -10 -22 -24 -44 -31 -48 -8 -4 -14 -15 -14 -22 0
-8 -6 -15 -12 -16 -7 0 -23 -2 -36 -3 -14 -2 -21 2 -18 9 2 7 7 34 10 61 4 27
-9 -9 -27 -81 -19 -71 -42 -153 -52 -182 -11 -29 -17 -55 -13 -58 3 -4 24 3
47 14 101 52 183 164 201 276 6 39 18 99 27 135 26 111 43 210 59 350 21 183
21 184 30 443 5 170 4 227 -4 227 -8 0 -12 -32 -13 -102z"/>
<path d="M5040 3697 c0 -377 -22 -561 -95 -806 -27 -89 -83 -238 -96 -256 -4
-5 -26 -45 -48 -88 -81 -155 -180 -284 -323 -423 -106 -104 -171 -153 -278
-212 -107 -58 -213 -98 -339 -127 -127 -29 -153 -31 -93 -6 23 9 40 20 37 23
-4 3 7 9 22 12 16 4 35 16 43 26 8 11 18 20 23 20 5 0 43 25 84 55 111 81 76
72 -137 -36 -63 -31 -138 -67 -166 -77 -155 -61 -770 -144 -954 -128 -41 3
-97 13 -124 21 -27 8 -56 15 -65 14 -28 -1 70 -28 214 -58 312 -66 521 -67
880 -6 145 25 305 63 349 83 167 77 202 95 239 121 23 16 67 45 98 64 30 19
97 74 148 123 349 332 547 774 591 1318 13 165 13 626 0 626 -5 0 -9 -110 -10
-283z"/>
<path d="M6138 3967 c-5 -10 -7 -127 -6 -260 l1 -242 9 225 c9 243 8 307 -4
277z"/>
<path d="M1400 3865 c0 -14 2 -25 4 -25 2 0 6 11 8 25 3 14 1 25 -3 25 -5 0
-9 -11 -9 -25z"/>
<path d="M3305 3780 c-10 -17 -82 -50 -108 -50 -13 0 -38 -7 -55 -16 -17 -8
-71 -25 -119 -37 -63 -16 -80 -23 -60 -25 56 -7 190 28 267 69 77 41 114 69
93 69 -7 0 -15 -5 -18 -10z"/>
<path d="M3214 3754 c-18 -14 -18 -15 4 -4 12 6 22 13 22 15 0 8 -5 6 -26 -11z"/>
<path d="M4520 3733 c0 -116 -31 -350 -55 -419 -11 -32 -14 -34 -19 -17 -4 11
-4 53 -2 94 5 81 -3 57 -23 -71 -6 -41 -16 -99 -21 -129 -5 -30 -8 -56 -6 -58
2 -2 19 13 39 34 38 39 42 50 71 223 16 93 33 370 22 370 -3 0 -6 -12 -6 -27z"/>
<path d="M1407 3648 c8 -97 13 -99 13 -5 0 43 -4 77 -9 77 -6 0 -7 -30 -4 -72z"/>
<path d="M4090 3608 c0 -49 5 -47 14 5 4 23 3 37 -4 37 -5 0 -10 -19 -10 -42z"/>
<path d="M2120 3629 c0 -5 5 -7 10 -4 6 3 10 8 10 11 0 2 -4 4 -10 4 -5 0 -10
-5 -10 -11z"/>
<path d="M1423 3505 c0 -22 2 -30 4 -17 2 12 2 30 0 40 -3 9 -5 -1 -4 -23z"/>
<path d="M2375 3510 c3 -5 10 -10 16 -10 5 0 9 5 9 10 0 6 -7 10 -16 10 -8 0
-12 -4 -9 -10z"/>
<path d="M1432 3440 c0 -14 2 -19 5 -12 2 6 2 18 0 25 -3 6 -5 1 -5 -13z"/>
<path d="M1110 2950 c-19 -12 -7 -22 21 -18 19 2 20 5 8 15 -9 7 -20 9 -29 3z"/>
<path d="M6092 2940 c0 -14 2 -19 5 -12 2 6 2 18 0 25 -3 6 -5 1 -5 -13z"/>
<path d="M1725 2910 c3 -5 15 -10 26 -10 10 0 19 5 19 10 0 6 -12 10 -26 10
-14 0 -23 -4 -19 -10z"/>
<path d="M1100 2806 c0 -111 15 -179 30 -141 5 11 9 71 9 133 1 106 0 112 -19
112 -19 0 -20 -7 -20 -104z"/>
<path d="M1730 2776 c0 -100 1 -106 20 -106 20 0 21 5 18 102 -3 89 -5 103
-20 106 -16 3 -18 -7 -18 -102z"/>
<path d="M1337 2858 c-4 -12 58 -148 68 -148 4 0 -20 90 -37 133 -11 29 -24
35 -31 15z"/>
<path d="M1990 2786 c25 -26 59 -57 75 -68 23 -16 19 -10 -15 26 -25 26 -58
57 -75 68 -23 16 -19 10 15 -26z"/>
<path d="M1262 2719 c3 -86 9 -117 33 -177 27 -65 33 -74 65 -83 19 -6 57 -9
83 -7 l49 3 -30 41 c-44 60 -182 290 -182 302 0 6 -5 14 -11 18 -8 4 -10 -24
-7 -97z"/>
<path d="M1730 2646 c0 -10 9 -16 21 -16 24 0 21 23 -4 28 -10 2 -17 -3 -17
-12z"/>
<path d="M1102 2576 c4 -61 7 -69 43 -106 21 -22 43 -40 47 -40 12 0 -11 52
-29 65 -10 8 -18 34 -22 76 -5 52 -10 64 -25 67 -17 4 -18 -2 -14 -62z"/>
<path d="M1743 2613 c-8 -3 -13 -24 -14 -51 0 -26 -8 -76 -18 -112 -11 -36
-22 -76 -26 -90 -6 -23 -4 -22 28 12 42 43 57 90 57 181 0 66 -2 71 -27 60z"/>
<path d="M3954 2588 l-29 -33 33 29 c17 17 32 31 32 33 0 8 -8 1 -36 -29z"/>
<path d="M1852 2550 c0 -14 2 -19 5 -12 2 6 2 18 0 25 -3 6 -5 1 -5 -13z"/>
<path d="M3257 2510 c-38 -10 -72 -21 -75 -25 -9 -9 60 4 133 26 79 23 30 22
-58 -1z"/>
<path d="M3387 2494 c-42 -13 -168 -37 -280 -53 -111 -17 -213 -32 -227 -34
-14 -2 9 -5 50 -5 119 -2 259 14 335 38 39 12 98 31 132 42 35 11 65 24 68 29
4 5 5 8 3 8 -2 -1 -38 -12 -81 -25z"/>
<path d="M1787 2388 c-4 -14 -25 -49 -47 -77 -42 -53 -46 -61 -30 -61 19 0 80
74 86 106 8 41 0 69 -9 32z"/>
<path d="M1551 2385 c-13 -7 -50 -14 -83 -14 -61 0 -82 -6 -73 -22 16 -25 159
6 179 40 8 13 8 13 -23 -4z"/>
<path d="M1330 2356 c0 -9 30 -14 35 -6 4 6 -3 10 -14 10 -12 0 -21 -2 -21 -4z"/>
<path d="M1640 2197 c-36 -16 -36 -16 -14 -32 27 -22 135 -77 140 -72 2 2 -10
19 -26 38 -17 19 -38 44 -47 57 -17 25 -18 25 -53 9z"/>
<path d="M1027 2146 c10 -13 23 -32 30 -42 7 -11 33 -50 59 -89 26 -38 48 -83
50 -99 3 -19 17 -40 39 -59 19 -15 35 -35 35 -42 0 -8 5 -17 12 -21 8 -5 9 -2
5 9 -3 10 -2 17 3 17 6 0 10 -9 10 -21 0 -16 4 -20 18 -14 13 4 14 3 6 -5 -9
-9 -5 -18 13 -36 13 -13 29 -22 34 -19 5 4 9 -1 9 -10 0 -9 7 -15 16 -13 10 2
19 -4 21 -12 4 -12 3 -12 -5 -1 -7 9 -12 10 -16 2 -5 -7 4 -14 24 -17 17 -4
33 -11 37 -17 4 -6 0 -8 -10 -4 -9 3 -19 2 -22 -3 -4 -6 3 -10 14 -10 11 0 25
-8 31 -17 10 -16 11 -16 5 2 -5 15 -3 17 5 9 6 -6 13 -20 14 -30 2 -10 9 -20
17 -22 11 -3 11 -1 -1 7 -9 6 -10 11 -3 11 6 0 21 -12 33 -27 12 -16 19 -21
15 -13 -5 12 -4 12 7 -1 7 -8 29 -24 48 -34 46 -26 80 -56 80 -71 0 -13 28
-28 48 -25 6 1 12 -2 12 -7 0 -6 7 -13 16 -16 22 -9 8 10 -28 36 -17 12 -28
16 -23 8 5 -8 4 -11 -3 -6 -6 4 -10 12 -8 19 2 7 -36 48 -84 92 -122 110 -265
267 -376 411 -81 106 -177 204 -199 204 -3 0 2 -11 12 -24z m178 -256 c3 -5 1
-10 -4 -10 -6 0 -11 5 -11 10 0 6 2 10 4 10 3 0 8 -4 11 -10z m35 -35 c7 -9 8
-15 2 -15 -5 0 -12 7 -16 15 -3 8 -4 15 -2 15 2 0 9 -7 16 -15z"/>
<path d="M1695 2034 c23 -19 108 -58 145 -68 14 -4 -13 14 -60 38 -87 46 -121
58 -85 30z"/>
<path d="M1130 1951 c0 -6 5 -13 10 -16 6 -3 10 1 10 9 0 9 -4 16 -10 16 -5 0
-10 -4 -10 -9z"/>
<path d="M1972 1890 c31 -11 74 -21 95 -25 21 -3 0 6 -47 20 -98 29 -133 32
-48 5z"/>
<path d="M2254 1859 c-9 -16 2 -22 21 -11 15 8 16 10 1 15 -8 3 -18 2 -22 -4z"/>
<path d="M2128 1853 c6 -2 18 -2 25 0 6 3 1 5 -13 5 -14 0 -19 -2 -12 -5z"/>
<path d="M2286 1770 c5 -5 25 -12 44 -15 l35 -6 -25 15 c-28 17 -70 22 -54 6z"/>
<path d="M2420 1730 c8 -5 22 -9 30 -9 10 0 8 3 -5 9 -27 12 -43 12 -25 0z"/>
<path d="M2488 1713 c7 -3 16 -2 19 1 4 3 -2 6 -13 5 -11 0 -14 -3 -6 -6z"/>
<path d="M3443 654 c7 -7 196 -33 242 -34 58 0 9 19 -75 29 -94 12 -177 14
-167 5z"/>
</g>
</svg>
