<?xml version="1.0" standalone="no"?>
<!DOCTYPE svg PUBLIC "-//W3C//DTD SVG 20010904//EN"
 "http://www.w3.org/TR/2001/REC-SVG-20010904/DTD/svg10.dtd">
<svg version="1.0" xmlns="http://www.w3.org/2000/svg"
 width="1200.000000pt" height="1155.000000pt" viewBox="0 0 1200.000000 1155.000000"
 preserveAspectRatio="xMidYMid meet">

<g transform="translate(0.000000,1155.000000) scale(0.100000,-0.100000)"
fill="#000000" stroke="none">
<path d="M5570 11539 c-536 -30 -1098 -139 -1594 -309 -304 -104 -690 -276
-700 -312 -3 -13 -10 -19 -20 -15 -21 8 -453 -226 -621 -338 -176 -116 -440
-314 -604 -453 -158 -133 -525 -499 -661 -657 -702 -822 -1158 -1820 -1309
-2870 -126 -872 -45 -1825 224 -2630 459 -1375 1589 -2646 2964 -3334 414
-208 765 -333 1226 -440 520 -120 896 -167 1400 -178 729 -15 1396 86 2085
316 826 277 1550 706 2205 1308 399 367 832 900 1111 1368 713 1200 920 2892
528 4317 -122 445 -300 843 -602 1348 -365 609 -842 1150 -1427 1617 -1100
879 -2666 1349 -4205 1262z m978 -254 c331 -33 656 -89 932 -161 181 -47 520
-154 678 -213 1263 -479 2410 -1500 2993 -2664 39 -76 69 -141 67 -142 -2 -2
-44 16 -93 41 -161 79 -338 110 -575 101 -386 -16 -760 -135 -1011 -322 -297
-221 -523 -560 -624 -935 -37 -136 -43 -263 -54 -1155 -6 -429 -16 -908 -22
-1065 -12 -317 -22 -364 -85 -427 l-32 -33 -370 0 c-416 0 -544 11 -687 59
-108 36 -183 81 -254 153 -99 100 -151 207 -193 400 -34 157 -32 451 5 778 32
281 42 322 104 442 63 123 151 216 251 265 66 33 85 38 147 38 77 0 153 -29
220 -82 42 -33 56 -67 95 -224 48 -196 81 -251 175 -295 130 -62 278 6 319
146 37 125 30 260 -18 366 -62 134 -243 267 -436 319 -86 23 -308 31 -409 15
-430 -69 -774 -383 -930 -849 -63 -188 -75 -272 -75 -526 0 -324 32 -484 144
-710 69 -140 130 -223 235 -324 127 -121 255 -190 415 -226 89 -20 178 -22
1285 -35 755 -8 801 -8 824 9 32 22 43 64 31 115 -12 54 -43 79 -139 111 -57
19 -88 35 -106 56 l-25 31 1 296 c0 163 4 540 8 838 l7 540 32 67 c57 122 180
228 315 269 98 29 228 23 311 -15 99 -45 143 -84 181 -159 l35 -68 0 -887 c0
-690 -3 -894 -13 -913 -19 -37 -69 -66 -147 -85 -93 -23 -120 -45 -120 -96 0
-32 7 -48 39 -82 l40 -42 461 0 461 0 19 25 c13 17 20 41 20 73 0 55 -26 88
-88 108 -93 30 -161 67 -177 98 -14 28 -16 139 -22 1014 -7 1116 2 1010 -95
1113 -92 97 -195 149 -369 184 -124 26 -247 27 -385 5 -171 -27 -284 -71 -399
-155 -64 -46 -88 -53 -98 -27 -8 21 11 319 27 437 51 368 187 652 409 856 189
172 533 252 817 188 92 -21 142 -57 279 -204 135 -143 191 -180 270 -180 87 1
177 59 205 135 10 25 23 45 30 45 15 0 88 -182 147 -364 507 -1557 185 -3441
-815 -4772 -96 -128 -295 -361 -428 -501 -911 -960 -2102 -1579 -3418 -1777
-333 -50 -487 -61 -895 -60 -396 0 -539 9 -850 55 -619 90 -1280 292 -1790
547 -1095 548 -2035 1473 -2516 2477 -94 198 -94 197 -17 138 503 -389 1381
-492 2192 -257 349 102 590 245 826 491 136 141 224 265 310 438 79 158 119
274 152 437 33 165 33 473 0 636 -56 280 -163 483 -345 659 -81 78 -111 99
-247 172 -85 46 -166 90 -179 98 l-24 15 50 27 c156 86 340 244 442 381 74 99
133 215 167 325 26 83 28 103 28 255 0 151 -2 173 -27 255 -101 331 -340 596
-627 697 -131 46 -149 47 -1152 59 -939 12 -957 11 -990 -8 -40 -23 -48 -63
-22 -111 23 -42 67 -65 172 -87 136 -30 174 -66 197 -190 12 -71 11 -259 -11
-1655 -21 -1332 -28 -1582 -40 -1617 -34 -96 -164 -194 -277 -209 -66 -9 -71
-15 -75 -92 l-4 -69 118 -7 c66 -3 356 -9 646 -13 l527 -6 11 28 c17 45 9 95
-20 116 -15 11 -58 23 -105 30 -93 12 -157 38 -179 71 -8 12 -22 68 -32 122
-15 91 -16 161 -6 829 6 401 12 730 14 733 11 10 517 21 620 13 263 -21 429
-108 555 -291 131 -190 199 -397 223 -682 27 -311 -48 -745 -175 -1022 -150
-326 -473 -565 -888 -656 -92 -20 -128 -23 -367 -22 -226 1 -283 4 -383 22
-367 67 -588 230 -678 498 -34 102 -63 155 -113 206 -81 83 -162 108 -287 89
-115 -18 -183 -75 -220 -183 l-17 -51 -60 184 c-137 414 -215 801 -252 1248
-16 191 -13 653 5 854 101 1130 527 2161 1255 3038 135 161 519 545 685 683
462 385 962 688 1500 912 605 250 1299 407 1985 448 146 8 722 -4 868 -19z
m-3413 -3445 c153 -48 308 -155 364 -253 75 -132 112 -281 112 -461 0 -255
-80 -493 -203 -600 -126 -110 -281 -160 -552 -177 -309 -20 -475 0 -533 64
-43 46 -43 61 -29 674 16 646 11 608 89 680 100 92 156 104 452 99 199 -4 239
-8 300 -26z"/>
<path d="M4270 7868 c0 -7 11 -21 25 -33 20 -15 64 -121 195 -460 l168 -440
59 -3 60 -3 162 418 c115 293 173 431 197 462 19 24 34 48 34 53 0 15 -210 14
-238 -1 -10 -6 -4 -14 22 -29 20 -12 36 -28 36 -36 0 -8 -43 -130 -95 -272
-86 -234 -114 -294 -135 -294 -10 0 -138 324 -181 456 l-32 101 21 31 c12 16
22 34 22 40 0 17 -41 22 -182 22 -102 0 -138 -3 -138 -12z"/>
<path d="M5205 7774 c-49 -53 -25 -119 47 -130 30 -5 38 -2 56 21 39 49 25
105 -29 124 -44 15 -47 15 -74 -15z"/>
<path d="M8320 7667 c0 -28 -62 -137 -92 -162 l-31 -26 36 -30 37 -30 0 -243
c0 -287 -3 -280 105 -291 67 -7 129 7 122 28 -1 5 -23 17 -47 26 l-45 17 -3
230 c-3 250 -4 243 53 261 19 6 31 17 33 31 3 19 -1 22 -32 22 -28 0 -66 20
-66 34 0 30 -24 114 -37 128 -19 21 -33 23 -33 5z"/>
<path d="M5222 7513 c-29 -19 -61 -48 -72 -63 l-20 -28 28 -48 c27 -49 27 -50
24 -213 -2 -158 -3 -166 -27 -197 l-25 -33 56 -7 c54 -6 162 1 173 12 3 3 -2
11 -12 18 -15 12 -17 38 -18 262 -1 137 -4 262 -8 278 -3 16 -15 34 -26 42
-18 11 -26 8 -73 -23z"/>
<path d="M5625 7528 c-11 -6 -44 -33 -72 -61 l-53 -51 24 -26 c22 -23 25 -36
31 -161 9 -161 3 -215 -30 -263 l-24 -35 22 -7 c27 -9 191 -9 206 0 6 4 3 14
-9 26 -19 19 -20 35 -20 216 l0 196 28 28 c28 27 85 50 127 50 27 0 73 -32 96
-66 16 -25 19 -49 19 -185 0 -156 -8 -207 -38 -242 -8 -9 -12 -20 -9 -23 9
-10 190 -10 205 0 11 6 10 12 -5 28 -16 18 -18 42 -18 236 0 203 -1 220 -22
257 -11 22 -32 51 -46 63 -45 43 -207 41 -320 -4 -13 -5 -20 -1 -24 15 -6 23
-35 27 -68 9z"/>
<path d="M6344 7511 c-59 -27 -119 -85 -145 -138 -31 -63 -39 -225 -15 -304
20 -72 65 -133 118 -161 36 -19 63 -23 164 -26 107 -4 126 -2 161 17 55 27 93
75 93 114 l0 32 -30 -36 c-39 -48 -86 -69 -155 -69 -58 0 -98 15 -127 47 -45
49 -65 258 -34 356 33 109 102 161 166 127 11 -6 38 -37 60 -70 43 -64 64 -80
104 -80 32 0 43 34 27 83 -14 41 -41 67 -101 98 -64 33 -226 39 -286 10z"/>
<path d="M6979 7506 c-135 -48 -198 -158 -186 -325 11 -169 62 -264 157 -292
26 -8 91 -14 156 -14 106 0 113 1 160 30 45 28 94 84 94 108 0 5 -16 -5 -35
-21 -41 -37 -90 -52 -168 -52 -63 0 -113 17 -139 46 -21 24 -48 129 -48 186 0
24 7 54 16 66 15 21 20 22 205 22 l189 0 0 26 c0 97 -64 186 -155 217 -58 20
-194 22 -246 3z m213 -78 c39 -30 63 -70 55 -92 -5 -13 -25 -16 -104 -16 -132
0 -143 4 -143 47 0 25 8 43 30 65 28 28 36 30 80 26 32 -3 61 -14 82 -30z"/>
<path d="M7586 7501 c-16 -11 -46 -38 -67 -61 l-37 -41 24 -28 c24 -28 24 -32
24 -223 0 -182 -1 -196 -20 -213 -11 -10 -20 -22 -20 -27 0 -4 50 -8 110 -8
107 0 125 5 97 29 -10 8 -16 54 -21 160 -8 177 2 237 47 288 30 34 32 35 94
31 52 -3 68 -9 90 -31 l27 -26 0 -188 c1 -165 -1 -192 -17 -222 -16 -28 -16
-35 -5 -43 16 -11 193 -6 205 5 4 5 -3 16 -15 26 -28 20 -31 73 -18 281 10
157 1 204 -47 256 -27 30 -41 36 -97 44 -66 9 -172 0 -224 -19 -21 -9 -27 -7
-36 9 -14 26 -56 26 -94 1z"/>
<path d="M5436 6719 c-432 -60 -760 -308 -807 -611 -14 -88 -4 -141 42 -213
38 -59 77 -78 164 -78 56 -1 80 4 120 25 86 45 132 92 149 152 9 30 39 101 68
157 41 82 66 117 122 174 96 95 167 130 261 129 141 -1 217 -45 275 -158 l35
-69 0 -166 c0 -162 -1 -167 -27 -211 -38 -66 -125 -143 -204 -183 -38 -19
-180 -79 -314 -132 -483 -191 -663 -302 -785 -485 -193 -290 -158 -747 69
-908 23 -16 72 -42 111 -57 252 -100 580 -61 972 117 l132 60 48 -40 c94 -76
180 -112 375 -156 152 -34 265 -35 328 -3 39 19 47 29 63 75 20 60 14 97 -17
117 -11 8 -68 19 -125 25 -109 11 -139 22 -167 65 -15 24 -16 97 -4 975 l13
950 -37 92 c-33 81 -46 101 -102 155 -82 78 -211 146 -342 179 -111 29 -301
39 -416 23z m359 -1386 c4 -53 5 -250 1 -438 l-7 -340 -30 -25 c-64 -52 -214
-140 -288 -169 -151 -58 -333 -63 -419 -11 -139 84 -175 365 -75 578 49 106
206 233 413 338 100 50 367 163 387 164 7 0 14 -34 18 -97z"/>
<path d="M9575 3881 c-89 -23 -167 -83 -210 -162 -40 -74 -47 -188 -16 -270
25 -67 91 -137 159 -171 39 -19 63 -23 142 -23 86 0 100 3 148 29 181 101 223
343 86 495 -58 64 -130 100 -214 106 -36 2 -78 1 -95 -4z m191 -59 c65 -33
101 -69 131 -130 22 -46 27 -70 27 -127 -1 -294 -397 -386 -528 -123 -35 71
-36 171 -2 243 27 60 100 127 159 149 57 21 160 15 213 -12z"/>
<path d="M9480 3741 c0 -5 10 -11 23 -13 22 -3 22 -5 22 -153 0 -146 -1 -150
-22 -160 -42 -18 -24 -25 62 -25 86 0 104 7 63 25 -20 9 -23 18 -26 84 l-3 74
32 -7 c18 -3 38 -11 45 -17 16 -13 34 -72 34 -110 0 -31 16 -47 56 -55 36 -7
70 18 80 59 8 37 -9 35 -23 -3 -16 -42 -41 -39 -49 8 -10 56 -31 90 -66 108
l-32 16 50 17 c59 20 84 54 69 98 -17 48 -63 63 -197 63 -66 0 -118 -4 -118
-9z m205 -15 c67 -28 55 -109 -20 -134 -58 -19 -65 -12 -65 62 0 51 4 67 18
75 23 14 27 13 67 -3z"/>
</g>
</svg>
