<?xml version="1.0" standalone="no"?>
<!DOCTYPE svg PUBLIC "-//W3C//DTD SVG 20010904//EN"
 "http://www.w3.org/TR/2001/REC-SVG-20010904/DTD/svg10.dtd">
<svg version="1.0" xmlns="http://www.w3.org/2000/svg"
 width="600.000000pt" height="400.000000pt" viewBox="0 0 600.000000 400.000000"
 preserveAspectRatio="xMidYMid meet">

<g transform="translate(0.000000,400.000000) scale(0.100000,-0.100000)"
fill="#000000" stroke="none">
<path d="M2976 3952 c-1831 -2 -2297 -5 -2294 -15 3 -6 33 -117 69 -244 l64
-232 45 -7 c50 -8 438 2 488 12 30 6 32 5 32 -24 0 -26 -4 -31 -33 -37 -17 -4
-42 -13 -54 -21 -43 -27 -33 -89 102 -619 69 -269 139 -550 157 -622 18 -73
36 -133 41 -133 4 0 7 6 7 13 0 6 56 209 124 450 l125 437 -19 68 c-10 37 -32
120 -49 185 -50 189 -79 228 -182 242 -46 6 -49 9 -49 36 l0 29 56 -6 c69 -8
518 -11 669 -4 l110 5 3 -27 c3 -24 0 -28 -24 -28 -46 0 -105 -23 -125 -48
-38 -49 -29 -107 123 -749 79 -332 145 -603 148 -603 9 0 321 1251 320 1283 0
64 -43 105 -115 112 -26 2 -30 7 -30 31 0 24 4 28 20 25 39 -8 2428 -12 2436
-4 10 10 142 481 137 491 -2 4 -1037 6 -2302 4z"/>
<path d="M3695 3410 c-337 -4 -466 -8 -481 -17 -33 -19 -70 -68 -88 -115 -8
-24 -60 -198 -115 -388 -54 -190 -151 -525 -215 -745 -129 -447 -186 -648
-186 -652 0 -2 447 -3 993 -3 l992 0 63 228 c35 125 156 554 268 954 112 400
204 732 204 737 0 11 -521 12 -1435 1z"/>
<path d="M1825 2043 c-75 -285 -140 -526 -142 -535 -5 -17 13 -18 282 -18 268
0 286 1 281 18 -3 9 -60 226 -126 482 -124 475 -149 570 -154 570 -1 0 -65
-233 -141 -517z"/>
<path d="M2796 1125 c-61 -21 -88 -55 -94 -114 -4 -48 -3 -53 30 -84 25 -23
62 -42 122 -61 97 -31 127 -58 106 -96 -37 -68 -186 -47 -219 32 -17 41 -37
52 -27 16 3 -13 6 -46 6 -74 l0 -52 65 -12 c77 -15 154 -7 213 21 50 24 72 61
72 120 0 62 -42 99 -151 132 -99 31 -128 54 -111 92 7 16 25 28 53 35 58 16
120 -8 154 -58 l25 -37 0 67 c0 65 0 66 -31 77 -44 15 -166 13 -213 -4z"/>
<path d="M4440 1113 c-123 -63 -161 -210 -86 -335 42 -71 105 -103 196 -102
43 0 79 7 105 20 35 16 40 24 43 56 l3 37 -42 -20 c-90 -44 -156 -30 -209 43
-50 68 -48 154 6 217 55 66 156 62 197 -7 l22 -37 3 64 c2 37 -2 69 -8 75 -6
6 -48 12 -93 14 -74 3 -88 0 -137 -25z"/>
<path d="M710 1121 c0 -5 7 -11 15 -15 13 -4 15 -36 15 -200 0 -175 -2 -196
-17 -205 -28 -16 233 -13 279 3 84 30 137 98 145 185 11 113 -46 199 -148 226
-60 16 -289 21 -289 6z m264 -79 c45 -25 78 -95 73 -153 -7 -85 -70 -139 -161
-139 l-46 0 0 153 c0 85 3 157 8 161 11 12 92 -2 126 -22z"/>
<path d="M1290 1124 c0 -3 7 -12 15 -20 12 -13 15 -49 15 -199 0 -179 -1 -184
-22 -199 -21 -15 -8 -16 165 -16 l187 0 0 66 c0 41 -4 63 -10 59 -5 -3 -10
-12 -10 -20 0 -34 -30 -45 -121 -45 l-89 0 0 65 0 65 60 0 c45 0 62 -4 66 -15
12 -31 19 -13 19 50 0 36 -1 65 -2 65 -2 0 -11 -8 -22 -19 -17 -17 -60 -21
-114 -12 -4 0 -7 27 -5 59 l3 57 81 3 c77 3 83 1 102 -23 11 -14 21 -25 23
-25 2 0 2 25 1 55 l-4 55 -169 0 c-93 0 -169 -3 -169 -6z"/>
<path d="M1813 1112 c15 -16 17 -44 17 -211 0 -161 -2 -193 -15 -197 -31 -12
-13 -19 50 -19 64 0 84 8 45 18 -19 5 -20 14 -20 163 0 92 4 154 9 149 5 -6
50 -75 101 -155 114 -178 115 -180 157 -180 l33 0 0 215 c0 193 2 215 18 224
13 8 0 10 -53 11 -66 0 -68 -1 -47 -16 21 -14 22 -22 22 -140 0 -68 -3 -124
-7 -124 -5 1 -46 63 -93 138 l-86 137 -74 3 c-72 3 -73 2 -57 -16z"/>
<path d="M2403 1116 c15 -12 17 -34 17 -210 0 -166 -2 -198 -15 -202 -33 -13
-11 -19 70 -19 47 0 85 3 85 8 0 4 -7 7 -15 7 -13 0 -15 29 -15 205 0 184 2
205 18 214 12 8 -7 10 -73 10 -77 0 -87 -2 -72 -13z"/>
<path d="M3318 1112 c10 -10 43 -108 76 -225 l59 -208 41 3 41 3 30 113 c16
61 32 112 35 112 3 0 19 -52 35 -115 l30 -116 40 3 39 3 61 208 c42 146 66
213 79 223 18 13 12 14 -54 14 -69 0 -73 -1 -53 -15 l21 -15 -36 -140 c-19
-78 -38 -138 -42 -133 -4 4 -19 60 -34 123 -15 63 -29 121 -31 128 -3 7 4 21
15 32 20 20 20 20 -77 20 -85 0 -95 -2 -73 -13 29 -14 54 -87 45 -131 -14 -75
-47 -169 -55 -155 -4 7 -22 72 -40 143 -32 124 -32 129 -15 142 16 12 7 14
-68 14 -83 0 -86 -1 -69 -18z"/>
<path d="M4033 1112 c24 -26 26 -399 2 -408 -33 -13 -11 -19 65 -19 76 0 98 6
65 19 -24 9 -22 382 2 408 15 17 13 18 -67 18 -80 0 -82 -1 -67 -18z"/>
<path d="M4843 1119 c15 -9 17 -30 17 -214 0 -176 -2 -205 -15 -205 -8 0 -15
-3 -15 -7 0 -5 39 -7 87 -6 105 2 104 2 76 13 -22 9 -23 15 -23 101 0 84 1 90
17 78 9 -8 43 -54 74 -103 l58 -89 71 -1 c66 -1 87 5 56 17 -7 3 -38 42 -69
86 -30 44 -67 95 -81 113 l-25 34 70 87 c38 48 74 87 79 87 6 0 10 5 10 10 0
6 -34 10 -82 10 -61 -1 -78 -3 -65 -11 9 -5 17 -15 17 -22 0 -7 -28 -48 -63
-92 l-62 -80 -3 85 c-3 77 -1 87 19 103 21 16 18 17 -72 17 -69 -1 -89 -3 -76
-11z"/>
<path d="M1630 386 c14 -14 13 -189 -2 -204 -9 -9 8 -12 80 -12 l92 0 -1 38
c0 20 -3 30 -6 22 -9 -23 -24 -30 -65 -30 l-38 0 0 88 c0 51 5 93 11 99 8 8
-1 11 -35 11 -33 -1 -44 -4 -36 -12z"/>
<path d="M2157 380 c-53 -42 -58 -124 -11 -180 66 -78 194 -28 194 76 0 56
-17 92 -51 110 -41 20 -102 18 -132 -6z m88 -16 c40 -16 58 -101 29 -142 -35
-50 -103 -8 -106 66 -2 61 31 93 77 76z"/>
<path d="M2688 292 c3 -80 1 -107 -10 -113 -8 -6 1 -9 27 -9 25 0 35 3 27 9
-9 5 -12 30 -10 85 l3 78 55 -86 c77 -120 90 -118 90 17 0 57 5 108 10 113 7
7 1 10 -17 10 l-28 0 3 -70 3 -71 -48 71 c-42 63 -51 71 -78 71 l-30 -1 3
-104z"/>
<path d="M3255 283 l0 -113 58 0 c105 0 157 39 157 116 0 77 -58 117 -166 112
l-49 -2 0 -113z m143 51 c39 -44 26 -102 -27 -124 -52 -21 -61 -10 -61 73 0
41 3 77 7 81 13 13 57 -4 81 -30z"/>
<path d="M3827 379 c-52 -40 -55 -133 -6 -185 62 -66 185 -19 190 71 3 57 -1
73 -30 104 -25 27 -36 31 -79 31 -35 0 -57 -6 -75 -21z m112 -35 c26 -33 28
-100 4 -126 -40 -45 -103 1 -103 75 0 73 58 103 99 51z"/>
<path d="M4338 388 c17 -17 16 -205 0 -211 -7 -3 5 -6 27 -6 25 0 35 2 27 8
-9 5 -12 29 -10 82 l3 74 55 -82 c41 -61 61 -83 77 -83 21 0 22 4 25 113 l3
112 -35 2 c-28 2 -32 1 -17 -8 13 -8 17 -23 17 -69 0 -33 -3 -60 -8 -60 -4 0
-26 30 -49 68 -40 64 -43 67 -84 69 -33 2 -40 0 -31 -9z"/>
</g>
</svg>
