<?xml version="1.0" standalone="no"?>
<!DOCTYPE svg PUBLIC "-//W3C//DTD SVG 20010904//EN"
 "http://www.w3.org/TR/2001/REC-SVG-20010904/DTD/svg10.dtd">
<svg version="1.0" xmlns="http://www.w3.org/2000/svg"
 width="200.000000pt" height="196.000000pt" viewBox="0 0 200.000000 196.000000"
 preserveAspectRatio="xMidYMid meet">

<g transform="translate(0.000000,196.000000) scale(0.100000,-0.100000)"
fill="#000000" stroke="none">
<path d="M1821 1347 c-11 -29 -17 -31 -146 -47 -135 -17 -186 -34 -353 -117
l-152 -76 -98 2 c-53 1 -245 3 -427 5 l-330 4 270 -13 c398 -19 581 -20 630
-2 22 8 94 42 160 76 125 64 196 85 330 97 99 8 132 20 137 49 8 37 -9 55 -21
22z"/>
<path d="M217 1233 c-9 -9 -9 -53 1 -53 4 0 7 14 7 30 0 17 0 30 -1 30 0 0 -4
-3 -7 -7z"/>
<path d="M490 1212 c0 -17 4 -34 10 -37 6 -4 7 6 3 27 -8 44 -13 48 -13 10z"/>
<path d="M590 1204 c0 -19 4 -33 8 -30 8 5 4 66 -4 66 -2 0 -4 -16 -4 -36z"/>
<path d="M310 1200 c0 -24 4 -30 22 -30 21 0 21 0 2 15 -15 12 -16 16 -6 23
11 8 11 10 -2 15 -12 5 -16 0 -16 -23z"/>
<path d="M400 1222 c0 -5 11 -19 25 -32 17 -16 25 -19 25 -9 -1 15 -50 56 -50
41z"/>
<path d="M660 1222 c0 -10 33 -42 43 -42 14 0 5 16 -18 33 -14 10 -25 14 -25
9z"/>
<path d="M743 1204 c-3 -8 -1 -20 6 -27 8 -8 11 -6 11 10 0 12 6 24 13 26 7 3
5 6 -6 6 -10 1 -20 -6 -24 -15z"/>
<path d="M381 1194 c0 -11 3 -14 6 -6 3 7 2 16 -1 19 -3 4 -6 -2 -5 -13z"/>
<path d="M267 1193 c-4 -3 -7 -11 -7 -17 0 -6 5 -5 12 2 6 6 9 14 7 17 -3 3
-9 2 -12 -2z"/>
<path d="M1820 1173 c0 -5 4 -14 9 -21 6 -10 10 -9 14 7 3 14 0 21 -9 21 -8 0
-14 -3 -14 -7z"/>
<path d="M1870 1151 c0 -6 5 -13 10 -16 14 -9 1 -55 -25 -87 -23 -27 -23 -27
-29 -5 l-7 22 -17 -24 c-18 -27 -25 -161 -9 -172 5 -4 -4 -22 -21 -40 -42 -48
-52 -72 -52 -119 l0 -42 35 4 c19 2 35 0 35 -4 0 -4 8 -8 18 -8 10 0 23 -5 30
-12 9 -9 12 -7 12 11 0 26 45 107 67 120 9 5 19 32 24 67 l8 59 -4 -69 c-5
-82 0 -83 13 -1 7 41 6 91 -3 160 -15 128 -29 165 -61 165 -13 0 -24 -4 -24
-9z"/>
<path d="M1790 1134 c0 -3 7 -12 15 -20 16 -17 18 -14 9 10 -6 15 -24 23 -24
10z"/>
<path d="M228 1043 c-11 -12 -17 -44 -19 -93 -4 -65 -2 -75 14 -78 13 -3 17 4
18 27 1 17 2 37 3 44 0 6 13 13 28 15 41 5 68 51 46 79 -15 18 -40 4 -32 -19
7 -22 -11 -48 -33 -48 -12 0 -14 10 -11 45 2 25 3 45 2 45 0 0 -8 -8 -16 -17z"/>
<path d="M382 1043 c-17 -15 -21 -32 -24 -92 l-3 -74 47 -4 c26 -2 49 0 53 6
4 7 -5 11 -24 11 -17 0 -32 3 -32 8 -8 48 -3 57 29 60 40 4 43 22 3 22 -35 0
-42 8 -34 38 4 16 13 22 34 22 16 0 29 5 29 10 0 17 -56 11 -78 -7z"/>
<path d="M516 1041 c-12 -14 -17 -34 -16 -68 2 -26 -1 -56 -5 -66 -10 -23 8
-42 30 -33 14 5 16 14 11 41 -9 46 4 44 29 -3 12 -23 29 -38 43 -40 28 -4 28
-1 -3 49 l-26 40 22 18 c27 21 20 71 -9 68 -14 -1 -17 -8 -14 -32 2 -20 -2
-36 -13 -45 -23 -19 -34 1 -29 51 4 45 3 46 -20 20z"/>
<path d="M987 1028 c-5 -20 -6 -45 -3 -56 13 -40 -15 -32 -62 18 -64 70 -82
64 -82 -31 0 -38 0 -71 0 -74 0 -3 3 -6 8 -7 4 -2 8 26 10 62 l3 64 63 -69
c35 -39 67 -67 70 -64 4 4 5 49 4 100 -2 78 -4 88 -11 57z"/>
<path d="M1030 1050 c0 -5 9 -10 19 -10 11 0 23 5 26 10 4 6 -5 10 -19 10 -14
0 -26 -4 -26 -10z"/>
<path d="M1106 1047 c-15 -11 -19 -29 -20 -90 0 -42 2 -78 6 -78 31 -7 32 -3
29 79 l-3 82 26 0 c14 0 26 5 26 10 0 14 -43 12 -64 -3z"/>
<path d="M1222 1040 c-18 -29 -15 -135 4 -154 21 -22 86 -20 114 2 18 15 23
31 28 90 3 50 1 72 -7 72 -7 0 -11 -23 -11 -63 0 -71 -17 -97 -63 -97 -35 0
-41 14 -43 93 -2 76 -5 84 -22 57z"/>
<path d="M1453 1038 c-46 -51 -57 -112 -25 -141 23 -21 73 -31 107 -23 38 10
30 26 -10 19 -50 -8 -75 17 -75 74 0 30 6 49 20 63 21 21 55 26 65 10 9 -15
25 -12 25 5 0 26 -82 20 -107 -7z"/>
<path d="M1643 1045 c-26 -18 -53 -70 -53 -100 0 -13 8 -33 19 -46 15 -19 28
-23 71 -24 32 0 55 5 57 12 3 8 -8 10 -35 6 -33 -4 -42 -2 -56 18 -24 35 -21
85 9 114 25 26 59 33 70 15 9 -15 25 -12 25 5 0 20 -78 20 -107 0z"/>
<path d="M712 1016 c-12 -18 -22 -39 -21 -47 0 -8 5 -4 11 9 14 28 20 28 34
-3 14 -30 9 -36 -26 -29 -23 5 -30 1 -48 -30 -12 -19 -17 -38 -12 -41 5 -3 16
8 25 25 14 26 21 31 48 28 24 -2 33 -9 37 -28 6 -24 50 -44 50 -22 0 13 -59
155 -68 164 -4 4 -17 -8 -30 -26z"/>
<path d="M945 820 c-11 -5 -168 -10 -350 -11 -312 -2 -320 -3 -150 -10 99 -3
254 -7 343 -8 150 -1 166 1 189 19 22 17 23 20 7 19 -11 0 -28 -4 -39 -9z"/>
<path d="M1082 819 c-13 -5 -36 -6 -50 -3 l-27 6 25 -21 c14 -11 29 -21 33
-21 12 0 49 21 65 37 11 11 10 13 -5 12 -10 0 -28 -4 -41 -10z"/>
<path d="M1165 790 c-3 -5 3 -10 15 -10 12 0 18 5 15 10 -3 6 -10 10 -15 10
-5 0 -12 -4 -15 -10z"/>
<path d="M746 748 c-11 -44 -7 -58 17 -57 12 0 16 3 10 6 -7 2 -13 17 -13 33
0 16 6 31 13 33 7 4 6 6 -4 6 -9 1 -19 -9 -23 -21z"/>
<path d="M810 756 c-17 -22 -9 -60 15 -64 12 -2 16 0 9 5 -7 4 -14 19 -15 32
-3 19 2 26 21 32 22 6 23 7 4 8 -12 1 -27 -6 -34 -13z"/>
<path d="M887 763 c-4 -3 -7 -21 -7 -40 0 -28 4 -33 23 -33 20 1 20 2 4 11
-14 8 -16 14 -6 25 8 10 8 14 0 14 -18 0 -13 18 7 23 14 4 14 5 1 6 -9 0 -19
-2 -22 -6z"/>
<path d="M304 736 c-8 -33 2 -46 35 -46 33 0 54 20 42 39 -7 10 -10 9 -16 -8
-4 -12 -15 -21 -27 -21 -17 0 -20 5 -16 30 5 36 -9 40 -18 6z"/>
<path d="M400 732 c0 -17 4 -34 10 -37 6 -4 7 6 3 27 -8 44 -13 48 -13 10z"/>
<path d="M500 724 c0 -19 4 -33 8 -30 8 5 4 66 -4 66 -2 0 -4 -16 -4 -36z"/>
<path d="M670 745 c0 -8 5 -15 10 -15 6 0 10 7 10 15 0 8 -4 15 -10 15 -5 0
-10 -7 -10 -15z"/>
<path d="M706 734 c-4 -15 -2 -32 3 -37 8 -8 11 0 11 26 0 44 -5 47 -14 11z"/>
<path d="M640 723 c0 -18 2 -33 4 -33 9 0 13 39 5 51 -6 10 -9 4 -9 -18z"/>
<path d="M940 741 c0 -6 5 -13 10 -16 15 -10 12 -23 -7 -29 -11 -3 -8 -4 7 -3
31 2 37 28 10 45 -11 7 -20 8 -20 3z"/>
<path d="M1931 734 c0 -11 3 -14 6 -6 3 7 2 16 -1 19 -3 4 -6 -2 -5 -13z"/>
<path d="M227 723 c11 -31 15 -35 23 -22 5 7 2 18 -5 26 -19 18 -26 16 -18 -4z"/>
<path d="M273 724 c-3 -8 -1 -20 6 -27 8 -8 11 -4 11 16 0 30 -7 35 -17 11z"/>
<path d="M550 713 c0 -29 12 -24 17 7 2 11 -2 20 -7 20 -6 0 -10 -12 -10 -27z"/>
<path d="M600 716 c0 -14 5 -26 10 -26 6 0 10 9 10 19 0 11 -4 23 -10 26 -6 4
-10 -5 -10 -19z"/>
<path d="M1264 693 c47 -52 107 -71 242 -78 65 -4 124 -8 131 -10 17 -5 -1
-63 -27 -87 -11 -10 -27 -29 -35 -42 -18 -27 -98 -69 -123 -64 -11 2 -17 13
-18 33 -2 103 -6 133 -19 151 -13 16 -16 17 -25 4 -5 -8 -10 -10 -10 -5 0 6
-6 3 -13 -5 -25 -31 -87 -69 -220 -134 -76 -37 -155 -70 -175 -73 -20 -3 -41
-9 -47 -13 -5 -4 -38 -13 -73 -21 -47 -10 -67 -20 -79 -39 -10 -14 -18 -28
-18 -32 0 -4 -10 -15 -22 -23 -14 -10 -20 -22 -17 -33 15 -45 36 -82 52 -91 9
-5 14 -12 10 -16 -8 -8 -68 22 -88 44 -28 31 -78 107 -93 141 -10 23 -16 28
-16 16 -1 -12 -6 -16 -16 -12 -8 3 -55 6 -105 7 -49 1 -90 5 -90 9 0 13 -39
19 -44 6 -3 -7 -8 -6 -15 4 -6 8 -11 10 -11 4 0 -12 99 -109 145 -141 51 -36
187 -101 257 -124 56 -18 70 -19 83 -9 13 11 13 15 3 23 -9 6 -8 7 5 3 23 -7
158 10 166 22 3 5 36 15 74 22 37 7 84 21 104 31 21 11 43 19 50 19 7 0 13 5
13 10 0 6 5 10 12 10 6 0 19 6 27 14 9 7 39 21 66 31 28 10 70 33 94 52 24 18
49 33 55 33 18 0 58 49 51 61 -5 7 -1 9 13 5 12 -4 26 -1 35 9 9 8 23 15 31
15 9 0 16 6 16 14 0 9 7 12 21 9 18 -5 20 -2 17 23 -3 27 0 29 32 32 19 2 42
10 50 17 9 8 25 12 38 8 39 -10 72 6 87 40 7 17 11 35 9 39 -10 15 -25 8 -34
-17 -5 -13 -20 -27 -34 -31 -25 -6 -66 10 -66 26 0 6 -8 10 -17 10 -9 0 -27
10 -40 22 -20 19 -40 23 -141 29 -118 8 -200 29 -259 65 l-28 18 29 -31z m460
-142 c9 -14 -22 -34 -41 -26 -12 5 -14 9 -5 12 6 3 10 9 6 14 -3 5 4 9 15 9
11 0 22 -4 25 -9z m-1364 -241 c0 -5 -7 -7 -15 -4 -8 4 -15 8 -15 10 0 2 7 4
15 4 8 0 15 -4 15 -10z m368 -224 c-7 -8 -17 -12 -22 -9 -4 3 -2 9 5 14 22 13
31 11 17 -5z m39 -12 c-3 -3 -12 -4 -19 -1 -8 3 -5 6 6 6 11 1 17 -2 13 -5z"/>
</g>
</svg>
