<?xml version="1.0" standalone="no"?>
<!DOCTYPE svg PUBLIC "-//W3C//DTD SVG 20010904//EN"
 "http://www.w3.org/TR/2001/REC-SVG-20010904/DTD/svg10.dtd">
<svg version="1.0" xmlns="http://www.w3.org/2000/svg"
 width="215.000000pt" height="115.000000pt" viewBox="0 0 215.000000 115.000000"
 preserveAspectRatio="xMidYMid meet">
<metadata>
Created by potrace 1.16, written by Peter Selinger 2001-2019
</metadata>
<g transform="translate(0.000000,115.000000) scale(0.100000,-0.100000)"
fill="#000000" stroke="none">
<path d="M2025 1138 c-11 -6 -26 -20 -33 -30 -7 -10 -22 -18 -32 -18 -11 0
-30 -11 -44 -25 -22 -22 -34 -25 -98 -26 -161 -2 -297 -29 -373 -74 -42 -24
-135 -118 -135 -136 0 -5 -11 -9 -25 -9 -18 0 -25 -5 -25 -20 0 -30 -23 -34
-61 -11 -45 28 -82 27 -110 -4 -30 -31 -37 -31 -69 0 l-27 26 -489 -11 c-451
-10 -589 -20 -453 -34 96 -9 960 -39 1101 -37 155 2 232 21 336 85 151 92 288
135 501 160 141 16 156 24 156 87 0 67 -65 109 -120 77z"/>
<path d="M52 924 c-45 -31 -13 -99 45 -92 20 2 29 9 31 26 2 12 -1 22 -7 22
-6 0 -11 -6 -11 -14 0 -22 -19 -30 -35 -16 -35 29 -6 84 38 72 14 -3 18 -1 13
6 -10 17 -48 15 -74 -4z"/>
<path d="M170 885 c0 -54 0 -55 30 -55 17 0 30 5 30 10 0 6 -6 10 -14 10 -26
0 -28 20 -4 29 l23 9 -25 11 -25 10 22 7 c28 8 20 24 -13 24 -23 0 -24 -3 -24
-55z"/>
<path d="M267 934 c-11 -11 -8 -104 3 -104 6 0 10 14 10 32 l0 32 34 -33 c33
-32 33 -32 40 -9 9 35 7 78 -4 78 -5 0 -10 -12 -10 -27 l0 -27 -33 32 c-18 18
-36 29 -40 26z"/>
<path d="M397 933 c-4 -3 -7 -21 -7 -39 0 -55 49 -83 84 -48 18 17 22 79 6 89
-6 4 -10 -9 -10 -32 0 -22 -5 -44 -12 -51 -19 -19 -38 6 -38 49 0 37 -8 48
-23 32z"/>
<path d="M530 885 c0 -30 5 -55 10 -55 6 0 10 25 10 55 0 30 -4 55 -10 55 -5
0 -10 -25 -10 -55z"/>
<path d="M597 893 c-3 -26 -1 -52 4 -57 5 -6 9 2 9 22 0 40 5 40 37 2 13 -17
29 -28 34 -24 12 7 11 94 -1 94 -5 0 -10 -12 -10 -27 l0 -27 -34 33 -33 32 -6
-48z"/>
<path d="M725 928 c-3 -7 -3 -31 -2 -53 2 -35 6 -40 30 -43 15 -2 27 1 27 7 0
6 -7 11 -15 11 -8 0 -15 7 -15 15 0 8 7 15 15 15 8 0 15 5 15 10 0 6 -7 10
-15 10 -8 0 -15 5 -15 10 0 6 7 10 15 10 8 0 15 5 15 10 0 15 -50 12 -55 -2z"/>
<path d="M2044 815 c-15 -23 -15 -27 -1 -49 21 -32 61 -38 87 -14 24 23 25 36
4 66 -22 31 -69 30 -90 -3z m28 -20 c-4 -31 -2 -35 20 -35 18 0 23 5 23 23 -1
13 -5 28 -9 35 -4 7 -3 12 3 12 19 0 33 -38 21 -60 -19 -35 -80 -20 -80 20 0
12 17 40 25 40 1 0 -1 -16 -3 -35z"/>
<path d="M697 693 c-8 -13 -97 -232 -97 -238 0 -3 7 -5 15 -5 8 0 21 16 29 35
14 32 19 35 55 35 36 0 40 -3 51 -35 10 -29 16 -35 41 -35 16 0 29 1 29 3 0 1
-21 56 -47 121 -44 110 -63 140 -76 119z m23 -140 c0 -7 -12 -13 -26 -13 -20
0 -25 4 -20 16 3 9 9 28 13 42 l6 27 13 -30 c7 -16 13 -36 14 -42z"/>
<path d="M1663 693 c-37 -7 -81 -59 -88 -102 -8 -47 14 -104 46 -121 65 -35
141 -34 160 3 10 18 9 19 -7 12 -11 -5 -35 -10 -55 -13 -30 -3 -40 1 -58 23
-29 37 -29 112 0 149 24 30 78 36 100 10 11 -14 13 -14 22 1 6 11 5 21 -1 27
-12 12 -86 19 -119 11z"/>
<path d="M1883 686 c-74 -33 -97 -147 -41 -203 42 -41 161 -53 175 -16 8 19
-5 29 -19 15 -34 -34 -111 0 -124 55 -9 34 5 92 27 114 22 22 78 26 97 7 10
-10 15 -10 22 2 5 9 5 19 0 24 -16 16 -103 17 -137 2z"/>
<path d="M30 570 l0 -120 30 0 c29 0 30 1 30 49 0 47 1 49 34 55 53 10 85 60
64 99 -17 33 -27 37 -95 37 l-63 0 0 -120z m101 76 c13 -29 -3 -66 -29 -66
-14 0 -17 8 -14 45 4 51 25 61 43 21z"/>
<path d="M225 570 l0 -120 68 0 c53 0 67 3 67 15 0 11 -11 15 -40 15 l-40 0 0
40 0 40 40 0 c29 0 40 4 40 15 0 11 -11 15 -41 15 l-40 0 3 38 c3 36 4 37 41
34 28 -3 37 0 37 12 0 13 -13 16 -67 16 l-68 0 0 -120z"/>
<path d="M400 570 l0 -120 29 0 c29 0 30 2 33 53 l3 52 29 -52 c26 -48 33 -53
63 -53 25 0 32 3 27 13 -5 6 -20 32 -36 56 l-27 44 24 19 c16 13 25 30 25 48
0 47 -22 60 -101 60 l-69 0 0 -120z m108 61 c3 -33 -9 -51 -35 -51 -9 0 -13
16 -13 46 0 41 2 45 23 42 17 -2 23 -11 25 -37z"/>
<path d="M850 570 c0 -99 3 -120 15 -120 11 0 15 18 17 81 l3 82 70 -81 c91
-105 105 -106 105 -8 0 40 3 94 6 120 6 42 5 46 -15 46 -20 0 -21 -5 -21 -77
l0 -78 -71 78 c-41 45 -79 77 -90 77 -18 0 -19 -8 -19 -120z"/>
<path d="M1100 675 c0 -10 10 -15 30 -15 l30 0 0 -105 0 -105 30 0 30 0 0 110
0 110 30 -6 c23 -5 30 -3 30 10 0 14 -14 16 -90 16 -73 0 -90 -3 -90 -15z"/>
<path d="M1320 597 c0 -107 11 -131 68 -147 48 -12 107 3 126 33 8 12 17 64
21 115 6 89 6 92 -14 92 -20 0 -21 -6 -21 -82 0 -98 -14 -132 -54 -136 -52 -6
-66 19 -66 125 l0 93 -30 0 -30 0 0 -93z"/>
<path d="M2065 570 l0 -120 30 0 30 0 0 120 0 120 -30 0 -30 0 0 -120z"/>
<path d="M910 419 c-80 -4 -293 -12 -475 -18 -358 -13 -438 -18 -430 -30 6
-11 336 -21 701 -23 l291 -1 32 24 c30 22 33 23 45 7 7 -10 26 -24 41 -32 27
-14 32 -13 76 11 50 27 69 25 69 -8 0 -14 7 -19 25 -19 14 0 25 -4 25 -9 0 -6
25 -36 55 -69 37 -40 73 -67 112 -85 73 -33 212 -57 326 -57 80 0 90 -2 113
-25 14 -14 35 -25 47 -25 12 0 28 -9 35 -20 10 -16 23 -20 66 -20 64 0 81 15
81 71 0 60 -15 68 -161 84 -177 21 -321 62 -436 126 -51 28 -98 55 -103 60 -6
4 -52 22 -103 39 -101 34 -111 34 -432 19z"/>
<path d="M182 304 c-31 -22 -27 -74 7 -91 20 -9 30 -9 53 3 15 8 28 22 28 32
0 12 4 10 13 -8 13 -25 52 -37 73 -23 17 12 25 93 10 93 -8 0 -13 -15 -14 -37
-3 -68 -42 -71 -42 -2 0 28 -4 39 -15 39 -8 0 -15 -9 -15 -20 0 -18 -2 -17
-25 5 -28 29 -42 31 -73 9z m53 -44 c0 -25 -5 -36 -18 -38 -22 -4 -39 36 -25
61 16 31 43 16 43 -23z"/>
<path d="M390 308 c0 -4 5 -8 10 -8 6 0 10 -20 10 -45 0 -33 4 -45 15 -45 11
0 15 12 15 45 0 25 5 45 10 45 6 0 10 4 10 8 0 4 -16 8 -35 8 -19 0 -35 -4
-35 -8z"/>
<path d="M608 313 c-24 -6 -26 -103 -3 -103 8 0 15 8 15 18 0 9 9 23 20 30 24
15 26 47 4 56 -9 3 -16 5 -17 5 -1 -1 -10 -3 -19 -6z m27 -22 c3 -5 1 -12 -5
-16 -5 -3 -10 1 -10 9 0 18 6 21 15 7z"/>
<path d="M680 265 c0 -30 5 -55 10 -55 6 0 10 25 10 55 0 30 -4 55 -10 55 -5
0 -10 -25 -10 -55z"/>
<path d="M724 311 c-2 -2 -4 -26 -4 -53 0 -47 1 -48 30 -48 17 0 30 5 30 10 0
6 -7 10 -15 10 -8 0 -15 7 -15 16 0 10 6 14 15 10 9 -3 15 0 15 9 0 8 -7 15
-15 15 -8 0 -15 5 -15 10 0 6 7 10 15 10 8 0 15 4 15 9 0 9 -47 10 -56 2z"/>
<path d="M823 305 c-27 -19 -34 -49 -17 -73 18 -26 49 -33 71 -16 16 13 16 14
-9 8 -23 -5 -29 -2 -37 17 -12 32 5 62 30 56 23 -6 35 9 13 17 -22 9 -27 8
-51 -9z"/>
<path d="M905 312 c-3 -3 -5 -27 -5 -54 0 -47 1 -48 30 -48 17 0 30 5 30 10 0
6 -7 10 -15 10 -21 0 -19 30 3 30 16 1 16 1 0 14 -23 17 -23 26 -1 26 9 0 13
3 9 7 -8 8 -44 12 -51 5z"/>
<path d="M982 308 c-18 -18 -15 -36 8 -50 11 -7 20 -19 20 -26 0 -9 -7 -11
-20 -7 -11 4 -20 2 -20 -4 0 -16 46 -13 59 3 15 17 5 44 -20 51 -25 8 -24 25
2 25 11 0 17 5 14 10 -8 14 -28 13 -43 -2z"/>
<path d="M36 279 c-9 -45 -8 -69 3 -69 5 0 11 12 13 28 l3 27 17 -30 16 -30
13 29 c13 29 14 29 19 6 8 -35 30 -37 30 -3 0 38 -10 73 -21 73 -5 0 -15 -11
-21 -25 -6 -14 -15 -25 -19 -25 -5 0 -11 11 -15 25 -9 35 -30 31 -38 -6z"/>
<path d="M480 259 c0 -36 4 -49 12 -47 7 3 13 13 13 24 0 10 8 20 18 22 13 3
17 -3 17 -22 0 -16 6 -26 15 -26 11 0 15 12 15 50 0 38 -4 50 -15 50 -8 0 -15
-7 -15 -15 0 -8 -9 -15 -20 -15 -11 0 -20 7 -20 15 0 8 -4 15 -10 15 -5 0 -10
-23 -10 -51z"/>
</g>
</svg>
