<?xml version="1.0" standalone="no"?>
<!DOCTYPE svg PUBLIC "-//W3C//DTD SVG 20010904//EN"
 "http://www.w3.org/TR/2001/REC-SVG-20010904/DTD/svg10.dtd">
<svg version="1.0" xmlns="http://www.w3.org/2000/svg"
 width="200.000000pt" height="196.000000pt" viewBox="0 0 200.000000 196.000000"
 preserveAspectRatio="xMidYMid meet">

<g transform="translate(0.000000,196.000000) scale(0.100000,-0.100000)"
fill="#000000" stroke="none">
<path d="M1823 1348 c-14 -31 -15 -31 -169 -52 -136 -19 -183 -34 -302 -98
-152 -81 -193 -94 -297 -91 -49 2 -234 5 -410 7 l-320 4 265 -13 c146 -7 337
-14 425 -15 183 -2 189 -1 348 84 116 61 175 80 302 96 149 19 153 20 165 35
6 7 10 26 8 42 l-3 28 -12 -27z"/>
<path d="M217 1233 c-10 -9 -9 -51 1 -57 5 -3 8 11 8 29 -1 19 -1 35 -2 35 0
0 -4 -3 -7 -7z"/>
<path d="M490 1212 c0 -17 4 -34 10 -37 6 -4 7 6 3 27 -8 44 -13 48 -13 10z"/>
<path d="M590 1204 c0 -19 4 -33 8 -30 8 5 4 66 -4 66 -2 0 -4 -16 -4 -36z"/>
<path d="M400 1222 c0 -5 11 -19 25 -32 17 -16 25 -19 25 -9 -1 15 -50 56 -50
41z"/>
<path d="M660 1222 c0 -10 33 -42 43 -42 14 0 5 16 -18 33 -14 10 -25 14 -25
9z"/>
<path d="M310 1195 c0 -19 5 -25 23 -25 20 1 20 2 5 11 -10 5 -18 14 -18 19 0
5 8 11 18 13 13 4 11 5 -5 6 -18 1 -23 -4 -23 -24z"/>
<path d="M743 1204 c-3 -8 -1 -20 6 -27 8 -8 11 -6 11 10 0 12 6 24 13 26 7 3
5 6 -6 6 -10 1 -20 -6 -24 -15z"/>
<path d="M381 1194 c0 -11 3 -14 6 -6 3 7 2 16 -1 19 -3 4 -6 -2 -5 -13z"/>
<path d="M641 1194 c0 -11 3 -14 6 -6 3 7 2 16 -1 19 -3 4 -6 -2 -5 -13z"/>
<path d="M267 1193 c-4 -3 -7 -11 -7 -17 0 -6 5 -5 12 2 6 6 9 14 7 17 -3 3
-9 2 -12 -2z"/>
<path d="M1826 1157 c3 -10 9 -15 12 -12 3 3 0 11 -7 18 -10 9 -11 8 -5 -6z"/>
<path d="M1881 1142 c15 -25 5 -65 -25 -97 l-24 -25 -6 22 -7 23 -17 -24 c-18
-27 -25 -161 -9 -172 5 -4 -4 -22 -21 -40 -51 -60 -65 -105 -41 -139 9 -13 10
-13 8 0 -3 32 1 51 11 45 6 -3 10 3 10 14 0 12 7 21 15 21 8 0 15 6 15 14 0 8
12 24 28 36 15 12 26 23 24 23 -9 5 20 58 33 63 8 3 12 10 9 16 -7 11 45 90
56 83 3 -2 6 17 5 43 -1 58 -28 112 -55 112 -17 0 -18 -3 -9 -18z m-41 -178
c0 -8 -5 -12 -10 -9 -6 4 -8 11 -5 16 9 14 15 11 15 -7z"/>
<path d="M1797 1143 c-11 -10 -8 -20 7 -26 10 -4 12 0 9 14 -6 21 -7 22 -16
12z"/>
<path d="M228 1043 c-11 -12 -17 -44 -19 -93 -4 -65 -2 -75 14 -78 13 -3 17 4
18 27 1 17 2 37 3 44 0 6 13 13 28 15 41 5 68 51 46 79 -15 18 -40 4 -32 -19
7 -22 -11 -48 -33 -48 -12 0 -14 10 -11 45 2 25 3 45 2 45 0 0 -8 -8 -16 -17z"/>
<path d="M382 1043 c-17 -15 -21 -32 -24 -93 l-3 -74 45 -1 c25 0 46 5 47 10
1 6 -8 9 -21 7 -19 -2 -25 3 -29 25 -7 36 -2 43 34 43 16 0 29 5 29 10 0 6
-13 10 -29 10 -35 0 -42 8 -34 38 4 16 13 22 34 22 16 0 29 5 29 10 0 17 -56
11 -78 -7z"/>
<path d="M516 1041 c-13 -14 -17 -33 -15 -70 2 -28 0 -54 -4 -57 -4 -4 -7 -16
-7 -26 0 -14 6 -19 23 -16 19 3 22 9 21 41 -1 20 1 37 5 37 3 0 15 -17 26 -38
12 -23 29 -38 43 -40 28 -4 28 5 -2 48 l-24 35 20 22 c25 27 18 73 -10 70 -14
-1 -17 -8 -14 -32 4 -36 -23 -69 -38 -46 -12 20 -5 72 11 82 11 7 11 9 -2 9
-9 0 -24 -9 -33 -19z"/>
<path d="M988 1040 c-4 -14 -8 -42 -8 -62 0 -21 -3 -38 -8 -38 -4 0 -27 25
-52 56 -38 47 -46 53 -56 40 -6 -9 -14 -13 -17 -9 -4 3 -8 -24 -8 -60 -1 -37
-2 -72 -3 -79 -1 -6 5 -13 12 -15 9 -4 12 13 12 63 l0 68 64 -69 c35 -39 67
-67 70 -64 4 4 5 49 4 100 -2 60 -6 85 -10 69z"/>
<path d="M1030 1050 c0 -5 9 -10 19 -10 11 0 23 5 26 10 4 6 -5 10 -19 10 -14
0 -26 -4 -26 -10z"/>
<path d="M1100 1045 c-18 -21 -19 -166 -2 -172 22 -9 25 3 23 87 -2 80 -2 80
23 80 15 0 26 5 26 10 0 16 -56 12 -70 -5z"/>
<path d="M1222 1040 c-18 -29 -15 -135 4 -154 16 -17 89 -22 112 -8 7 5 17 24
22 43 13 45 13 142 0 134 -5 -3 -10 -34 -10 -69 0 -68 -17 -96 -57 -96 -34 0
-48 28 -48 96 -1 71 -5 82 -23 54z"/>
<path d="M1446 1031 c-36 -37 -46 -103 -21 -131 20 -23 73 -35 110 -26 38 10
30 26 -10 19 -26 -4 -41 -1 -55 12 -28 25 -27 93 0 123 22 23 54 29 65 12 9
-15 25 -12 25 5 0 11 -11 15 -43 15 -35 0 -49 -6 -71 -29z"/>
<path d="M1634 1038 c-24 -28 -44 -72 -44 -99 0 -35 44 -69 89 -69 22 0 46 3
55 6 29 11 7 22 -33 17 -32 -4 -41 -2 -55 18 -24 35 -21 85 9 114 25 26 50 32
60 15 10 -15 35 -12 35 5 0 11 -12 15 -48 15 -38 0 -53 -5 -68 -22z"/>
<path d="M730 1040 c0 -5 -9 -19 -20 -30 -11 -11 -20 -28 -19 -37 0 -14 3 -13
11 5 14 28 20 28 35 -3 13 -29 4 -38 -30 -30 -20 5 -28 0 -45 -29 -13 -22 -17
-38 -11 -42 12 -7 11 -8 27 29 10 24 17 28 44 25 25 -2 34 -9 38 -28 4 -16 14
-26 28 -28 12 -2 22 0 22 5 0 16 -65 173 -72 173 -5 0 -8 -4 -8 -10z"/>
<path d="M1880 860 c-6 -11 -7 -20 -2 -20 6 0 12 9 15 20 3 11 3 20 1 20 -2 0
-8 -9 -14 -20z"/>
<path d="M945 820 c-11 -5 -166 -10 -345 -11 -306 -2 -315 -3 -150 -10 96 -3
249 -7 338 -8 150 -1 166 1 189 19 22 17 23 20 7 19 -11 0 -28 -4 -39 -9z"/>
<path d="M1077 819 c-10 -6 -27 -9 -38 -6 -26 7 -24 -8 4 -20 24 -11 59 -2 83
22 14 13 13 15 -8 15 -13 0 -31 -5 -41 -11z"/>
<path d="M1165 790 c-4 -6 3 -10 14 -10 25 0 27 6 6 13 -8 4 -17 2 -20 -3z"/>
<path d="M746 754 c-3 -9 -6 -27 -6 -40 0 -18 5 -24 23 -23 12 0 16 3 10 6 -7
2 -13 17 -13 33 0 16 6 31 13 33 7 4 6 6 -4 6 -9 1 -20 -6 -23 -15z"/>
<path d="M810 756 c-17 -22 -9 -60 15 -64 12 -2 16 0 9 5 -7 4 -14 19 -15 32
-3 19 2 26 21 32 22 6 23 7 4 8 -12 1 -27 -6 -34 -13z"/>
<path d="M880 730 l0 -40 45 0 c33 0 47 5 52 16 7 19 -24 47 -40 37 -6 -4 -3
-11 6 -18 24 -18 21 -25 -11 -25 -35 0 -45 9 -31 27 9 9 8 13 0 13 -18 0 -13
18 7 23 13 4 11 5 -5 6 -20 1 -23 -4 -23 -39z"/>
<path d="M307 753 c-13 -12 -7 -51 9 -57 27 -10 51 -7 64 9 9 11 10 19 3 26
-8 8 -13 5 -18 -10 -4 -12 -15 -21 -27 -21 -17 0 -20 5 -16 30 4 29 -1 37 -15
23z"/>
<path d="M401 733 c-1 -17 4 -35 10 -38 16 -10 16 -3 3 35 l-13 35 0 -32z"/>
<path d="M500 724 c0 -19 4 -33 8 -30 8 5 4 66 -4 66 -2 0 -4 -16 -4 -36z"/>
<path d="M670 744 c0 -8 5 -12 10 -9 6 3 10 10 10 16 0 5 -4 9 -10 9 -5 0 -10
-7 -10 -16z"/>
<path d="M706 734 c-4 -15 -2 -32 3 -37 8 -8 11 0 11 26 0 44 -5 47 -14 11z"/>
<path d="M640 723 c0 -18 2 -33 4 -33 9 0 13 39 5 51 -6 10 -9 4 -9 -18z"/>
<path d="M228 719 c10 -25 26 -27 30 -3 3 10 0 14 -7 10 -6 -4 -11 -2 -11 3 0
6 -4 11 -10 11 -5 0 -6 -9 -2 -21z"/>
<path d="M270 721 c0 -11 5 -23 10 -26 6 -3 10 3 10 14 0 11 -4 23 -10 26 -5
3 -10 -3 -10 -14z"/>
<path d="M550 713 c0 -29 12 -24 17 7 2 11 -2 20 -7 20 -6 0 -10 -12 -10 -27z"/>
<path d="M600 716 c0 -14 5 -26 10 -26 6 0 10 9 10 19 0 11 -4 23 -10 26 -6 4
-10 -5 -10 -19z"/>
<path d="M1260 694 c44 -53 155 -83 310 -84 68 0 97 -10 86 -29 -4 -7 8 -13
34 -17 22 -4 40 -12 40 -19 0 -16 43 -27 75 -19 28 7 45 31 45 63 0 29 -18 26
-30 -4 -5 -13 -20 -27 -34 -31 -25 -6 -66 10 -66 26 0 6 -8 10 -17 10 -9 0
-27 10 -40 22 -20 19 -40 23 -141 29 -112 7 -193 26 -237 56 -26 18 -40 17
-25 -3z"/>
<path d="M1410 550 c0 -14 -4 -20 -8 -14 -4 6 -19 13 -34 16 -22 4 -28 1 -32
-18 -4 -13 -11 -36 -17 -51 l-10 -28 -20 25 -19 25 -6 -22 c-3 -12 -15 -25
-25 -28 -10 -4 -18 -11 -16 -17 1 -6 -6 -12 -15 -13 -10 -2 -18 1 -18 6 0 17
-21 9 -44 -16 -25 -27 -46 -33 -46 -13 0 9 -3 9 -12 0 -10 -10 -10 -17 1 -34
12 -19 11 -20 -6 -13 -34 16 -74 8 -112 -23 -25 -20 -42 -27 -51 -22 -9 5 -20
4 -28 -2 -9 -8 -16 -8 -24 0 -22 22 -41 14 -35 -14 3 -19 1 -24 -10 -20 -8 3
-24 6 -34 6 -13 0 -17 4 -13 11 4 7 1 10 -7 7 -8 -3 -13 -12 -11 -21 1 -8 -6
-18 -16 -21 -21 -7 -26 -42 -10 -73 8 -17 14 -20 24 -12 10 8 18 7 31 -6 16
-17 18 -17 27 4 8 20 15 22 58 25 9 1 20 4 24 8 11 12 46 10 39 -2 -11 -17 10
-11 26 9 9 10 35 21 58 25 22 3 41 11 41 17 0 7 12 9 30 7 19 -3 30 0 30 8 0
6 30 24 68 40 37 15 75 34 84 42 9 8 25 11 37 7 13 -4 27 1 39 13 17 17 20 18
31 3 10 -14 11 -13 7 8 -3 17 0 25 15 28 10 3 19 12 19 19 0 8 5 14 10 14 6 0
8 21 4 58 -7 59 -24 96 -24 52z"/>
<path d="M1600 509 c0 -5 5 -7 10 -4 6 3 10 8 10 11 0 2 -4 4 -10 4 -5 0 -10
-5 -10 -11z"/>
<path d="M1445 400 c-8 -13 5 -13 25 0 13 8 13 10 -2 10 -9 0 -20 -4 -23 -10z"/>
<path d="M379 250 c35 -33 91 -73 124 -90 54 -27 63 -29 73 -15 13 18 64 20
64 3 0 -9 3 -9 12 0 7 7 16 12 20 12 12 0 9 -28 -3 -32 -7 -2 4 -4 23 -4 l35
0 -31 32 c-17 17 -42 45 -55 62 -13 17 -28 29 -33 26 -4 -3 -5 3 -1 12 4 11 3
15 -5 10 -6 -3 -14 -1 -18 5 -4 8 -9 7 -15 -2 -7 -11 -9 -9 -9 6 -1 19 -1 19
-14 2 -14 -18 -15 -18 -25 0 -10 17 -12 17 -24 1 -12 -15 -17 -15 -39 -4 -20
11 -28 11 -43 0 -25 -19 -29 -18 -56 11 -13 13 -28 25 -34 24 -5 0 19 -27 54
-59z m178 -96 c-3 -3 -12 -4 -19 -1 -8 3 -5 6 6 6 11 1 17 -2 13 -5z"/>
<path d="M1241 294 c0 -11 3 -14 6 -6 3 7 2 16 -1 19 -3 4 -6 -2 -5 -13z"/>
<path d="M1170 280 c-12 -8 -11 -10 7 -10 12 0 25 5 28 10 8 13 -15 13 -35 0z"/>
<path d="M830 150 c0 -5 5 -10 10 -10 6 0 10 5 10 10 0 6 -4 10 -10 10 -5 0
-10 -4 -10 -10z"/>
</g>
</svg>
