<?xml version="1.0" standalone="no"?>
<!DOCTYPE svg PUBLIC "-//W3C//DTD SVG 20010904//EN"
 "http://www.w3.org/TR/2001/REC-SVG-20010904/DTD/svg10.dtd">
<svg version="1.0" xmlns="http://www.w3.org/2000/svg"
 width="400.000000pt" height="290.000000pt" viewBox="0 0 400.000000 290.000000"
 preserveAspectRatio="xMidYMid meet">

<g transform="translate(0.000000,290.000000) scale(0.100000,-0.100000)"
fill="#000000" stroke="none">
<path d="M1472 2780 c-13 -16 -31 -30 -42 -30 -26 0 -26 -16 -1 -30 16 -8 19
-17 14 -46 l-6 -36 29 15 c25 13 32 13 49 1 28 -21 35 -17 28 16 -4 24 0 37
17 55 l23 25 -25 0 c-18 0 -32 9 -45 30 l-19 30 -22 -30z"/>
<path d="M2084 2792 c-6 -4 -19 -22 -28 -39 -14 -28 -22 -33 -51 -33 -25 0
-35 5 -40 20 -15 48 -68 66 -99 34 -21 -21 -20 -61 2 -73 15 -9 13 -14 -21
-43 -79 -69 -66 -184 27 -229 27 -14 52 -37 70 -65 45 -71 89 -71 132 1 17 31
34 46 54 50 38 8 87 65 96 110 13 72 -11 122 -74 155 l-24 12 21 14 c31 22 28
68 -4 82 -30 14 -45 15 -61 4z m65 -30 c14 -26 -2 -46 -33 -40 -22 4 -26 2
-26 -19 0 -17 8 -26 28 -33 51 -19 70 -32 81 -57 16 -35 13 -91 -6 -124 -17
-29 -67 -59 -97 -59 -9 0 -16 -6 -16 -13 0 -7 -11 -29 -25 -50 -35 -50 -58
-48 -95 9 -19 31 -43 53 -69 65 -45 20 -70 52 -77 100 -7 44 27 97 79 122 46
23 52 57 10 54 -24 -2 -28 2 -28 23 0 21 5 25 30 25 29 0 30 -2 33 -50 3 -50
2 -50 -38 -67 -54 -22 -78 -73 -61 -130 12 -37 50 -68 85 -68 9 0 24 -17 35
-38 23 -46 46 -66 62 -57 6 4 20 27 31 51 13 31 25 44 39 44 56 0 98 48 99
111 0 53 -26 85 -77 95 -32 6 -43 25 -43 71 0 45 59 72 79 35z m-149 -187 c0
-58 -3 -105 -7 -105 -5 0 -7 47 -5 105 2 58 5 105 8 105 2 0 4 -47 4 -105z
m30 0 c0 -63 -4 -105 -10 -105 -11 0 -14 192 -3 203 12 13 13 7 13 -98z m-76
52 c14 -10 16 -25 14 -82 -3 -68 -4 -70 -31 -73 -32 -4 -87 44 -87 77 0 63 61
109 104 78z m193 -2 c47 -33 37 -123 -17 -145 -54 -23 -64 -13 -70 68 -3 40
-1 77 5 83 14 14 58 11 82 -6z m-113 -204 c3 -4 -1 -16 -8 -27 -12 -15 -16
-16 -30 -5 -24 20 -20 41 8 41 14 0 27 -4 30 -9z"/>
<path d="M2104 2759 c-8 -14 11 -33 25 -25 6 4 11 11 11 16 0 13 -29 20 -36 9z"/>
<path d="M1884 2749 c-10 -17 13 -36 27 -22 12 12 4 33 -11 33 -5 0 -12 -5
-16 -11z"/>
<path d="M772 2573 l-63 -4 48 -45 c26 -25 72 -56 101 -69 36 -17 52 -31 52
-44 0 -35 -23 -43 -91 -31 -76 14 -211 14 -272 0 -65 -14 -187 -61 -187 -71 0
-27 151 -79 228 -79 35 0 53 -18 46 -46 -4 -15 -25 -25 -95 -43 -50 -13 -120
-38 -157 -56 -63 -30 -195 -127 -236 -173 -18 -21 -18 -22 0 -29 11 -4 48 -8
84 -8 68 1 79 5 233 89 37 21 71 36 76 34 13 -4 -38 -77 -70 -101 -22 -16 -30
-17 -49 -7 -18 10 -25 9 -37 -2 -12 -13 -11 -17 12 -32 l26 -17 -58 -43 c-85
-63 -203 -192 -241 -262 -32 -61 -41 -104 -22 -104 23 0 110 39 153 69 28 19
44 26 41 17 -4 -10 3 -20 20 -28 15 -6 25 -16 22 -22 -70 -152 -81 -191 -81
-291 0 -88 3 -107 27 -158 17 -37 32 -56 39 -51 30 18 99 244 99 323 0 38 17
41 30 5 16 -41 12 -94 -10 -121 -15 -20 -17 -29 -9 -39 16 -20 28 -17 39 8 6
16 9 -26 9 -124 1 -81 6 -171 12 -200 25 -117 100 -268 133 -268 31 0 35 192
6 301 -11 41 -20 87 -20 103 0 24 2 27 15 16 28 -23 75 -104 75 -128 0 -14 -7
-33 -14 -41 -18 -20 -5 -47 18 -38 11 4 16 19 16 44 0 62 19 25 57 -109 65
-233 143 -351 275 -418 61 -30 63 -31 66 -10 10 64 -72 216 -207 388 -40 51
-71 95 -69 97 8 8 199 -127 215 -151 9 -15 12 -34 8 -52 -7 -34 16 -50 36 -26
9 11 8 18 -5 32 -17 20 -21 42 -7 42 14 0 82 -86 140 -177 82 -128 180 -205
334 -259 44 -16 46 -9 17 53 -35 79 -81 133 -171 204 -50 39 -88 73 -86 75 5
6 148 -45 164 -58 6 -5 15 -23 18 -39 5 -20 13 -29 26 -29 24 0 24 17 2 43
-18 20 -18 20 16 1 18 -10 44 -35 56 -54 53 -83 209 -196 338 -245 68 -25 127
-33 127 -16 0 6 -39 50 -87 99 -75 75 -104 96 -191 141 -57 29 -101 55 -99 57
6 7 111 -12 175 -31 39 -12 55 -23 71 -51 19 -31 24 -34 37 -23 14 12 14 15
-6 31 -13 10 -20 21 -17 24 11 12 92 -36 182 -107 158 -124 249 -162 370 -157
l67 3 -81 93 c-45 52 -81 97 -81 100 0 4 4 13 8 20 7 10 19 7 53 -12 117 -65
488 -120 483 -71 0 6 -34 28 -75 50 -73 40 -91 63 -70 89 9 11 19 11 54 -2 32
-12 81 -16 202 -16 142 0 166 3 216 22 31 12 64 31 74 42 19 21 22 20 -113 50
-59 14 -66 21 -58 56 6 23 10 24 92 24 96 0 183 19 258 57 57 28 146 93 146
105 0 4 -35 8 -79 8 -59 0 -82 4 -91 16 -19 22 2 38 80 59 151 40 273 124 306
211 9 25 15 46 13 48 -2 2 -73 -26 -157 -62 -83 -36 -155 -62 -158 -59 -10 10
43 75 66 82 12 4 27 1 35 -5 16 -14 35 -5 35 16 0 8 -10 14 -22 14 -19 0 -8
14 55 72 84 76 116 127 141 225 22 85 21 88 -17 64 l-34 -21 -21 23 c-29 30
-28 42 9 156 l31 96 -11 141 c-6 78 -11 152 -11 164 0 64 -71 -77 -97 -192
-10 -43 -20 -78 -23 -78 -3 0 -18 38 -33 85 -18 54 -42 102 -66 133 -80 101
-224 208 -271 200 -19 -3 -17 -10 27 -85 62 -108 170 -241 242 -301 55 -46 57
-49 35 -59 -20 -9 -28 -5 -65 33 -24 24 -47 44 -53 44 -14 0 0 -107 23 -172
11 -31 47 -109 80 -173 60 -115 72 -162 51 -195 -8 -13 -12 -12 -25 7 -9 12
-22 20 -29 17 -9 -4 -15 10 -19 48 -5 51 -24 108 -36 108 -9 0 -70 -150 -87
-212 -8 -30 -14 -100 -14 -161 0 -106 -13 -165 -40 -182 -17 -10 -23 1 -12 22
13 25 4 43 -20 43 -17 0 -19 -5 -13 -38 5 -33 2 -43 -28 -81 -46 -58 -137
-130 -137 -108 0 2 29 47 64 100 64 95 116 223 116 283 l0 25 -32 -22 c-110
-77 -201 -214 -214 -320 -4 -40 -14 -65 -35 -90 -26 -31 -28 -32 -29 -11 0 25
-12 29 -29 9 -8 -10 -7 -17 1 -25 9 -9 7 -17 -8 -33 -22 -25 -131 -82 -146
-77 -6 2 26 43 70 91 67 72 86 100 110 164 37 95 27 104 -54 48 -88 -61 -200
-189 -250 -287 -29 -56 -71 -90 -85 -67 -5 8 -8 19 -8 24 0 6 3 4 6 -3 5 -13
23 -7 23 9 0 6 -10 9 -22 7 -17 -2 -23 -10 -23 -27 0 -20 -9 -27 -54 -42 -69
-24 -151 -35 -151 -21 0 6 34 27 75 47 88 42 184 127 226 199 16 28 29 54 29
59 0 21 -74 2 -158 -39 -79 -40 -108 -62 -197 -150 -58 -57 -110 -104 -116
-104 -6 0 -13 9 -16 19 -8 32 -31 33 -45 3 -11 -23 -24 -29 -84 -41 -93 -19
-131 -6 -59 19 122 42 220 109 271 184 19 28 34 56 34 63 0 20 -61 16 -136 -9
-62 -20 -112 -51 -288 -181 -45 -33 -80 -51 -107 -54 -33 -5 -41 -3 -37 8 2 8
14 15 26 17 24 4 31 37 10 44 -19 7 -38 -2 -38 -17 0 -31 -82 -44 -164 -26
-44 9 -43 29 1 36 73 12 166 36 197 52 55 27 136 93 136 110 0 14 -11 15 -86
9 -130 -10 -220 -33 -316 -81 -87 -44 -188 -69 -188 -46 0 6 11 11 25 11 16 0
25 6 25 15 0 26 -30 29 -55 5 -21 -19 -31 -22 -70 -17 -26 4 -65 15 -88 25
l-42 18 107 7 c58 4 128 14 155 23 52 17 143 71 143 84 0 14 -136 40 -209 40
-52 0 -96 -8 -168 -32 -106 -34 -179 -40 -228 -17 l-30 13 33 4 c23 2 32 8 32
22 0 30 -19 34 -45 10 l-24 -23 -65 32 c-67 33 -166 105 -166 120 0 5 39 -7
88 -27 85 -36 91 -37 212 -37 95 0 134 4 163 17 20 9 37 21 37 26 0 5 -39 27
-88 50 -99 47 -180 61 -343 60 -88 -2 -102 1 -155 28 -32 16 -60 36 -63 44 -3
12 0 11 16 -2 29 -27 53 -23 53 8 0 23 -3 26 -27 21 -48 -9 -103 36 -147 121
-25 48 -13 51 36 8 83 -70 163 -124 211 -140 58 -19 157 -22 157 -4 0 7 -38
50 -85 95 -70 69 -100 90 -182 128 -175 82 -223 118 -223 164 l0 26 19 -24
c12 -16 24 -22 35 -18 26 10 18 32 -16 48 -44 19 -62 72 -53 158 4 35 10 59
15 55 4 -5 17 -39 29 -76 40 -122 154 -246 267 -288 25 -10 25 -9 19 22 -4 18
-29 80 -57 138 -42 86 -62 116 -116 168 -37 34 -74 75 -84 90 -20 30 -25 126
-8 137 5 3 10 -3 10 -13 0 -23 25 -46 40 -37 15 9 12 41 -5 55 -8 7 -15 20
-15 29 0 22 57 141 67 141 5 0 7 -44 5 -99 -4 -81 0 -111 18 -168 24 -76 59
-144 76 -150 7 -2 19 25 30 64 26 93 26 269 0 379 -17 76 -18 82 -1 113 9 18
19 30 22 27 4 -3 0 -17 -7 -31 -16 -29 -3 -49 24 -39 13 5 15 14 10 41 -6 30
-2 39 27 70 30 30 78 63 93 63 3 0 -11 -26 -31 -57 -58 -91 -73 -141 -73 -242
0 -48 5 -103 11 -120 l12 -33 40 69 c64 110 95 183 112 263 18 89 42 158 63
182 22 26 34 11 15 -18 -11 -18 -13 -28 -5 -36 18 -18 45 -1 39 24 -3 12 -2
29 4 40 12 23 65 50 90 46 17 -3 13 -10 -27 -58 -71 -85 -107 -168 -112 -262
-3 -43 -1 -78 3 -78 15 0 114 81 138 113 31 42 60 99 92 183 53 142 93 173
232 182 46 2 83 8 83 13 0 4 -16 13 -35 19 -29 10 -44 9 -82 -4 -83 -28 -161
-21 -314 29 -146 48 -165 50 -377 38z m333 -40 c33 -8 68 -20 79 -25 20 -11
19 -11 -4 -20 -14 -5 -54 -7 -90 -4 -58 5 -61 4 -25 -5 22 -6 51 -13 65 -16
23 -5 24 -6 5 -13 -28 -12 -132 -11 -184 1 -24 5 -74 27 -109 49 -59 35 -63
39 -41 44 71 17 214 11 304 -11z m-19 -128 c-27 -20 -119 -20 -136 0 -11 13
-2 15 71 15 76 -1 82 -2 65 -15z m126 -52 c-27 -39 -64 -114 -59 -120 3 -2 21
22 40 54 41 67 77 105 77 82 0 -47 -148 -286 -191 -309 -30 -17 -34 -7 -22 59
16 81 59 166 115 225 50 52 74 57 40 9z m-399 10 c49 -10 28 -20 -69 -33 -116
-15 -112 -30 6 -20 127 11 122 -6 -10 -37 -119 -27 -245 -20 -300 17 -13 9
-12 12 5 26 22 16 101 41 173 54 45 8 135 5 195 -7z m77 -192 c-18 -38 -30
-75 -28 -82 2 -6 17 17 33 52 30 69 55 112 61 106 2 -2 -10 -50 -26 -107 -30
-99 -80 -212 -99 -224 -14 -9 -25 77 -17 137 4 29 15 70 25 92 19 43 70 109
78 101 3 -3 -9 -36 -27 -75z m-344 -60 c-4 -5 -40 -28 -80 -50 -108 -59 -102
-67 9 -15 53 25 101 44 107 42 21 -7 -95 -90 -187 -133 -90 -43 -190 -73 -202
-61 -13 13 22 57 76 94 70 49 128 79 211 108 75 27 73 27 66 15z m2919 -96
c100 -67 189 -170 210 -245 5 -18 -10 -6 -55 43 -34 37 -65 66 -67 63 -3 -3
18 -33 46 -68 28 -34 51 -66 51 -70 0 -39 -129 92 -209 213 -84 125 -81 133
24 64z m-2758 -12 c18 -106 6 -353 -16 -353 -13 0 -58 117 -70 182 -6 37 -7
77 -1 114 16 95 27 89 36 -17 11 -120 23 -115 24 9 0 117 13 147 27 65z m3129
-168 c12 -63 -1 -277 -19 -315 -16 -35 -16 -34 -12 55 4 90 -3 76 -19 -38 -5
-30 -11 -45 -18 -41 -19 12 -3 240 22 312 12 34 26 62 30 62 5 0 12 -16 16
-35z m-3499 -124 c-37 -38 -67 -74 -67 -80 0 -21 35 6 80 59 23 27 46 50 51
50 19 0 -42 -100 -96 -159 -65 -69 -177 -135 -183 -106 -2 9 9 35 24 58 37 54
242 262 251 254 3 -4 -24 -38 -60 -76z m64 -113 c-12 -54 -34 -98 -50 -98 -5
0 -16 11 -24 24 -15 22 -14 26 31 79 26 31 48 54 50 52 2 -2 -1 -27 -7 -57z
m3274 -58 c12 -25 26 -61 30 -80 3 -19 9 -43 11 -52 10 -33 -14 -18 -30 20
-15 34 -16 34 -12 7 3 -16 8 -41 11 -55 6 -24 6 -24 -19 5 -40 47 -93 205 -87
259 2 18 73 -59 96 -104z m-3090 46 c75 -79 172 -276 136 -276 -36 0 -231 242
-231 286 0 23 15 9 61 -56 51 -73 66 -71 17 2 -19 29 -40 63 -47 76 -22 41 10
25 64 -32z m3139 -30 c30 -92 19 -107 -19 -27 -28 57 -33 76 -23 82 17 11 22
4 42 -55z m-3364 -123 c0 -5 -9 -45 -20 -91 -21 -89 -27 -163 -10 -146 5 5 14
43 20 84 24 160 50 202 50 81 0 -116 -55 -338 -86 -348 -6 -2 -18 11 -25 29
-28 66 -7 271 37 364 15 31 34 46 34 27z m3460 -70 c0 -11 -51 -73 -61 -73
-16 0 -10 17 17 49 24 29 44 40 44 24z m60 -55 c-5 -26 -18 -64 -29 -85 -20
-40 -97 -120 -106 -112 -3 3 12 30 33 60 53 75 55 79 42 79 -6 0 -29 -29 -52
-65 -42 -66 -58 -79 -58 -48 0 36 43 103 106 163 36 34 67 61 69 59 2 -2 -1
-25 -5 -51z m-273 -96 c9 -97 -26 -282 -53 -282 -3 0 -3 33 1 73 6 81 -8 66
-20 -20 -8 -63 -21 -68 -30 -14 -11 68 16 204 57 284 25 50 38 39 45 -41z
m-2984 22 c73 -37 154 -94 205 -143 41 -40 54 -71 30 -71 -48 1 -234 108 -287
164 -29 30 -20 34 17 7 15 -10 43 -26 62 -36 l35 -18 -19 22 c-10 11 -41 35
-67 52 -46 29 -62 49 -39 49 6 0 34 -12 63 -26z m3055 -86 c4 -18 -46 -133
-54 -126 -3 4 -2 38 2 77 6 64 8 70 28 67 11 -2 22 -10 24 -18z m-3104 -158
c35 -88 64 -410 37 -410 -15 0 -58 99 -81 185 -24 88 -39 255 -23 255 5 0 14
-26 20 -57 12 -61 31 -118 38 -112 2 2 -3 33 -10 69 -17 76 -18 110 -6 110 5
0 16 -18 25 -40z m2821 -22 c-13 -63 -68 -180 -106 -229 -63 -79 -71 -61 -19
42 12 22 19 43 16 46 -2 3 -18 -22 -35 -55 -37 -73 -56 -90 -46 -41 19 88 85
200 145 244 45 33 53 31 45 -7z m466 4 c-17 -31 -88 -90 -141 -117 -63 -32
-210 -85 -210 -75 0 3 27 21 60 40 33 18 58 35 56 38 -2 2 -14 -2 -26 -8 -11
-6 -29 -10 -38 -8 -24 5 54 50 181 104 115 49 133 53 118 26z m-2729 -90 c60
-22 108 -49 108 -62 0 -21 -77 -33 -169 -27 -106 7 -187 27 -223 56 l-23 20
40 -9 c54 -11 149 -21 143 -14 -3 2 -33 9 -67 15 -156 25 -141 53 24 45 74 -3
128 -11 167 -24z m1964 -128 c-11 -41 -78 -133 -146 -199 -61 -59 -66 -49 -12
23 41 54 8 36 -43 -23 -26 -31 -50 -54 -53 -51 -15 16 133 197 202 248 49 35
60 35 52 2z m-2178 -131 c86 -118 181 -301 167 -324 -9 -14 -58 16 -124 77
-44 40 -71 77 -96 128 -37 76 -69 176 -56 176 4 0 29 -34 56 -76 27 -41 53
-78 58 -81 10 -6 -1 16 -54 109 -22 36 -39 69 -39 73 0 18 44 -23 88 -82z
m677 49 l30 -9 -35 -22 c-39 -24 -84 -38 -169 -52 -57 -10 -164 -2 -156 10 2
4 37 14 77 21 88 16 65 26 -28 11 -86 -13 -109 -4 -52 21 24 11 59 23 78 28
40 11 211 5 255 -8z m2015 -11 c0 -13 -108 -67 -170 -85 -73 -22 -230 -33
-213 -16 6 6 42 18 79 26 37 8 70 17 73 21 6 6 -80 -4 -111 -13 -28 -8 -21 14
10 30 24 12 96 30 162 40 52 7 170 6 170 -3z m-830 -8 c0 -31 -84 -124 -157
-174 -49 -34 -133 -72 -133 -60 0 4 21 22 46 40 63 46 49 49 -22 6 -33 -19
-62 -35 -66 -35 -32 0 36 78 114 131 99 67 218 117 218 92z m-360 -35 c0 -7
-29 -41 -65 -75 -70 -66 -196 -137 -235 -131 -19 2 -13 8 33 38 31 19 54 36
53 37 -2 2 -33 -10 -69 -27 -90 -41 -101 -37 -45 14 50 46 166 108 257 137 68
22 71 22 71 7z m-415 -28 c-19 -31 -104 -73 -193 -96 -115 -29 -178 -30 -94 0
70 24 60 31 -16 12 -78 -21 -88 -21 -71 0 20 24 84 54 162 74 77 20 223 27
212 10z m1115 -95 c17 -9 30 -18 30 -20 0 -3 -34 -5 -76 -5 -78 0 -91 12 -31
29 44 13 45 13 77 -4z m-1840 -64 c41 -39 77 -68 79 -65 2 2 -22 31 -54 64
-31 34 -55 64 -52 67 8 7 75 -33 150 -88 75 -56 186 -219 149 -219 -17 0 -148
69 -184 97 -41 31 -129 138 -153 184 -9 16 -14 29 -12 29 1 0 36 -31 77 -69z
m2024 -17 c16 -10 13 -13 -24 -28 -96 -38 -268 -44 -370 -12 l-45 14 93 1 c59
1 91 5 87 11 -3 6 -40 10 -81 10 -47 0 -74 4 -74 11 0 15 387 8 414 -7z m-519
-35 c-3 -4 -12 -6 -20 -3 -8 4 -13 10 -10 15 3 4 12 6 20 3 8 -4 13 -10 10
-15z m-481 -9 c-10 -4 -21 -6 -24 -3 -8 7 24 22 34 16 5 -4 1 -10 -10 -13z
m-502 -57 c72 -38 229 -175 216 -188 -12 -13 -109 25 -190 72 -75 45 -154 111
-143 121 2 3 39 -16 80 -41 42 -26 78 -47 81 -47 14 0 -12 22 -76 64 -39 26
-70 49 -70 51 0 14 39 1 102 -32z m905 -4 c40 -10 104 -33 144 -51 56 -25 67
-33 52 -39 -38 -14 -320 42 -382 76 -35 19 -27 18 69 -6 45 -11 84 -18 87 -15
3 2 -27 15 -66 27 -39 13 -71 26 -71 30 0 10 88 -1 167 -22z m-353 -1 c17 -28
4 -28 -74 -3 l-75 24 69 -2 c53 -2 71 -6 80 -19z m-89 -22 c28 -7 67 -20 88
-29 39 -17 167 -132 167 -150 0 -16 -115 1 -179 27 -55 22 -145 79 -201 127
-29 25 -23 23 94 -26 48 -20 90 -34 93 -31 3 2 -35 25 -83 50 -74 37 -84 45
-59 45 17 1 53 -5 80 -13z"/>
<path d="M2467 2410 c-10 -25 -17 -30 -46 -30 l-35 0 27 -28 c23 -24 26 -32
18 -60 -10 -35 -5 -38 32 -21 19 9 31 7 56 -5 l31 -17 -6 41 c-6 34 -3 45 16
65 l23 25 -31 0 c-25 0 -35 6 -47 30 -9 17 -18 30 -21 30 -3 0 -11 -13 -17
-30z m58 -50 c14 0 15 -3 5 -15 -7 -8 -10 -24 -7 -35 6 -22 0 -25 -22 -11 -9
6 -22 6 -34 0 -15 -9 -18 -7 -15 9 2 10 -3 26 -11 35 -12 15 -11 17 7 17 11 0
23 8 27 18 6 16 7 16 19 0 7 -10 21 -18 31 -18z"/>
<path d="M2350 2150 c-91 -17 -140 -71 -140 -154 0 -86 41 -129 155 -161 75
-21 105 -40 105 -65 0 -42 -76 -53 -140 -20 -21 11 -41 24 -45 30 -21 34 -85
-11 -85 -60 0 -58 126 -119 224 -108 67 8 114 36 143 85 21 37 25 53 21 99 -7
83 -46 117 -183 158 -57 18 -71 26 -73 44 -7 48 92 53 122 6 19 -27 51 -31 83
-9 29 21 34 49 12 84 -32 53 -123 85 -199 71z m137 -56 c39 -30 49 -49 34 -68
-12 -14 -17 -13 -46 10 -62 47 -149 41 -173 -12 -24 -51 5 -78 108 -104 104
-27 158 -85 147 -156 -18 -112 -151 -158 -269 -92 -52 29 -67 51 -49 72 11 13
19 12 65 -14 56 -32 116 -39 160 -19 44 20 52 85 15 116 -8 6 -41 19 -74 28
-33 10 -77 26 -97 36 -87 44 -89 157 -5 210 42 27 144 23 184 -7z"/>
<path d="M1490 1886 l0 -266 138 0 c125 0 143 2 182 23 59 31 82 76 77 149 -2
43 -9 64 -26 82 -21 23 -22 25 -7 54 36 70 9 154 -64 196 -29 18 -56 22 -167
24 l-133 4 0 -266z m296 205 c59 -36 68 -119 18 -172 l-24 -26 24 -11 c55 -25
71 -117 31 -178 -27 -41 -72 -54 -195 -54 l-110 0 0 230 0 230 113 0 c93 0
117 -3 143 -19z"/>
<path d="M1587 2053 c-4 -3 -7 -35 -7 -70 l0 -63 80 0 c90 0 120 17 120 68 0
33 -8 45 -37 61 -23 12 -145 16 -156 4z m144 -33 c21 -12 25 -40 7 -58 -7 -7
-36 -12 -65 -12 l-53 0 0 40 0 40 46 0 c25 0 54 -5 65 -10z"/>
<path d="M1582 1783 l3 -78 69 -3 c80 -3 119 9 135 44 17 38 13 63 -14 89 -22
23 -32 25 -110 25 l-86 0 3 -77z m173 22 c9 -13 10 -28 4 -42 -7 -21 -15 -23
-74 -23 l-65 0 0 45 0 46 61 -3 c49 -2 64 -7 74 -23z"/>
<path d="M1990 1983 c-19 -24 -21 -36 -16 -83 4 -45 1 -61 -14 -85 -23 -35
-26 -95 -5 -134 17 -35 65 -57 92 -43 10 6 31 8 47 5 34 -7 48 11 33 44 -8 19
-7 27 11 46 19 20 20 26 8 42 -9 12 -20 16 -35 12 -35 -9 -49 32 -26 79 44 94
-36 192 -95 117z m69 -7 c18 -21 16 -89 -3 -118 -15 -23 -15 -28 0 -64 20 -49
18 -48 44 -34 31 17 37 4 11 -24 -19 -21 -21 -27 -10 -44 15 -23 5 -42 -12
-25 -8 8 -19 7 -39 -3 -15 -8 -35 -11 -44 -8 -22 8 -46 56 -46 89 0 30 24 81
41 87 10 3 10 12 1 38 -16 45 -15 71 4 98 17 25 36 28 53 8z"/>
<path d="M2017 1953 c-12 -11 -8 -58 6 -77 13 -17 14 -16 26 12 19 46 -4 93
-32 65z"/>
<path d="M1990 1776 c-20 -62 20 -117 60 -81 18 16 18 18 -2 66 -24 57 -42 62
-58 15z m45 -66 c-11 -18 -25 1 -25 33 l1 32 15 -28 c8 -15 12 -32 9 -37z"/>
<path d="M857 1503 c3 -16 0 -54 -5 -85 -8 -50 -7 -58 7 -58 13 0 16 10 14 57
l-3 58 22 -57 c24 -63 51 -77 67 -35 5 12 16 38 25 57 l16 35 -3 -58 -2 -57
50 0 c50 0 50 0 50 33 0 29 3 32 29 32 24 0 31 -5 37 -27 4 -17 3 -29 -4 -32
-7 -2 24 -5 68 -5 l81 -1 -4 40 c-2 22 -1 40 2 40 3 0 13 -18 22 -40 l16 -40
82 1 c44 0 75 3 69 6 -15 5 -18 73 -4 73 9 0 37 -60 33 -72 -1 -5 25 -8 58 -8
58 0 60 1 48 20 -11 17 -14 18 -16 5 -6 -26 -23 -12 -55 45 l-31 53 30 23 29
24 -28 0 c-16 0 -26 -4 -23 -8 3 -5 -8 -24 -24 -43 l-29 -34 -1 30 c0 17 5 36
12 43 9 9 1 12 -37 12 -38 0 -46 -3 -37 -12 7 -7 12 -40 12 -80 0 -79 -12 -87
-48 -33 -20 32 -21 37 -7 51 18 18 19 46 3 62 -7 7 -41 12 -82 12 -54 0 -67
-3 -58 -12 7 -7 12 -41 12 -81 0 -91 -17 -85 -50 16 -24 76 -25 77 -58 77 -18
0 -31 -4 -27 -9 6 -11 -43 -138 -57 -147 -6 -4 -8 24 -6 75 l3 81 -26 0 c-23
0 -29 -8 -49 -60 -12 -33 -24 -60 -26 -60 -1 0 -13 27 -25 60 -19 53 -25 60
-49 60 -23 0 -26 -3 -23 -27z m476 -5 c13 -20 2 -48 -18 -48 -11 0 -15 10 -15
36 0 37 14 42 33 12z m-193 -12 c0 -8 3 -21 6 -30 4 -12 0 -16 -15 -16 -23 0
-24 3 -15 38 7 24 24 30 24 8z"/>
<path d="M1609 1478 c4 -44 6 -48 10 -23 l6 29 45 -62 c25 -34 53 -62 63 -62
15 0 17 10 17 69 0 38 3 76 6 85 4 12 0 16 -15 16 -18 0 -20 -3 -11 -19 12
-23 14 -81 3 -81 -5 0 -23 23 -42 50 -26 38 -40 50 -60 50 -25 0 -26 -2 -22
-52z"/>
<path d="M1778 1519 c16 -17 16 -131 0 -147 -9 -9 4 -12 59 -12 73 0 83 6 83
48 -1 14 -3 13 -12 -3 -14 -25 -28 -35 -50 -35 -14 0 -18 8 -18 36 0 31 3 36
20 31 15 -4 20 0 20 16 0 16 -3 18 -12 9 -19 -19 -28 -14 -28 17 0 39 15 47
46 26 24 -16 26 -16 22 2 -3 15 -15 18 -73 21 -56 2 -68 1 -57 -9z"/>
<path d="M1928 1518 c7 -7 12 -39 12 -72 0 -34 4 -66 8 -73 4 -7 37 -11 87
-11 44 0 74 2 68 5 -17 6 -18 134 -1 151 9 9 3 12 -27 12 l-40 0 0 -72 c0 -66
-2 -73 -20 -73 -18 0 -20 7 -20 73 l0 72 -39 0 c-31 0 -37 -3 -28 -12z"/>
<path d="M2128 1518 c16 -16 16 -145 0 -151 -7 -3 10 -5 37 -5 28 0 44 2 38 5
-15 5 -18 73 -3 73 5 0 15 -18 21 -40 l12 -40 80 0 c62 0 77 3 70 13 -5 6 -7
44 -4 85 l6 72 -35 0 -35 0 3 -81 c4 -97 -8 -101 -52 -19 l-29 53 29 24 29 23
-28 0 c-16 0 -26 -4 -23 -8 3 -5 -8 -24 -24 -43 l-29 -34 -1 37 c0 20 6 39 13
41 6 3 -10 6 -37 6 -39 1 -47 -2 -38 -11z"/>
<path d="M2415 1445 l0 -85 36 0 37 0 -8 35 c-4 19 -5 35 -1 35 4 0 15 -16 24
-35 14 -30 21 -35 52 -35 l35 0 -29 41 c-29 40 -30 40 -10 60 23 23 24 33 3
53 -11 11 -34 16 -77 16 l-62 0 0 -85z m93 37 c-4 -37 -25 -38 -30 -2 -5 35
-2 41 19 33 8 -3 13 -16 11 -31z"/>
<path d="M2605 1505 c-31 -30 -33 -82 -4 -119 16 -20 29 -26 59 -26 21 0 42 4
45 10 3 5 0 7 -9 4 -25 -10 -53 14 -60 49 -12 63 31 123 59 84 16 -23 25 -21
25 3 0 17 -7 20 -45 20 -35 0 -52 -6 -70 -25z"/>
<path d="M2741 1495 c6 -22 6 -54 1 -85 l-9 -50 36 0 36 0 -3 45 c-4 43 -3 45
23 45 26 0 27 -2 23 -45 l-3 -45 106 0 c112 0 120 3 119 48 -1 14 -3 13 -12
-3 -14 -25 -28 -35 -50 -35 -14 0 -18 8 -18 36 0 31 3 36 20 31 15 -4 20 0 20
16 0 16 -3 18 -12 9 -19 -19 -28 -14 -28 17 0 39 15 47 46 26 24 -16 26 -16
22 2 -3 16 -16 18 -109 21 l-105 3 4 -36 c4 -32 2 -35 -23 -35 -25 0 -27 3
-23 35 4 34 3 35 -33 35 l-37 0 9 -35z m197 -54 c3 -65 1 -72 -15 -69 -14 3
-19 15 -21 62 -3 66 2 90 21 84 8 -3 13 -30 15 -77z"/>
<path d="M3088 1454 c3 -56 0 -79 -10 -85 -9 -6 -3 -9 17 -9 20 0 26 3 17 9
-9 5 -12 25 -10 62 l3 54 45 -62 c64 -88 78 -85 82 22 3 74 1 85 -13 85 -14 0
-16 -6 -8 -37 18 -79 8 -82 -41 -13 -26 36 -42 49 -60 50 -25 0 -25 -1 -22
-76z"/>
<path d="M1609 1271 c10 -6 12 -28 9 -85 l-3 -76 30 0 c30 0 30 1 27 40 -2 22
0 40 5 40 11 0 33 -44 33 -66 0 -12 17 -14 103 -12 l102 3 2 30 c2 28 2 28 -8
8 -6 -12 -20 -24 -31 -26 -18 -5 -19 -1 -16 74 l3 79 -35 0 -35 0 3 -80 c2
-49 0 -80 -7 -80 -5 0 -24 25 -42 57 l-32 56 27 24 27 23 -27 0 c-15 0 -24 -3
-21 -6 8 -9 -31 -64 -45 -64 -6 0 -8 15 -6 35 4 35 4 35 -37 35 -26 0 -35 -3
-26 -9z"/>
<path d="M1942 1237 c5 -27 5 -60 0 -85 l-10 -42 37 0 36 0 0 85 0 85 -36 0
-37 0 10 -43z"/>
<path d="M2035 1195 c0 -75 2 -85 18 -85 14 0 16 4 7 19 -12 23 -14 101 -2
101 4 0 27 -27 50 -60 60 -83 72 -80 72 19 0 54 4 81 13 84 6 3 -1 6 -18 6
-20 0 -25 -2 -17 -8 9 -5 12 -24 10 -52 l-3 -44 -38 53 c-30 40 -45 52 -65 52
l-27 0 0 -85z"/>
<path d="M2225 1255 c-34 -33 -34 -87 0 -121 21 -21 33 -25 80 -23 54 2 55 3
55 34 0 17 5 36 12 43 9 9 3 12 -28 12 l-40 0 4 -40 c3 -29 0 -40 -10 -40 -26
0 -38 24 -38 75 0 28 5 56 12 63 17 17 48 15 70 -5 17 -15 18 -15 18 5 0 20
-5 22 -55 22 -46 0 -60 -4 -80 -25z"/>
<path d="M2395 1195 l0 -86 65 3 c64 3 65 3 67 33 2 28 2 28 -8 8 -11 -21 -45
-37 -61 -27 -9 6 -11 58 -2 67 4 3 15 2 25 -4 16 -8 19 -6 19 9 0 15 -5 18
-25 14 -22 -4 -25 -1 -25 27 0 24 4 31 19 31 11 0 27 -7 35 -16 15 -14 16 -14
16 5 0 19 -6 21 -62 21 l-63 0 0 -85z"/>
<path d="M2545 1195 c0 -78 2 -85 20 -85 15 0 16 3 7 12 -13 13 -17 108 -4
108 4 0 27 -27 50 -60 61 -83 72 -80 73 23 1 45 3 74 6 64 4 -17 6 -17 23 -2
10 9 24 14 30 10 14 -8 11 -124 -3 -142 -7 -10 0 -13 29 -13 l39 0 -3 80 c-4
84 4 98 32 58 l16 -22 0 27 0 27 -101 0 c-87 0 -100 -2 -90 -14 7 -8 11 -32 9
-53 l-3 -38 -40 53 c-29 39 -46 52 -65 52 -25 0 -25 -1 -25 -85z"/>
<path d="M2875 1195 l0 -85 31 0 c31 0 32 0 26 45 -4 44 -4 45 23 45 26 0 27
-2 23 -45 l-3 -45 57 0 c46 0 56 3 52 15 -6 14 21 101 36 118 9 10 23 -40 15
-53 -3 -4 0 -10 6 -12 7 -2 12 -18 13 -36 l1 -33 100 3 100 3 2 30 c2 28 2 28
-8 8 -11 -21 -43 -36 -53 -25 -12 12 -6 140 7 145 6 3 -6 6 -28 6 l-40 1 3
-81 c5 -124 -20 -97 -64 69 -2 6 -19 12 -38 12 -26 0 -34 -4 -30 -14 3 -7 -9
-45 -27 -82 -30 -63 -33 -67 -37 -40 -2 16 -2 53 0 83 l3 53 -35 0 c-35 0 -36
-1 -32 -35 4 -32 2 -35 -22 -35 -22 0 -26 4 -26 29 0 16 6 32 13 34 6 3 -6 6
-28 6 l-40 1 0 -85z"/>
</g>
</svg>
