<?xml version="1.0" standalone="no"?>
<!DOCTYPE svg PUBLIC "-//W3C//DTD SVG 20010904//EN"
 "http://www.w3.org/TR/2001/REC-SVG-20010904/DTD/svg10.dtd">
<svg version="1.0" xmlns="http://www.w3.org/2000/svg"
 width="1100.000000pt" height="772.000000pt" viewBox="0 0 1100.000000 772.000000"
 preserveAspectRatio="xMidYMid meet">

<g transform="translate(0.000000,772.000000) scale(0.100000,-0.100000)"
fill="#000000" stroke="none">
<path d="M5135 7529 c-93 -4 -197 -9 -230 -13 -33 -3 -105 -8 -160 -11 -55 -3
-107 -8 -115 -10 -8 -2 -40 -7 -70 -10 -87 -9 -213 -25 -237 -29 -12 -3 -50
-7 -85 -11 -35 -3 -76 -10 -93 -15 -16 -5 -61 -13 -100 -19 -162 -24 -460 -90
-685 -151 -41 -12 -93 -26 -115 -31 -22 -6 -56 -17 -75 -24 -19 -7 -55 -18
-80 -25 -58 -16 -127 -39 -165 -55 -30 -12 -135 -49 -145 -50 -9 -1 -123 -46
-190 -75 -36 -16 -109 -47 -162 -69 -54 -23 -171 -79 -260 -125 -146 -74 -185
-95 -293 -156 -107 -61 -422 -273 -445 -300 -3 -3 -25 -21 -50 -40 -145 -110
-424 -383 -541 -530 -167 -209 -264 -371 -378 -628 -23 -50 -41 -98 -41 -105
0 -7 -8 -40 -19 -73 -20 -62 -43 -156 -47 -189 -1 -11 -7 -58 -14 -105 -12
-87 -16 -348 -6 -398 3 -15 8 -47 11 -72 36 -304 140 -565 373 -935 40 -64 40
-63 128 -170 48 -59 127 -144 229 -249 131 -135 411 -368 493 -410 16 -8 32
-20 34 -25 4 -12 226 -149 338 -209 19 -11 60 -33 90 -50 91 -51 321 -162 400
-194 14 -6 39 -16 55 -23 161 -70 402 -159 555 -207 36 -11 94 -29 130 -40 64
-19 129 -37 445 -118 88 -22 255 -56 370 -76 116 -19 251 -41 300 -49 50 -9
110 -17 135 -20 25 -2 95 -9 155 -15 61 -6 133 -13 160 -15 28 -2 83 -6 123
-9 201 -17 774 -24 982 -12 52 3 140 8 195 11 138 8 298 21 375 31 19 2 73 8
120 14 47 5 144 19 215 30 72 11 164 25 205 31 41 6 79 15 84 20 6 5 22 9 37
9 29 0 204 34 254 50 17 5 95 25 175 45 80 20 156 40 170 44 28 9 95 29 210
62 41 11 93 29 115 40 22 10 55 22 73 25 18 4 35 11 38 15 3 5 16 9 29 9 13 0
27 4 30 10 3 5 15 10 26 10 10 0 27 4 37 9 9 4 31 15 47 23 17 9 48 21 70 27
22 7 54 19 70 26 118 53 147 65 158 65 6 0 23 9 37 20 14 11 29 20 34 20 12 0
302 146 335 168 14 10 37 23 51 30 25 12 43 22 167 100 419 262 772 588 1030
952 95 135 264 456 278 531 2 12 8 26 13 33 5 6 12 22 15 36 3 14 13 50 22 80
9 30 18 69 21 85 2 17 7 41 10 55 3 14 8 43 10 65 3 22 9 65 13 95 5 30 7 142
5 250 -4 191 -6 220 -17 250 -3 8 -11 47 -17 85 -22 143 -102 363 -196 541
-26 49 -55 105 -65 124 -9 19 -27 44 -38 54 -12 11 -21 25 -21 32 0 7 -25 43
-55 79 -30 37 -55 70 -55 74 0 4 -12 20 -27 37 -16 16 -53 59 -83 94 -30 36
-67 77 -82 93 -16 15 -28 32 -28 37 0 6 -6 10 -14 10 -8 0 -17 9 -21 19 -3 11
-16 26 -28 34 -12 8 -40 32 -62 53 -22 22 -71 65 -110 96 -38 31 -81 67 -94
79 -28 26 -89 71 -181 133 -36 24 -82 57 -102 72 -20 16 -56 40 -79 54 -23 14
-64 40 -92 58 -28 17 -56 32 -61 32 -5 0 -17 7 -26 15 -20 18 -113 70 -162 92
-21 9 -38 20 -38 25 0 4 -8 8 -18 8 -9 0 -33 11 -52 24 -30 20 -72 39 -90 41
-3 0 -23 11 -45 24 -22 14 -42 25 -45 26 -8 1 -118 45 -250 100 -125 53 -369
140 -530 189 -47 14 -98 30 -115 36 -41 12 -254 68 -285 74 -48 9 -156 35
-235 56 -44 12 -105 25 -135 30 -30 4 -109 17 -175 29 -66 12 -147 25 -180 27
-33 3 -76 10 -95 14 -34 9 -263 33 -425 45 -307 24 -776 34 -1050 24z m735
-83 c91 -4 179 -9 195 -12 17 -2 75 -7 130 -10 55 -3 134 -9 175 -15 41 -6
100 -12 130 -15 30 -2 75 -9 100 -14 25 -5 72 -12 105 -16 184 -23 485 -81
665 -129 78 -20 182 -46 200 -49 36 -7 81 -19 170 -46 52 -16 118 -36 147 -44
28 -9 58 -16 66 -16 8 0 20 -6 26 -14 7 -8 28 -17 47 -21 20 -3 52 -13 73 -22
45 -20 64 -27 124 -49 26 -9 50 -21 53 -25 3 -5 15 -9 27 -9 12 0 31 -7 41
-15 11 -8 26 -15 34 -15 20 0 314 -131 362 -161 8 -5 31 -17 50 -25 19 -9 38
-21 41 -26 3 -5 13 -10 21 -12 8 -1 27 -10 42 -19 14 -10 36 -22 49 -27 33
-15 204 -116 287 -170 25 -17 58 -38 74 -48 16 -9 53 -36 81 -59 29 -22 70
-52 91 -66 22 -13 53 -37 69 -53 17 -16 53 -47 80 -69 101 -80 276 -250 339
-330 22 -28 53 -63 69 -80 16 -16 43 -50 60 -75 17 -25 48 -66 69 -91 21 -25
38 -50 38 -56 0 -6 12 -25 26 -42 37 -44 123 -205 169 -316 9 -22 24 -53 33
-70 9 -16 15 -31 14 -33 -4 -4 10 -56 17 -67 9 -12 43 -162 42 -180 0 -2 6
-22 14 -44 21 -61 37 -473 19 -502 -3 -5 -7 -35 -10 -66 -5 -59 -28 -183 -44
-238 -38 -125 -55 -174 -70 -200 -10 -16 -21 -46 -25 -65 -7 -32 -58 -139
-103 -215 -9 -16 -34 -57 -54 -91 -123 -209 -389 -507 -638 -714 -134 -112
-408 -301 -545 -375 -38 -21 -83 -47 -100 -56 -64 -39 -263 -140 -345 -177
-177 -78 -337 -143 -490 -197 -58 -20 -114 -41 -125 -46 -11 -4 -45 -16 -75
-25 -30 -9 -80 -25 -110 -36 -72 -25 -123 -39 -315 -88 -88 -22 -176 -45 -195
-50 -32 -9 -186 -39 -385 -75 -240 -43 -411 -67 -575 -80 -41 -4 -93 -8 -115
-10 -38 -4 -81 -7 -350 -24 -117 -8 -651 -6 -830 4 -116 5 -284 17 -310 20
-11 2 -51 6 -90 9 -130 13 -240 26 -310 37 -38 6 -79 13 -90 14 -104 12 -146
18 -185 30 -25 7 -58 13 -75 14 -74 1 -646 137 -800 190 -27 9 -167 56 -385
128 -41 13 -90 31 -107 39 -57 24 -96 41 -153 64 -135 55 -496 231 -595 290
-243 146 -418 269 -615 430 -69 57 -313 300 -371 370 -172 206 -305 418 -397
635 -61 145 -113 340 -128 480 -3 33 -8 63 -10 66 -2 3 -3 60 -3 125 0 66 -1
137 -1 159 -1 35 21 203 34 260 36 160 96 337 156 455 46 91 112 204 122 208
4 2 8 8 8 13 0 19 170 244 260 343 147 162 417 406 523 473 23 14 60 41 81 60
22 18 44 33 49 33 8 0 28 14 84 60 7 6 17 10 22 10 6 0 20 8 31 18 24 20 81
55 130 79 19 10 46 25 60 34 70 46 287 159 307 159 7 0 13 5 13 10 0 6 4 10
10 10 5 0 47 18 92 39 46 21 126 56 178 76 52 20 104 41 114 47 11 6 47 21 80
33 168 63 201 75 204 74 2 -1 15 4 30 9 15 6 74 25 132 42 58 17 114 35 125
40 18 7 136 37 175 44 8 2 22 6 30 9 8 3 38 11 65 17 28 6 59 13 70 16 11 3
27 6 35 6 8 0 20 4 25 8 6 4 46 13 90 20 44 7 88 17 97 21 15 8 193 40 418 74
164 26 410 54 530 60 63 4 118 9 121 11 3 2 84 6 180 10 96 3 175 7 176 8 5 4
464 -2 603 -8z"/>
<path d="M5180 6802 c-173 -39 -287 -140 -316 -280 -13 -65 1 -150 34 -205 12
-21 22 -42 22 -47 0 -4 19 -17 41 -28 41 -21 130 -25 158 -8 15 10 14 51 -1
64 -17 13 -58 -3 -58 -23 0 -20 -10 -18 -41 8 -44 36 -69 95 -69 158 0 76 9
114 31 138 11 11 19 25 19 30 0 5 14 18 30 28 17 9 30 20 30 24 0 14 176 76
186 66 3 -3 -13 -25 -36 -49 -95 -97 -117 -211 -66 -333 16 -39 37 -79 48 -91
10 -11 18 -26 18 -32 0 -7 4 -12 9 -12 5 0 20 -17 32 -37 13 -21 38 -54 56
-73 l32 -35 -5 -105 c-4 -95 -17 -161 -35 -183 -4 -5 -16 5 -28 21 -50 71
-165 107 -277 89 -80 -13 -216 -131 -254 -219 -5 -12 -14 -30 -19 -38 -22 -38
-43 -122 -48 -191 -5 -62 -1 -91 16 -149 19 -62 31 -81 76 -126 80 -77 150
-108 252 -111 46 -1 97 2 115 7 28 9 36 6 72 -24 71 -57 141 -82 241 -85 82
-2 173 29 239 84 42 34 86 108 108 183 14 45 23 52 33 25 8 -23 107 -85 161
-102 28 -9 75 -12 140 -9 83 4 108 9 152 32 66 34 182 145 182 174 0 12 4 23
9 27 6 3 13 27 16 53 4 26 8 57 10 69 6 36 -12 140 -29 174 -9 18 -16 36 -16
41 0 10 -56 96 -75 113 -84 84 -231 108 -339 56 -48 -24 -112 -79 -131 -115
-8 -14 -11 0 -12 60 0 67 -6 90 -32 145 -17 37 -40 77 -50 90 -34 45 -32 54
23 112 76 79 98 127 111 243 3 25 -17 126 -34 167 -11 28 -10 29 21 27 40 -3
96 9 104 21 3 5 13 9 23 9 10 0 26 9 36 20 10 11 24 20 31 20 21 0 28 40 10
58 -26 26 -71 5 -71 -33 0 -25 -6 -32 -35 -42 -19 -6 -60 -12 -91 -12 -54 -1
-56 0 -89 44 -34 45 -60 62 -40 26 5 -11 10 -27 10 -35 0 -16 -26 -7 -145 49
-204 97 -322 115 -495 77z m290 -73 c30 -5 62 -13 70 -16 8 -3 24 -8 35 -10
11 -2 22 -8 23 -13 2 -6 14 -10 27 -10 13 0 26 -4 29 -9 3 -4 38 -18 78 -30
113 -34 121 -40 136 -96 28 -114 15 -237 -34 -301 -13 -17 -24 -36 -24 -42 0
-6 -11 -19 -25 -30 -14 -11 -25 -27 -25 -36 0 -20 -14 -21 -30 -1 -16 19 -30
19 -30 0 0 -17 13 -35 43 -63 60 -55 107 -221 87 -307 -7 -27 -14 -63 -17 -80
-2 -16 -8 -45 -13 -63 -5 -19 -6 -40 -3 -48 3 -8 1 -14 -4 -14 -5 0 -10 6 -10
13 0 25 -25 116 -59 212 -20 55 -36 110 -36 123 0 12 -4 22 -9 22 -5 0 -9 9
-9 20 0 11 -4 28 -10 38 -15 28 -69 185 -76 222 -4 19 -10 40 -14 45 -3 6 -8
44 -9 85 -2 66 0 78 18 94 21 19 26 41 15 70 -10 27 -39 18 -93 -31 -57 -51
-100 -116 -111 -166 -6 -31 -7 -30 -18 21 -14 63 -15 181 -2 237 19 82 -18 49
-50 -45 -18 -55 -21 -83 -19 -185 1 -66 5 -124 7 -129 3 -5 6 -22 7 -38 4 -39
-14 -23 -57 50 -73 128 -81 152 -82 237 0 96 23 147 106 237 60 64 55 63 188
37z m56 -368 c0 -59 5 -102 16 -127 24 -57 32 -78 33 -89 1 -5 5 -19 9 -30 4
-11 11 -29 15 -40 21 -56 71 -213 75 -235 3 -14 14 -61 25 -105 26 -108 31
-185 11 -185 -5 0 -10 5 -10 11 0 17 -43 59 -61 59 -9 0 -22 6 -28 14 -11 13
-74 26 -149 30 -53 3 -55 9 -48 130 3 61 8 161 10 221 6 155 16 245 31 280 6
17 15 48 19 70 6 30 38 85 51 85 1 0 1 -40 1 -89z m715 -527 c6 -8 19 -14 28
-14 40 0 105 -100 124 -191 27 -129 -1 -284 -63 -351 -11 -12 -20 -25 -20 -29
0 -12 -69 -51 -108 -61 -57 -15 -69 -15 -139 -6 -109 15 -181 82 -205 191 -10
47 -6 223 6 234 9 9 25 -7 20 -21 -7 -19 86 -106 131 -122 84 -29 89 -4 10 44
-85 51 -116 132 -79 205 20 39 72 90 113 112 64 32 158 37 182 9z m-1100 -9
c56 -20 83 -46 104 -102 23 -61 8 -112 -49 -157 -55 -44 -71 -48 -92 -25 -23
25 -51 24 -59 -2 -13 -39 15 -54 77 -41 29 5 54 9 55 8 1 -1 -12 -31 -29 -67
-17 -35 -37 -75 -42 -88 -16 -36 -10 -166 10 -196 21 -33 11 -45 -39 -45 -86
0 -182 37 -228 87 -59 63 -73 108 -73 235 0 114 2 126 40 201 8 16 14 34 14
41 0 21 114 134 151 151 44 19 106 19 160 0z m218 -87 c-3 -85 -10 -107 -31
-108 -15 0 -8 111 8 143 12 22 13 32 5 35 -13 4 -5 22 11 22 6 0 9 -33 7 -92z
m216 -154 c61 -35 89 -78 88 -138 0 -28 -5 -52 -12 -54 -6 -2 -11 -10 -11 -17
0 -16 -69 -75 -87 -75 -7 0 -21 -4 -31 -9 -9 -6 -30 -13 -46 -16 -20 -4 -26
-9 -19 -16 24 -24 178 26 231 74 l23 21 -6 -54 c-10 -86 -52 -201 -88 -239
-50 -53 -99 -71 -195 -71 -93 0 -149 19 -192 65 l-25 27 30 22 c87 61 128 125
153 236 18 79 20 98 21 177 1 57 3 64 29 77 37 21 89 17 137 -10z m-229 -73
c-3 -5 -8 -37 -12 -72 -6 -74 -17 -113 -52 -189 -24 -53 -72 -110 -92 -110
-17 0 -32 84 -28 152 6 78 28 125 89 189 55 58 81 73 92 53 4 -8 6 -18 3 -23z"/>
<path d="M4775 4703 c-143 -9 -250 -75 -305 -189 -51 -105 -35 -190 50 -275
31 -30 72 -61 91 -69 19 -7 41 -18 49 -25 21 -16 107 -40 235 -66 61 -12 129
-30 153 -40 24 -11 51 -19 60 -19 21 0 85 -56 101 -87 6 -12 11 -40 11 -63 0
-78 -43 -143 -127 -188 -48 -26 -176 -53 -219 -47 -16 3 -45 8 -64 11 -103 17
-204 115 -285 275 -29 56 -57 76 -75 54 -9 -11 -11 -38 -6 -96 3 -45 8 -85 11
-88 2 -4 6 -38 10 -76 6 -67 14 -112 22 -127 2 -4 25 3 51 14 53 24 101 25
140 4 75 -40 117 -48 242 -49 154 0 240 23 325 87 85 65 117 126 121 231 4 92
-9 141 -54 201 -64 84 -180 134 -432 183 -149 29 -200 45 -246 74 -77 48 -96
105 -60 176 17 35 34 51 81 75 56 29 67 31 170 31 69 0 127 -5 155 -15 58 -18
138 -77 181 -132 50 -64 54 -67 77 -61 28 7 33 26 18 70 -7 21 -21 73 -31 116
-13 53 -24 77 -35 79 -8 0 -22 2 -30 3 -8 1 -25 -8 -38 -19 l-23 -20 -82 27
c-71 23 -102 30 -177 41 -8 1 -37 1 -65 -1z"/>
<path d="M7185 4701 c-193 -26 -359 -133 -459 -295 -86 -139 -101 -345 -36
-491 10 -22 21 -50 25 -63 4 -13 46 -62 93 -110 84 -83 149 -126 247 -161 64
-22 161 -39 229 -39 89 0 239 29 291 57 22 12 43 21 46 21 32 0 199 143 223
190 7 14 17 34 24 45 20 36 40 89 47 125 4 19 10 39 13 44 10 17 5 183 -8 236
-40 173 -178 335 -340 398 -106 41 -274 59 -395 43z m256 -101 c76 -28 111
-52 151 -101 43 -54 80 -123 83 -154 0 -5 4 -16 9 -23 20 -33 29 -287 12 -360
-10 -46 -53 -140 -79 -174 -85 -112 -178 -157 -324 -158 -89 0 -148 18 -224
67 -91 59 -127 108 -172 238 -16 48 -21 85 -21 190 -1 117 2 139 28 219 26 79
37 97 93 157 67 70 123 101 213 117 70 12 173 4 231 -18z"/>
<path d="M5845 4684 c-129 -32 -250 -146 -270 -256 -10 -54 18 -141 62 -189
59 -65 190 -128 328 -157 286 -61 350 -88 380 -158 62 -150 -82 -293 -300
-297 -99 -2 -161 19 -230 76 -59 49 -52 39 -120 152 -30 50 -59 96 -65 103
-18 20 -49 14 -55 -11 -6 -23 40 -365 50 -375 3 -3 23 5 45 17 51 29 82 29
150 1 126 -51 249 -63 370 -34 36 8 73 15 82 15 10 0 20 4 23 10 4 5 13 9 20
9 32 0 147 112 171 167 11 25 17 67 18 123 1 71 -3 93 -23 134 -56 113 -156
168 -406 221 -237 49 -299 71 -347 122 -49 52 -44 131 12 182 69 63 241 87
363 50 75 -22 157 -81 207 -147 72 -95 114 -48 70 78 -5 14 -16 51 -25 83 -15
55 -17 57 -50 57 -19 0 -35 -4 -35 -10 0 -28 -38 -27 -125 2 -70 24 -111 32
-185 34 -52 2 -104 1 -115 -2z"/>
<path d="M3439 4672 l-297 -2 -6 -31 c-8 -40 -4 -45 41 -54 52 -10 71 -21 93
-58 19 -30 20 -53 20 -425 0 -431 -1 -436 -60 -467 -16 -8 -42 -15 -59 -15
-33 0 -44 -10 -36 -32 5 -12 84 -14 498 -13 271 0 497 4 503 8 6 3 23 30 37
59 22 46 29 65 44 113 15 49 25 115 20 130 -10 23 -27 8 -77 -65 -48 -71 -100
-116 -167 -147 -47 -22 -72 -25 -221 -30 -192 -7 -204 -4 -233 60 -16 36 -19
67 -19 218 0 136 3 178 13 182 22 8 201 -1 230 -12 27 -10 52 -54 42 -71 -8
-13 29 -30 45 -20 10 6 13 39 12 139 0 71 -3 135 -7 141 -3 5 -15 10 -25 10
-14 0 -21 -10 -26 -34 -11 -60 -28 -67 -161 -69 l-118 -2 -3 175 c-3 202 2
223 56 237 63 17 323 15 373 -2 45 -16 51 -22 121 -115 45 -60 56 -70 77 -70
11 0 13 17 8 90 -6 99 -30 155 -70 165 -30 8 -290 11 -648 7z"/>
<path d="M8039 4672 c-16 -2 -29 -11 -32 -22 -6 -22 0 -30 24 -30 10 0 26 -11
37 -24 18 -24 19 -45 17 -468 -2 -515 1 -497 -87 -513 -28 -6 -52 -35 -39 -48
5 -5 67 -9 138 -9 222 1 210 0 216 22 6 23 -2 29 -41 36 -34 6 -57 35 -68 88
-7 33 -10 423 -5 659 l1 48 32 -38 c18 -21 40 -45 49 -53 8 -8 18 -23 22 -32
3 -10 12 -18 19 -18 7 -1 32 -26 56 -58 41 -55 78 -98 165 -193 76 -82 103
-113 132 -154 17 -22 55 -67 86 -100 31 -33 75 -82 98 -109 23 -27 49 -55 57
-63 8 -8 14 -18 14 -21 0 -4 24 -8 54 -10 l54 -3 1 198 c1 109 1 205 2 213 0
8 -2 31 -4 50 -2 19 0 40 5 47 5 6 5 13 1 16 -4 3 -7 43 -5 89 3 103 3 84 1
208 -1 128 3 158 27 198 13 22 28 34 52 38 28 5 33 10 30 31 l-3 25 -163 1
c-105 0 -167 -4 -174 -11 -19 -19 -1 -39 39 -45 63 -10 74 -39 79 -220 9 -292
10 -518 4 -522 -7 -5 -37 26 -78 80 -42 55 -77 97 -99 120 -13 12 -23 25 -23
29 0 4 -11 18 -25 32 -14 14 -25 29 -25 33 0 5 -27 39 -60 75 -32 36 -67 78
-77 93 -10 16 -22 33 -28 40 -5 6 -26 30 -45 52 -19 23 -54 63 -76 89 -23 26
-60 71 -83 100 -26 33 -50 52 -64 53 -55 3 -184 4 -208 1z"/>
<path d="M1918 4650 c-17 -5 -23 -13 -23 -35 0 -23 6 -30 29 -36 43 -12 64
-36 75 -91 11 -49 17 -710 7 -739 -3 -8 -7 -31 -9 -52 -6 -46 -21 -65 -61 -75
-24 -6 -31 -14 -31 -33 l0 -24 355 1 c386 1 459 9 563 61 105 52 173 159 169
263 -6 118 -76 191 -240 251 l-32 12 23 12 c13 6 36 15 51 19 36 9 120 94 126
126 8 51 2 147 -10 171 -25 46 -71 96 -109 117 -82 46 -152 54 -518 56 -187 0
-352 -1 -365 -4z m572 -45 c98 -9 118 -16 154 -53 104 -104 66 -314 -60 -335
-64 -11 -354 -8 -375 3 -18 10 -19 23 -19 176 0 159 1 166 23 188 17 17 35 23
77 25 30 1 55 3 57 4 3 4 60 0 143 -8z m127 -500 c52 -8 124 -69 147 -125 37
-94 22 -217 -34 -275 -47 -49 -102 -59 -318 -60 -240 0 -222 -20 -222 246 0
147 3 200 13 206 26 17 317 23 414 8z"/>
<path d="M4766 3232 c-42 -5 -121 -88 -130 -136 -13 -67 2 -114 49 -162 51
-50 108 -64 181 -44 48 14 99 63 110 106 11 44 -1 133 -23 162 -38 51 -116 82
-187 74z m107 -58 c35 -35 53 -115 38 -170 -15 -56 -75 -99 -124 -90 -57 11
-88 60 -89 140 -1 89 43 146 113 146 26 0 44 -8 62 -26z"/>
<path d="M6185 3232 c-66 -7 -114 -41 -144 -101 -27 -56 -27 -103 0 -159 17
-35 32 -48 75 -69 46 -21 62 -24 107 -19 46 6 60 13 94 49 40 42 73 123 59
146 -4 6 -9 21 -11 32 -6 32 -30 64 -67 92 -35 26 -65 34 -113 29z m87 -63
c37 -44 45 -132 19 -202 -11 -29 -74 -61 -106 -53 -103 26 -133 181 -50 253
32 27 42 31 78 27 26 -3 49 -13 59 -25z"/>
<path d="M4285 3220 c-3 -5 4 -14 15 -20 19 -10 20 -20 19 -146 -2 -133 -2
-134 -26 -140 -17 -5 -21 -10 -14 -18 10 -12 160 -13 207 -1 18 4 54 65 54 90
0 13 -31 3 -37 -12 -13 -38 -36 -53 -79 -53 l-43 0 2 137 c2 132 3 137 24 143
13 3 19 9 15 16 -9 12 -129 16 -137 4z"/>
<path d="M5110 3220 c0 -5 9 -14 20 -20 18 -10 20 -21 20 -140 0 -121 -1 -130
-22 -144 -12 -9 -20 -17 -17 -20 2 -2 30 -6 61 -8 41 -3 59 -1 62 9 3 8 -4 15
-19 19 -25 6 -25 7 -25 120 0 69 4 114 10 114 6 0 10 -6 10 -14 0 -7 14 -30
30 -51 17 -21 30 -41 30 -45 0 -4 20 -38 45 -76 29 -44 54 -71 70 -76 l25 -6
0 151 c0 141 1 153 20 165 34 21 22 29 -40 28 -37 -1 -60 -5 -60 -12 0 -7 8
-14 18 -17 23 -5 32 -45 32 -138 0 -74 -9 -86 -31 -41 -8 15 -38 68 -68 117
l-54 90 -59 2 c-32 1 -58 -2 -58 -7z"/>
<path d="M5598 3222 c-35 -3 -56 -22 -24 -22 20 0 23 -13 25 -147 2 -114 1
-123 -18 -135 -38 -23 -22 -29 70 -27 161 3 218 27 244 102 33 96 -22 208
-109 221 -46 7 -145 11 -188 8z m201 -53 c35 -27 45 -54 45 -121 1 -53 -23
-94 -68 -116 -28 -14 -97 -19 -115 -8 -7 5 -11 51 -11 126 0 98 3 122 17 135
23 24 93 15 132 -16z"/>
<path d="M6530 3216 c0 -7 7 -16 15 -20 12 -4 15 -29 15 -139 0 -128 -1 -135
-22 -150 -22 -15 -20 -16 39 -16 34 -1 65 4 68 9 3 6 0 10 -8 10 -31 0 -38 27
-35 141 l3 112 35 -54 c19 -30 40 -65 47 -79 45 -92 114 -161 132 -132 3 6 5
66 4 134 -3 139 1 168 22 168 8 0 15 6 15 14 0 9 -15 13 -55 13 -57 0 -84 -14
-46 -24 12 -3 24 -15 26 -27 4 -16 1 -153 -4 -175 -2 -8 -81 115 -81 127 0 6
-4 12 -9 12 -5 0 -12 8 -15 18 -16 45 -42 65 -95 69 -39 3 -51 0 -51 -11z"/>
<path d="M6455 823 c-53 -12 -84 -35 -104 -76 -26 -54 -16 -99 34 -147 19 -19
35 -37 35 -42 0 -4 -18 -19 -39 -34 -91 -60 -118 -153 -63 -215 74 -83 251
-75 316 14 32 44 29 120 -8 175 -16 23 -34 42 -40 42 -6 1 -22 10 -36 21 l-24
21 36 31 c20 18 43 44 52 58 20 31 18 87 -2 111 -22 27 -115 51 -157 41z m59
-33 c16 -6 26 -17 26 -29 0 -11 4 -22 8 -25 13 -8 8 -36 -19 -103 -5 -13 -16
-23 -24 -23 -71 0 -118 129 -63 171 27 21 37 23 72 9z m17 -299 c44 -43 49
-53 49 -94 0 -105 -118 -152 -189 -76 -25 28 -29 105 -6 149 17 33 61 70 83
70 8 0 37 -22 63 -49z"/>
<path d="M6863 822 c-18 -2 -43 -15 -58 -30 -28 -28 -20 -41 14 -23 36 20 90
13 118 -15 22 -22 24 -31 19 -66 -9 -58 -21 -74 -66 -95 -47 -21 -49 -29 -12
-38 39 -10 92 -53 92 -75 0 -10 5 -22 10 -25 12 -7 7 -57 -8 -97 -22 -55 -109
-79 -177 -49 -48 21 -51 20 -35 -10 23 -42 130 -63 193 -38 38 15 103 80 106
106 5 42 1 95 -10 116 -17 31 -30 42 -77 66 -23 12 -42 23 -42 25 0 2 18 16
40 31 69 48 92 141 45 185 -23 22 -97 37 -152 32z"/>
<path d="M3805 813 c-37 -9 -83 -52 -95 -89 -15 -44 -5 -116 18 -136 9 -8 56
-38 105 -67 95 -57 110 -75 109 -132 -1 -71 -41 -103 -124 -102 -39 1 -60 7
-93 31 -42 30 -43 30 -47 9 -7 -42 2 -52 55 -65 106 -24 183 -9 241 47 72 69
69 151 -7 216 -22 19 -44 35 -49 35 -16 0 -118 71 -128 89 -5 11 -10 35 -10
54 0 27 7 41 32 62 29 24 38 27 86 22 29 -3 64 -13 77 -21 32 -21 31 -21 32
19 l1 35 -92 -1 c-50 -1 -100 -4 -111 -6z"/>
<path d="M6060 813 l-25 -4 0 -247 c0 -136 -3 -259 -7 -274 -8 -26 -8 -26 45
-25 47 2 51 4 47 22 -3 11 -5 136 -5 278 0 222 -2 257 -15 256 -8 -1 -26 -4
-40 -6z"/>
<path d="M7224 788 c1 -23 6 -32 16 -30 23 5 210 5 216 0 2 -3 -10 -34 -28
-69 -17 -35 -33 -70 -34 -77 -1 -7 -7 -19 -13 -26 -6 -7 -39 -69 -72 -137 -34
-68 -70 -136 -80 -151 -27 -38 -24 -52 7 -32 34 23 82 95 204 309 56 99 111
195 121 213 l19 32 -179 0 -179 0 2 -32z"/>
<path d="M4198 777 c-27 -22 -27 -22 -8 -45 21 -25 48 -24 70 3 9 10 7 20 -5
39 -21 32 -23 32 -57 3z"/>
<path d="M4215 652 l-30 -3 0 -189 c0 -119 4 -190 10 -191 55 -6 70 -3 65 11
-2 8 -6 96 -7 195 -2 98 -5 179 -6 180 -1 0 -15 -1 -32 -3z"/>
<path d="M4560 649 c-13 -6 -32 -17 -41 -25 -15 -13 -17 -13 -22 6 -4 15 -13
20 -40 20 -33 0 -35 -1 -31 -32 1 -18 3 -33 4 -33 4 0 1 -257 -4 -287 l-5 -38
42 0 42 0 -2 149 c-3 137 -1 150 18 175 13 17 30 26 47 26 32 0 75 -21 74 -35
0 -5 3 -14 8 -20 4 -5 8 -64 9 -130 0 -66 1 -130 1 -142 0 -16 6 -23 19 -23
45 0 47 4 44 133 -1 67 -3 141 -3 164 0 80 -78 124 -160 92z"/>
<path d="M5015 650 c-80 -20 -102 -39 -135 -113 -23 -53 -28 -118 -10 -162 6
-16 11 -32 10 -35 -5 -14 70 -72 104 -81 52 -14 120 -3 153 25 32 28 24 55
-10 31 -12 -8 -38 -15 -59 -15 -87 0 -132 55 -131 157 0 36 5 69 12 76 6 6 11
18 11 27 0 26 42 58 85 65 35 6 44 3 68 -20 15 -15 27 -26 28 -24 10 57 8 67
-14 73 -28 7 -74 6 -112 -4z"/>
<path d="M5386 650 c-38 -12 -85 -56 -104 -100 -21 -49 -24 -143 -5 -188 35
-86 106 -123 193 -102 44 11 101 53 88 65 -3 3 -17 1 -32 -5 -15 -5 -46 -10
-69 -10 -71 0 -127 71 -127 160 l0 40 114 0 c123 0 130 3 128 52 -2 71 -95
115 -186 88z m91 -32 c16 -13 26 -59 14 -71 -10 -10 -138 -13 -147 -4 -8 8 40
75 61 85 21 11 51 6 72 -10z"/>
</g>
</svg>
