<?xml version="1.0" standalone="no"?>
<!DOCTYPE svg PUBLIC "-//W3C//DTD SVG 20010904//EN"
 "http://www.w3.org/TR/2001/REC-SVG-20010904/DTD/svg10.dtd">
<svg version="1.0" xmlns="http://www.w3.org/2000/svg"
 width="400.000000pt" height="200.000000pt" viewBox="0 0 400.000000 200.000000"
 preserveAspectRatio="xMidYMid meet">

<g transform="translate(0.000000,200.000000) scale(0.100000,-0.100000)"
fill="#000000" stroke="none">
<path d="M1008 1006 c-543 -545 -990 -994 -994 -998 -4 -5 892 -8 1991 -8
l1999 0 -1000 1000 c-549 550 -1001 999 -1004 998 -3 -1 -449 -447 -992 -992z
m1088 804 c49 -50 90 -94 92 -99 1 -4 -21 -19 -50 -31 -97 -43 -232 -36 -307
16 l-23 17 93 93 c52 52 96 94 100 94 3 0 46 -41 95 -90z m-320 -163 c2 -7
-49 -127 -116 -267 -66 -139 -118 -255 -116 -257 1 -2 67 105 146 238 132 222
161 262 177 245 3 -3 -4 -69 -15 -148 -12 -78 -20 -143 -18 -145 2 -2 25 57
51 132 79 225 87 210 101 -215 7 -211 22 -299 24 -140 0 52 3 118 5 145 2 28
7 116 11 197 4 108 10 148 19 152 20 7 28 -8 76 -146 24 -70 45 -125 47 -123
2 1 -6 64 -17 138 -25 163 -25 157 -3 157 12 0 62 -77 167 -254 83 -140 151
-253 153 -251 1 1 -25 60 -59 131 -160 337 -190 407 -179 418 10 10 499 -469
1290 -1266 l325 -328 -1838 0 c-1010 0 -1837 3 -1837 7 0 10 1583 1593 1593
1593 4 0 10 -6 13 -13z"/>
<path d="M2510 448 c-135 -70 -102 -265 49 -285 88 -12 161 50 169 142 3 40
-1 57 -20 84 -52 76 -123 97 -198 59z m129 -59 c63 -59 37 -159 -45 -175 -92
-17 -152 100 -85 167 37 36 95 40 130 8z"/>
<path d="M680 453 c0 -4 -9 -64 -20 -133 -25 -158 -25 -150 9 -150 28 0 29 1
36 68 14 145 16 146 55 33 32 -92 37 -101 60 -101 24 0 29 9 60 100 34 98 50
123 50 78 0 -13 5 -58 12 -100 11 -76 12 -78 40 -78 32 0 32 -20 -1 185 l-16
100 -34 0 -34 0 -36 -102 c-20 -57 -38 -103 -41 -103 -3 0 -21 46 -40 103 -34
99 -36 102 -67 105 -18 2 -33 0 -33 -5z"/>
<path d="M1071 315 l-2 -145 31 0 30 0 0 145 0 145 -29 0 -29 0 -1 -145z"/>
<path d="M1230 315 l0 -145 29 0 c28 0 30 2 33 46 l3 47 33 -47 c27 -37 39
-46 63 -46 16 0 29 2 29 5 0 3 -16 27 -36 55 -24 33 -31 50 -22 50 20 0 55 40
63 71 8 31 -16 83 -44 99 -11 5 -49 10 -85 10 l-66 0 0 -145z m121 85 c21 -12
25 -50 7 -68 -7 -7 -24 -12 -39 -12 -24 0 -27 4 -31 41 -2 22 -2 42 1 45 8 7
42 4 62 -6z"/>
<path d="M1553 333 c-29 -71 -55 -136 -59 -145 -5 -15 -1 -18 24 -18 26 0 33
5 43 35 13 34 15 35 66 35 51 0 54 -1 70 -35 13 -28 23 -35 45 -35 15 0 28 1
28 3 0 1 -26 65 -58 142 -51 121 -62 140 -83 143 -22 2 -28 -8 -76 -125z m91
13 c3 -13 9 -31 12 -40 5 -13 -1 -16 -25 -16 -34 0 -36 3 -20 49 13 37 25 40
33 7z"/>
<path d="M1850 315 l0 -145 30 0 c30 0 30 1 30 55 0 55 0 55 31 55 91 0 132
89 70 151 -27 26 -36 29 -95 29 l-66 0 0 -145z m127 69 c12 -19 12 -24 -2 -38
-9 -9 -27 -16 -41 -16 -21 0 -24 4 -24 41 0 38 2 40 26 37 15 -2 33 -13 41
-24z"/>
<path d="M2120 315 l0 -145 29 0 c29 0 29 1 28 58 l0 57 52 3 51 3 0 -60 c0
-60 1 -61 28 -61 l27 0 -1 123 c-2 178 0 167 -29 167 -24 0 -25 -3 -25 -60 l0
-60 -50 0 c-49 0 -50 0 -52 33 0 17 0 44 1 60 2 24 -1 27 -28 27 l-31 0 0
-145z"/>
<path d="M2820 316 l0 -146 25 0 c24 0 24 1 27 103 l3 102 59 -102 c56 -99 59
-103 92 -103 l34 0 0 145 0 145 -30 0 -29 0 -3 -100 -3 -99 -55 97 c-51 88
-58 97 -88 100 l-32 3 0 -145z"/>
<path d="M3160 315 l0 -145 75 0 c73 0 75 1 75 25 0 23 -3 25 -51 25 l-50 0 3
33 c3 31 5 32 51 35 42 3 47 5 47 28 0 22 -4 24 -50 24 l-50 0 0 35 0 35 50 0
c47 0 50 2 50 25 0 24 -2 25 -75 25 l-75 0 0 -145z"/>
</g>
</svg>
