<?xml version="1.0" standalone="no"?>
<!DOCTYPE svg PUBLIC "-//W3C//DTD SVG 20010904//EN"
 "http://www.w3.org/TR/2001/REC-SVG-20010904/DTD/svg10.dtd">
<svg version="1.0" xmlns="http://www.w3.org/2000/svg"
 width="240.000000pt" height="200.000000pt" viewBox="0 0 240.000000 200.000000"
 preserveAspectRatio="xMidYMid meet">

<g transform="translate(0.000000,200.000000) scale(0.100000,-0.100000)"
fill="#000000" stroke="none">
<path d="M685 1961 c-38 -10 -89 -27 -112 -39 -38 -20 -43 -27 -43 -56 0 -39
25 -65 71 -75 29 -6 34 -13 56 -76 34 -101 61 -242 73 -388 l11 -128 -26 -21
c-14 -11 -24 -26 -21 -33 2 -7 -4 -21 -15 -31 -10 -9 -19 -23 -19 -31 0 -7 -3
-12 -7 -12 -24 4 -25 -4 -3 -17 l25 -14 -30 2 c-23 2 -31 9 -33 26 -4 29 16
54 38 47 9 -3 23 1 30 10 11 13 8 14 -21 9 -64 -12 -90 -62 -51 -97 36 -33 92
-8 92 40 0 11 9 28 20 38 20 18 20 17 20 -128 0 -80 3 -152 6 -161 3 -9 15
-16 25 -16 18 0 19 10 19 169 l0 169 37 13 c43 14 109 17 136 7 15 -7 17 -25
17 -177 0 -93 4 -172 9 -175 21 -13 41 9 56 60 8 30 18 54 22 54 7 0 -2 -78
-12 -102 -5 -13 -2 -18 9 -18 13 0 16 13 16 75 0 51 5 87 16 108 l17 32 -22
-19 -21 -19 0 39 c0 53 11 114 20 114 4 0 5 -12 3 -27 -4 -25 -2 -25 17 10 25
45 84 86 136 93 l39 6 -45 -23 c-32 -17 -51 -36 -67 -69 -29 -56 -31 -100 -4
-100 31 0 40 -22 47 -116 l7 -91 81 0 c44 0 90 -2 101 -4 16 -3 31 13 71 73
28 43 54 81 59 85 10 10 -29 -58 -67 -114 -15 -23 -28 -44 -28 -47 0 -3 15 -6
34 -6 31 0 34 3 40 39 4 25 15 47 30 58 13 11 26 30 29 44 2 13 5 -13 6 -59 1
-80 2 -83 24 -80 22 3 22 5 22 153 0 137 -2 154 -24 195 -34 66 -64 94 -144
131 -83 38 -77 50 8 18 70 -26 137 -90 159 -152 9 -27 16 -96 20 -191 2 -81 7
-150 10 -153 2 -3 10 -2 17 2 8 6 10 48 7 160 -4 141 -7 157 -32 208 -31 64
-89 120 -155 150 -35 16 -65 21 -126 21 -92 -1 -125 -12 -204 -72 -30 -23 -57
-40 -59 -37 -8 7 18 195 40 290 11 50 34 123 51 163 27 65 34 74 73 91 48 21
64 54 45 90 -16 28 -77 58 -168 82 -103 26 -354 26 -458 0z m293 -50 c2 -20
-2 -37 -10 -42 -11 -7 -11 -11 1 -18 11 -7 13 -64 13 -311 -1 -166 -2 -304 -4
-305 -2 -1 -44 -5 -94 -8 l-91 -6 -7 137 c-7 145 -26 290 -53 406 -11 52 -13
71 -4 74 7 2 2 13 -14 27 -32 30 -33 63 -2 69 12 3 31 7 42 10 11 2 65 3 120
3 l100 -2 3 -34z m65 9 c-3 -12 -8 -19 -11 -16 -5 6 5 36 12 36 2 0 2 -9 -1
-20z m55 -5 c-6 -14 -13 -23 -15 -21 -5 5 15 46 22 46 3 0 -1 -11 -7 -25z
m-518 -8 c0 -2 -10 -12 -22 -23 l-23 -19 19 23 c18 21 26 27 26 19z m491 -58
c-9 -22 -10 -22 -10 -3 -1 11 2 24 6 27 12 12 14 0 4 -24z m-473 13 c17 -11
62 -74 62 -86 0 -6 -9 3 -20 19 -11 17 -34 40 -52 53 -29 20 -21 33 10 14z
m672 -25 c0 -2 -14 -16 -31 -33 -26 -24 -30 -25 -20 -7 11 22 51 53 51 40z
m-213 -39 c-3 -8 -6 -5 -6 6 -1 11 2 17 5 13 3 -3 4 -12 1 -19z m-10 -50 c-3
-7 -5 -2 -5 12 0 14 2 19 5 13 2 -7 2 -19 0 -25z m-10 -50 c-3 -8 -6 -5 -6 6
-1 11 2 17 5 13 3 -3 4 -12 1 -19z m419 -424 c54 -28 105 -77 92 -90 -3 -3
-24 8 -47 24 -57 41 -112 54 -218 50 -50 -2 -89 1 -86 6 3 4 24 17 47 27 58
28 138 21 212 -17z m2 -59 c64 -35 91 -76 97 -147 l5 -53 -14 56 c-26 113 -85
157 -226 170 l-85 7 85 -2 c72 -2 93 -7 138 -31z m-308 10 c-41 -7 -133 -16
-205 -20 -105 -6 -140 -12 -182 -30 -29 -13 -53 -22 -53 -19 0 3 24 16 53 29
42 19 77 25 182 30 71 4 150 11 175 15 25 4 59 8 75 8 17 0 -4 -6 -45 -13z
m275 -24 c70 -32 105 -86 105 -160 0 -20 -7 -46 -15 -57 -13 -17 -14 -13 -15
49 0 101 -30 147 -112 172 -24 8 -34 14 -23 14 11 0 38 -8 60 -18z m-301 -26
c-9 -14 -18 -25 -20 -25 -2 0 2 11 8 25 6 14 15 25 20 25 5 0 1 -11 -8 -25z
m314 -19 c36 -33 37 -37 43 -123 3 -48 4 -90 2 -93 -2 -2 -16 10 -30 28 -35
46 -111 82 -178 85 -53 2 -55 3 -55 31 0 20 12 40 39 67 35 35 44 39 90 39 44
0 56 -5 89 -34z m152 -76 c0 -13 -1 -13 -10 0 -5 8 -10 22 -10 30 0 13 1 13
10 0 5 -8 10 -22 10 -30z m-243 -61 c69 -33 115 -102 99 -146 -6 -14 -10 -12
-25 13 -26 42 -75 81 -113 89 -34 7 -98 44 -98 58 0 15 95 6 137 -14z m-29
-64 c35 -15 82 -52 82 -64 0 -3 -36 -6 -80 -6 -85 0 -85 0 -74 54 7 35 19 38
72 16z m62 -96 c25 -12 40 -23 33 -26 -7 -2 -21 0 -32 6 -11 6 -45 11 -75 11
-31 0 -56 4 -56 9 0 27 73 26 130 0z"/>
<path d="M477 1753 c-4 -3 -7 -395 -7 -870 l0 -863 740 0 740 0 0 870 0 870
-360 0 c-233 0 -360 -4 -360 -10 0 -6 125 -10 355 -10 l355 0 0 -670 0 -670
-30 0 c-29 0 -40 -13 -20 -25 6 -4 10 -50 9 -108 0 -113 1 -114 -55 35 l-37
98 -56 0 c-43 -1 -52 -3 -38 -11 15 -9 17 -28 17 -160 0 -124 -3 -151 -15
-155 -28 -11 -15 -24 23 -24 33 1 35 2 20 14 -16 11 -18 31 -17 147 0 87 3
127 9 114 5 -11 31 -76 58 -145 43 -111 51 -125 73 -128 l26 -3 6 162 c9 231
27 231 27 1 l0 -182 -725 0 -725 0 0 855 0 855 70 0 c40 0 70 4 70 10 0 11
-142 14 -153 3z"/>
<path d="M1118 977 c-23 -22 -25 -29 -21 -93 3 -38 6 -71 8 -73 10 -10 25 14
25 42 0 18 5 39 10 47 7 11 10 0 10 -37 0 -50 2 -53 25 -53 25 0 25 1 25 83 0
85 -8 107 -41 107 -9 0 -27 -10 -41 -23z m41 -20 c-15 -12 -25 -15 -27 -8 -6
18 18 40 35 34 14 -5 12 -9 -8 -26z"/>
<path d="M530 780 c0 -5 5 -10 11 -10 14 0 2 -299 -12 -316 -7 -8 -1 -14 17
-18 31 -8 57 9 31 20 -15 5 -17 22 -16 113 l1 106 26 -115 c20 -84 31 -116 43
-118 14 -2 21 16 37 100 l20 103 1 -97 c1 -68 -3 -98 -11 -101 -7 -3 16 -6 52
-6 38 0 60 3 52 8 -10 6 -13 45 -10 175 l3 167 -40 -3 -40 -3 -15 -72 c-8 -39
-17 -74 -20 -77 -3 -2 -13 31 -23 75 l-18 79 -45 0 c-24 0 -44 -4 -44 -10z"/>
<path d="M893 776 c15 -12 17 -32 17 -169 0 -140 -2 -156 -17 -160 -10 -3 28
-5 85 -6 56 0 102 2 103 7 6 42 4 112 -3 112 -5 0 -20 -25 -34 -55 -38 -82
-54 -74 -54 26 0 70 2 80 15 69 8 -6 17 -20 20 -31 12 -36 25 -8 25 52 0 63
-10 75 -28 34 -20 -44 -32 -28 -32 45 0 85 20 95 50 25 11 -25 24 -45 30 -45
6 0 10 24 10 55 l0 55 -102 0 c-88 -1 -100 -3 -85 -14z"/>
<path d="M1190 780 c0 -5 5 -10 10 -10 15 0 13 -303 -2 -318 -9 -9 2 -12 51
-12 55 0 62 2 51 15 -9 11 -11 58 -8 175 l4 160 -53 0 c-29 0 -53 -4 -53 -10z"/>
<path d="M1410 781 c0 -6 5 -11 10 -11 6 0 10 -57 10 -151 0 -133 -2 -153 -17
-165 -16 -12 -13 -13 27 -13 40 0 43 1 27 13 -16 12 -17 29 -15 142 l3 129 32
-85 c79 -213 72 -200 102 -200 l28 0 6 162 c3 103 9 164 16 166 24 8 9 22 -24
22 -19 0 -35 -4 -35 -10 0 -5 5 -10 10 -10 6 0 10 -39 10 -97 l0 -98 -43 105
-42 105 -52 3 c-32 2 -53 -1 -53 -7z"/>
<path d="M1755 615 l0 -175 88 0 87 0 0 60 c0 33 -4 60 -8 60 -4 0 -20 -25
-35 -55 -15 -30 -31 -55 -37 -55 -6 0 -10 59 -10 160 0 100 4 160 10 160 6 0
10 5 10 10 0 6 -24 10 -52 10 l-53 0 0 -175z"/>
<path d="M1120 397 c-14 -7 -31 -25 -38 -40 -19 -39 -3 -84 63 -174 57 -78 63
-98 33 -117 -23 -14 -50 11 -80 77 l-23 52 -3 -69 c-3 -75 0 -85 22 -67 11 9
20 10 35 2 62 -34 121 7 121 84 0 35 -9 54 -51 111 -64 86 -76 111 -62 125 20
20 51 -1 75 -49 l23 -47 3 54 c3 55 -3 75 -17 52 -7 -10 -14 -10 -39 3 -37 19
-31 19 -62 3z"/>
<path d="M523 378 c8 -13 27 -92 42 -175 27 -144 30 -153 51 -153 20 0 25 9
40 78 l18 77 14 -78 c15 -74 17 -78 40 -75 24 3 26 10 54 153 15 83 33 158 38
167 14 25 13 28 -16 28 -21 0 -24 -4 -19 -20 7 -23 -14 -170 -25 -170 -10 0
-33 166 -25 179 4 7 -13 11 -51 11 -49 0 -55 -2 -44 -15 16 -19 27 -194 12
-180 -6 6 -17 52 -24 103 l-12 92 -53 0 c-53 0 -53 0 -40 -22z"/>
<path d="M848 393 c17 -7 17 -329 0 -336 -7 -3 33 -6 90 -6 l102 -1 0 59 c0
33 -4 62 -9 65 -4 3 -20 -22 -34 -54 -38 -89 -57 -82 -57 20 0 78 1 80 20 70
11 -6 20 -20 20 -30 0 -11 5 -20 10 -20 6 0 10 30 10 70 0 75 -9 88 -27 40 -6
-16 -16 -30 -23 -30 -14 0 -9 142 6 147 6 2 19 -15 29 -37 31 -69 45 -71 45
-6 l0 56 -97 -1 c-54 0 -92 -3 -85 -6z"/>
<path d="M1260 345 c0 -30 2 -55 5 -55 2 0 15 21 29 47 l24 47 7 -152 c7 -143
6 -154 -11 -167 -17 -13 -13 -14 44 -15 34 0 62 4 62 9 0 5 -5 11 -10 13 -7 2
-10 60 -8 163 l3 160 28 -52 c15 -29 30 -53 32 -53 3 0 5 25 5 55 l0 55 -105
0 -105 0 0 -55z"/>
<path d="M1520 370 c-26 -28 -50 -94 -50 -139 0 -51 23 -123 50 -151 74 -79
170 3 170 145 0 142 -96 224 -170 145z m85 -22 c3 -24 5 -97 3 -163 -3 -112
-4 -120 -23 -120 -19 0 -20 8 -23 150 -3 159 -1 175 22 175 10 0 17 -15 21
-42z"/>
</g>
</svg>
