<?xml version="1.0" standalone="no"?>
<!DOCTYPE svg PUBLIC "-//W3C//DTD SVG 20010904//EN"
 "http://www.w3.org/TR/2001/REC-SVG-20010904/DTD/svg10.dtd">
<svg version="1.0" xmlns="http://www.w3.org/2000/svg"
 width="1200.000000pt" height="1200.000000pt" viewBox="0 0 1200.000000 1200.000000"
 preserveAspectRatio="xMidYMid meet">

<g transform="translate(0.000000,1200.000000) scale(0.100000,-0.100000)"
fill="#000000" stroke="none">
<path d="M1215 7350 c-234 -28 -440 -104 -622 -229 -299 -206 -490 -493 -570
-856 -21 -100 -28 -313 -13 -430 74 -593 530 -1069 1119 -1169 133 -23 340
-21 477 4 267 48 511 176 710 375 202 201 340 470 384 745 16 105 14 337 -5
443 -49 281 -189 543 -395 741 -197 188 -413 302 -675 356 -110 23 -308 32
-410 20z m405 -79 c249 -52 470 -171 650 -351 253 -251 382 -559 383 -910 1
-159 -14 -260 -55 -390 -150 -472 -534 -810 -1019 -896 -132 -23 -336 -21
-464 4 -542 108 -952 529 -1041 1070 -21 129 -14 372 15 487 134 540 535 911
1080 1000 115 19 326 13 451 -14z"/>
<path d="M1146 7134 c-596 -108 -1019 -689 -932 -1284 28 -189 84 -336 188
-491 142 -212 349 -369 592 -448 125 -41 183 -51 311 -58 310 -16 611 95 841
310 365 341 468 896 249 1338 -166 335 -476 571 -835 634 -105 19 -308 18
-414 -1z m275 -187 c49 -139 57 -177 39 -177 -15 0 -40 -56 -40 -91 0 -23 11
-44 41 -76 55 -60 72 -103 78 -200 l6 -82 233 134 c129 74 237 135 240 135 4
0 19 -22 34 -49 l28 -48 -233 -133 c-332 -191 -309 -174 -305 -217 2 -29 10
-41 34 -55 l32 -19 143 84 c259 150 383 222 390 225 6 3 59 -83 59 -97 0 -3
-106 -66 -235 -140 -129 -74 -235 -137 -235 -140 0 -3 25 -19 56 -35 70 -37
131 -111 141 -169 4 -27 17 -52 35 -71 27 -26 34 -28 82 -23 29 3 57 2 62 -1
27 -19 204 -235 199 -243 -9 -14 -32 -11 -177 17 -140 27 -158 35 -158 66 0
11 -14 33 -31 50 -29 30 -32 30 -87 23 -118 -17 -163 -12 -235 28 -37 20 -70
37 -72 37 -3 0 -5 -124 -5 -275 l0 -276 -57 3 -58 3 -3 310 -2 310 -31 18
c-30 17 -33 17 -63 -1 l-31 -18 -3 -313 -2 -312 -58 3 -57 3 -3 273 c-1 149
-4 272 -6 272 -3 0 -26 -13 -53 -30 -73 -44 -130 -57 -201 -42 -32 7 -70 12
-84 12 -31 0 -77 -44 -85 -82 -6 -32 -22 -39 -178 -68 -129 -24 -155 -25 -155
-6 0 7 45 65 100 129 l100 116 53 -6 c67 -7 99 16 123 90 28 85 61 125 146
175 27 15 48 30 48 34 0 3 -100 63 -222 134 -123 70 -228 131 -235 137 -10 7
-9 14 2 33 8 13 22 35 30 49 l15 24 270 -155 270 -155 30 18 c26 15 30 23 30
58 0 38 -3 43 -42 65 -109 60 -474 273 -482 280 -8 8 38 100 50 100 6 0 412
-232 450 -257 21 -13 21 -12 26 64 7 95 25 142 78 199 22 24 42 54 46 69 7 30
-10 76 -37 101 -10 9 -19 21 -19 25 0 4 23 73 51 154 38 108 55 145 67 143 9
-2 33 -55 63 -141z"/>
<path d="M1316 6479 c-25 -20 -26 -24 -26 -125 l0 -104 35 -17 c33 -16 38 -16
63 -1 26 16 27 20 30 122 2 95 1 107 -18 126 -26 26 -50 25 -84 -1z"/>
<path d="M1317 6066 c-35 -20 -37 -23 -35 -66 3 -38 7 -47 36 -63 32 -19 34
-19 73 -2 38 17 39 20 39 66 0 46 -2 50 -38 68 -37 19 -37 19 -75 -3z"/>
<path d="M1011 5877 c-46 -29 -88 -61 -92 -73 -10 -29 11 -67 44 -78 24 -9 37
-5 80 19 122 68 127 72 127 115 0 34 -4 42 -30 55 -16 8 -33 15 -37 14 -4 0
-46 -24 -92 -52z"/>
<path d="M1567 5912 c-24 -15 -27 -23 -25 -56 3 -37 6 -41 88 -88 95 -54 123
-57 154 -15 19 26 19 30 6 54 -14 25 -162 123 -185 123 -5 0 -23 -8 -38 -18z"/>
<path d="M2950 7124 c0 -4 59 -192 131 -418 72 -226 144 -451 160 -501 15 -49
55 -175 88 -280 l61 -190 0 -430 -1 -430 218 0 218 0 5 475 5 475 77 220 c82
233 368 1075 368 1081 0 2 -83 4 -184 4 l-183 0 -36 -102 c-20 -57 -80 -231
-132 -388 -124 -367 -132 -388 -138 -370 -3 8 -35 114 -72 235 -37 121 -95
310 -129 420 l-63 200 -196 3 c-108 1 -197 0 -197 -4z"/>
<path d="M4565 7118 c-2 -7 -8 -38 -14 -68 -5 -30 -26 -141 -45 -247 -20 -105
-79 -427 -132 -715 -52 -288 -106 -584 -120 -658 -14 -74 -36 -196 -49 -270
-14 -74 -31 -167 -39 -207 -7 -40 -11 -75 -8 -78 3 -3 85 -5 183 -5 l177 0 6
28 c3 15 21 124 41 242 19 118 37 225 40 238 l5 22 225 0 c204 0 224 -2 229
-17 4 -17 21 -118 62 -373 8 -52 17 -105 20 -117 4 -23 5 -23 204 -23 138 0
200 3 200 11 0 6 -27 174 -60 372 -32 199 -113 691 -180 1092 -66 402 -123
742 -126 758 l-6 27 -304 0 c-235 0 -306 -3 -309 -12z m289 -420 c7 -56 27
-179 101 -631 25 -153 43 -283 40 -288 -7 -11 -312 -12 -318 -1 -7 10 157 981
164 976 4 -2 9 -27 13 -56z"/>
<path d="M5740 6000 l0 -1130 178 2 177 3 2 824 c1 453 4 825 6 827 3 3 12
-39 22 -93 9 -54 21 -114 26 -133 4 -19 33 -156 63 -305 152 -747 177 -871
182 -887 5 -16 22 -18 165 -18 156 0 160 0 169 23 5 12 20 87 34 167 49 284
87 496 101 570 8 41 26 138 39 215 72 412 86 488 91 493 3 3 5 -376 5 -842 l0
-846 208 2 207 3 0 1125 0 1125 -322 3 -323 2 -5 -22 c-3 -13 -19 -102 -36
-198 -17 -96 -46 -263 -65 -370 -19 -107 -44 -255 -56 -327 -12 -73 -25 -133
-28 -133 -3 0 -20 71 -37 158 -45 223 -172 843 -178 870 l-5 22 -310 0 -310 0
0 -1130z"/>
<path d="M8005 7118 c-2 -7 -9 -44 -15 -83 -6 -38 -59 -326 -116 -640 -58
-313 -118 -642 -134 -730 -16 -88 -54 -296 -84 -463 -31 -166 -56 -309 -56
-317 0 -13 26 -15 182 -13 l182 3 32 190 c17 105 37 223 43 263 l13 72 226 -2
227 -3 36 -215 c20 -118 39 -236 43 -262 l7 -48 198 0 c109 0 200 2 202 4 2 3
-33 229 -78 503 -46 274 -129 779 -186 1123 l-103 625 -307 3 c-241 2 -308 0
-312 -10z m331 -668 c19 -118 48 -298 65 -400 16 -102 32 -206 36 -232 l6 -48
-151 0 c-83 0 -156 2 -164 5 -10 4 4 106 69 493 45 268 82 489 83 492 3 8 18
-77 56 -310z"/>
<path d="M9182 6003 l3 -1128 198 -3 197 -2 0 495 0 495 215 0 215 0 2 -492 3
-493 203 -3 202 -2 0 1130 0 1130 -202 -2 -203 -3 -3 -427 -2 -428 -215 0
-215 0 0 430 0 430 -200 0 -200 0 2 -1127z"/>
<path d="M11001 7068 c-6 -35 -34 -187 -62 -338 -27 -151 -59 -322 -69 -380
-10 -58 -35 -193 -55 -300 -20 -107 -49 -267 -65 -355 -44 -242 -139 -766
-146 -797 l-6 -28 182 0 c149 0 182 3 186 15 3 8 25 126 48 262 l42 248 227 3
c125 1 227 -1 228 -5 0 -5 19 -123 42 -263 l43 -255 202 -3 c111 -1 202 0 202
4 0 3 -22 139 -50 302 -27 163 -86 518 -130 787 -45 270 -105 638 -135 819
-30 181 -55 333 -55 338 0 4 -139 8 -309 8 l-309 0 -11 -62z m319 -499 c17
-101 52 -319 79 -484 27 -165 47 -303 44 -307 -6 -11 -311 -10 -317 1 -3 5 30
223 74 486 44 262 80 481 80 487 0 41 14 -24 40 -183z"/>
</g>
</svg>
